<?xml version="1.0" encoding="UTF-8" standalone="no"?>
<svg
   xml:space="preserve"
   width="132.22499"
   height="133.80313"
   version="1.1"
   id="svg816"
   sodipodi:docname="stars.svg"
   xmlns:inkscape="http://www.inkscape.org/namespaces/inkscape"
   xmlns:sodipodi="http://sodipodi.sourceforge.net/DTD/sodipodi-0.dtd"
   xmlns:xlink="http://www.w3.org/1999/xlink"
   xmlns="http://www.w3.org/2000/svg"
   xmlns:svg="http://www.w3.org/2000/svg"><sodipodi:namedview
     id="namedview818"
     pagecolor="#ffffff"
     bordercolor="#000000"
     borderopacity="0.25"
     inkscape:showpageshadow="2"
     inkscape:pageopacity="0.0"
     inkscape:pagecheckerboard="0"
     inkscape:deskcolor="#d1d1d1"
     showgrid="false" /><defs
     id="defs3"><path
       id="a"
       d="M 0,0 H 378.7 V 1872 H 0 Z" /></defs><clipPath
     id="b"><use
       xlink:href="#a"
       overflow="visible"
       id="use5" /></clipPath><g
     fill="none"
     stroke="currentColor"
     stroke-linecap="round"
     stroke-miterlimit="10"
     stroke-width="4"
     clip-path="url(#b)"
     id="g814"
     transform="translate(-132.42476,-66.851631)"><path
       d="m 54.6,78.7 v 28.5 l 11.6,6.7 11.6,-6.7 V 78.7 m 5.2,54.6 v -9.7 l -16.8,-9.7 -16.8,9.7 v 9.7"
       id="path8" /><path
       d="m 66.2,83.5 20.2,20.2 13,-3.5 3.4,-13 L 82.6,67"
       id="path10" /><path
       d="m 132.5,109.6 -7.5,-7.6 -6.9,-6.8 -18.7,5 -5.1,18.7 6.9,6.9 31.3,31.3 M 82.6,67 102.8,46.9 99.4,33.9 86.4,30.4 66.2,50.6 m 42.5,-49.8 -7.5,7.5 -6.9,6.9 5.1,18.7 18.7,5 6.9,-6.8 31.3,-31.3"
       id="path12" /><path
       d="M 66.2,50.6 46,30.4 33,33.9 29.6,46.9 49.8,67 M -0.1,24.5 7.4,32.1 14.3,38.9 33,33.9 38.1,15.2 31.2,8.3 -0.1,-23 m 49.9,90 -20.2,20.2 3.4,13 13,3.5 20.2,-20.2 m -42.5,49.8 7.5,-7.5 6.9,-6.9 -5.1,-18.7 -18.7,-5 -6.9,6.8 -31.2,31.3 M 77.8,78.7 h 28.6 L 113.1,67 106.4,55.4 H 77.8"
       id="path14" /><path
       d="m 132.5,50.2 h -9.7 l -9.7,16.8 9.7,16.8 h 9.7 M 77.8,55.4 V 26.9 L 66.2,20.2 54.6,26.9 V 55.4 M 49.4,0.8 v 9.7 L 66.2,20.2 83,10.5 V 0.8 M 54.6,55.4 H 26 L 19.3,67 26,78.7 H 54.6 M -0.1,83.8 H 9.6 L 19.3,67 9.6,50.2 h -9.7"
       id="path16" /><circle
       cx="66.199997"
       cy="133.3"
       r="6.1999998"
       id="circle18" /><circle
       cx="66.199997"
       cy="67"
       r="6.1999998"
       id="circle20" /><path
       d="m 54.6,212.3 v 28.6 l 11.6,6.7 11.6,-6.7 V 212.3 M 83,267 v -9.7 l -16.8,-9.7 -16.8,9.7 v 9.7"
       id="path22" /><path
       d="m 66.2,217.1 20.2,20.2 13,-3.4 3.4,-13 -20.2,-20.2"
       id="path24" /><path
       d="m 132.5,243.2 -7.5,-7.5 -6.9,-6.9 -18.7,5.1 -5.1,18.7 6.9,6.9 31.3,31.3 m -49.9,-90.1 20.2,-20.2 -3.4,-13 -13,-3.4 -20.2,20.2 m 42.5,-49.9 -7.5,7.5 -6.9,6.9 5.1,18.7 18.7,5.1 6.9,-6.9 31.3,-31.3 M 66.2,184.3 46,164.1 l -13,3.4 -3.4,13 20.2,20.2 m -49.9,-42.5 7.5,7.5 6.9,6.9 18.7,-5.1 5.1,-18.7 -6.9,-6.9 -31.3,-31.2 m 49.9,90 -20.2,20.2 3.4,13 13,3.4 20.2,-20.2 m -42.5,49.9 7.5,-7.5 6.9,-6.9 -5.1,-18.7 -18.7,-5.1 -6.9,6.9 -31.2,31.3"
       id="path26" /><path
       d="m 77.8,212.3 h 28.6 l 6.7,-11.6 -6.7,-11.6 H 77.8"
       id="path28" /><path
       d="m 132.5,183.9 h -9.7 l -9.7,16.8 9.7,16.8 h 9.7 M 77.8,189.1 v -28.6 l -11.6,-6.7 -11.6,6.7 v 28.6 m -5.2,-54.7 v 9.7 l 16.8,9.7 16.8,-9.7 v -9.7 M 54.6,189.1 H 26 l -6.7,11.6 6.7,11.6 h 28.6 m -54.7,5.2 h 9.7 l 9.7,-16.8 -9.7,-16.8 h -9.7"
       id="path30" /><circle
       cx="66.199997"
       cy="267"
       r="6.1999998"
       id="circle32" /><circle
       cx="66.199997"
       cy="200.7"
       r="6.1999998"
       id="circle34" /><path
       d="m 54.6,346 v 28.5 l 11.6,6.7 11.6,-6.7 V 346 m 5.2,54.6 v -9.7 l -16.8,-9.7 -16.8,9.7 v 9.7"
       id="path36" /><path
       d="m 66.2,350.8 20.2,20.2 13,-3.5 3.4,-13 -20.2,-20.1"
       id="path38" /><path
       d="m 132.5,376.9 -7.5,-7.6 -6.9,-6.8 -18.7,5 -5.1,18.7 6.9,6.9 31.3,31.3 m -49.9,-90 20.2,-20.2 -3.4,-13 -13,-3.5 -20.2,20.2 m 42.5,-49.8 -7.5,7.5 -6.9,6.9 5.1,18.7 18.7,5 6.9,-6.8 31.3,-31.3"
       id="path40" /><path
       d="M 66.2,317.9 46,297.7 l -13,3.5 -3.4,13 20.2,20.2"
       id="path42" /><path
       d="m -0.1,291.8 7.5,7.6 6.9,6.8 18.7,-5 5.1,-18.7 -6.9,-6.9 -31.3,-31.3 m 49.9,90.1 -20.2,20.1 3.4,13 13,3.5 20.2,-20.2 m -42.5,49.8 7.5,-7.5 6.9,-6.9 -5.1,-18.7 -18.7,-5 -6.9,6.8 -31.2,31.3 M 77.8,346 h 28.6 l 6.7,-11.6 -6.7,-11.7 H 77.8 m 54.7,-5.1 h -9.7 l -9.7,16.8 9.7,16.8 h 9.7 M 77.8,322.7 v -28.5 l -11.6,-6.7 -11.6,6.7 v 28.5 m -5.2,-54.6 v 9.7 l 16.8,9.7 16.8,-9.7 v -9.7"
       id="path44" /><path
       d="M 54.6,322.7 H 26 L 19.3,334.4 26,346 h 28.6 m -54.7,5.2 h 9.7 l 9.7,-16.8 -9.7,-16.8 h -9.7"
       id="path46" /><circle
       cx="66.199997"
       cy="400.60001"
       r="6.1999998"
       id="circle48" /><circle
       cx="66.199997"
       cy="334.39999"
       r="6.1999998"
       id="circle50" /><path
       d="m 54.6,479.6 v 28.6 l 11.6,6.7 11.6,-6.7 v -28.6"
       id="path52" /><path
       d="m 83,534.3 v -9.7 l -16.8,-9.7 -16.8,9.7 v 9.7 m 16.8,-49.9 20.2,20.2 13,-3.4 3.4,-13 L 82.6,468 m 49.9,42.5 -7.5,-7.5 -6.9,-6.9 -18.7,5.1 -5.1,18.7 6.9,6.9 31.3,31.3 M 82.6,468 l 20.2,-20.2 -3.4,-13 -13,-3.4 -20.2,20.2 m 42.5,-49.9 -7.5,7.6 -6.9,6.8 5.1,18.7 18.7,5.1 6.9,-6.9 31.3,-31.3"
       id="path54" /><path
       d="M 66.2,451.6 46,431.4 l -13,3.4 -3.4,13 20.2,20.2 m -49.9,-42.5 7.5,7.5 6.9,6.9 18.7,-5.1 5.1,-18.7 -6.9,-6.8 L -0.1,378 m 49.9,90 -20.2,20.2 3.4,13 13,3.4 20.2,-20.2 m -42.5,49.9 7.5,-7.5 6.9,-6.9 L 33,501.2 14.3,496.1 7.4,503 -23.8,534.3 M 77.8,479.6 h 28.6 l 6.7,-11.6 -6.7,-11.6 H 77.8"
       id="path56" /><path
       d="m 132.5,451.2 h -9.7 l -9.7,16.8 9.7,16.8 h 9.7 M 77.8,456.4 v -28.6 l -11.6,-6.7 -11.6,6.7 v 28.6 m -5.2,-54.7 v 9.7 l 16.8,9.7 16.8,-9.7 v -9.7 M 54.6,456.4 H 26 L 19.3,468 26,479.6 h 28.6 m -54.7,5.2 H 9.6 L 19.3,468 9.6,451.2 h -9.7"
       id="path58" /><circle
       cx="66.199997"
       cy="534.29999"
       r="6.1999998"
       id="circle60" /><circle
       cx="66.199997"
       cy="468"
       r="6.1999998"
       id="circle62" /><path
       d="m 54.6,613.3 v 28.5 l 11.6,6.8 11.6,-6.8 v -28.5 m 5.2,54.6 v -9.6 l -16.8,-9.7 -16.8,9.7 v 9.6"
       id="path64" /><path
       d="m 66.2,618.1 20.2,20.2 13,-3.5 3.4,-12.9 -20.2,-20.2"
       id="path66" /><path
       d="m 132.5,644.2 -7.5,-7.5 -6.9,-6.9 -18.7,5 -5.1,18.8 6.9,6.8 31.3,31.3 m -49.9,-90 20.2,-20.2 -3.4,-13 -13,-3.5 -20.2,20.2 m 42.5,-49.8 -7.5,7.5 -6.9,6.9 5.1,18.7 18.7,5 6.9,-6.8 31.3,-31.3"
       id="path68" /><path
       d="M 66.2,585.2 46,565 l -13,3.5 -3.4,13 20.2,20.2 m -49.9,-42.6 7.5,7.6 6.9,6.8 18.7,-5 5.1,-18.7 -6.9,-6.9 -31.3,-31.3 m 49.9,90.1 -20.2,20.2 3.4,12.9 13,3.5 20.2,-20.2 m -42.5,49.8 7.5,-7.5 6.9,-6.8 -5.1,-18.8 -18.7,-5 -6.9,6.9 -31.2,31.2 M 77.8,613.3 h 28.6 l 6.7,-11.6 -6.7,-11.7 H 77.8"
       id="path70" /><path
       d="m 132.5,584.9 h -9.7 l -9.7,16.8 9.7,16.8 h 9.7 M 77.8,590 v -28.5 l -11.6,-6.7 -11.6,6.7 V 590"
       id="path72" /><path
       d="m 49.4,535.4 v 9.7 l 16.8,9.7 16.8,-9.7 v -9.7 M 54.6,590 H 26 l -6.7,11.7 6.7,11.6 h 28.6 m -54.7,5.2 h 9.7 l 9.7,-16.8 -9.7,-16.8 h -9.7"
       id="path74" /><circle
       cx="66.199997"
       cy="667.90002"
       r="6.1999998"
       id="circle76" /><circle
       cx="66.199997"
       cy="601.70001"
       r="6.1999998"
       id="circle78" /><path
       d="m 54.6,746.9 v 28.6 l 11.6,6.7 11.6,-6.7 v -28.6"
       id="path80" /><path
       d="m 83,801.6 v -9.7 l -16.8,-9.7 -16.8,9.7 v 9.7 m 16.8,-49.9 20.2,20.2 13,-3.4 3.4,-13 -20.2,-20.2"
       id="path82" /><path
       d="m 132.5,777.8 -7.5,-7.5 -6.9,-6.9 -18.7,5.1 -5.1,18.7 6.9,6.9 31.3,31.3 m -49.9,-90.1 20.2,-20.2 -3.4,-12.9 -13,-3.5 -20.2,20.2 m 42.5,-49.9 -7.5,7.6 -6.9,6.8 5.1,18.8 18.7,5 6.9,-6.9 31.3,-31.3"
       id="path84" /><path
       d="M 66.2,718.9 46,698.7 l -13,3.5 -3.4,12.9 20.2,20.2 m -49.9,-42.5 7.5,7.5 6.9,6.9 18.7,-5 5.1,-18.8 -6.9,-6.8 -31.3,-31.3"
       id="path86" /><path
       d="m 49.8,735.3 -20.2,20.2 3.4,13 13,3.4 20.2,-20.2 m -42.5,49.9 7.5,-7.5 6.9,-6.9 -5.1,-18.7 -18.7,-5.1 -6.9,6.9 -31.2,31.3 M 77.8,746.9 h 28.6 l 6.7,-11.6 -6.7,-11.6 H 77.8"
       id="path88" /><path
       d="m 132.5,718.5 h -9.7 l -9.7,16.8 9.7,16.8 h 9.7 M 77.8,723.7 v -28.6 l -11.6,-6.7 -11.6,6.7 v 28.6"
       id="path90" /><path
       d="m 49.4,669 v 9.7 l 16.8,9.7 16.8,-9.7 V 669 M 54.6,723.7 H 26 l -6.7,11.6 6.7,11.6 h 28.6 m -54.7,5.2 h 9.7 l 9.7,-16.8 -9.7,-16.8 h -9.7"
       id="path92" /><circle
       cx="66.199997"
       cy="801.59998"
       r="6.1999998"
       id="circle94" /><circle
       cx="66.199997"
       cy="735.29999"
       r="6.1999998"
       id="circle96" /><path
       d="m 54.6,880.6 v 28.5 l 11.6,6.8 11.6,-6.8 v -28.5"
       id="path98" /><path
       d="m 83,935.3 v -9.7 l -16.8,-9.7 -16.8,9.7 v 9.7 m 16.8,-49.9 20.2,20.2 13,-3.5 3.4,-12.9 L 82.6,869"
       id="path100" /><path
       d="m 132.5,911.5 -7.5,-7.5 -6.9,-6.9 -18.7,5 -5.1,18.8 6.9,6.8 31.3,31.3 m -49.9,-90 20.2,-20.2 -3.4,-13 -13,-3.5 -20.2,20.2"
       id="path102" /><path
       d="m 108.7,802.7 -7.5,7.5 -6.9,6.9 5.1,18.7 18.7,5 6.9,-6.8 31.3,-31.3 M 66.2,852.5 46,832.3 l -13,3.5 -3.4,13 20.2,20.2 m -49.9,-42.6 7.5,7.6 6.9,6.8 18.7,-5 5.1,-18.7 -6.9,-6.9 -31.3,-31.3 m 49.9,90.1 -20.2,20.2 3.4,12.9 13,3.5 20.2,-20.2 m -42.5,49.9 7.5,-7.6 6.9,-6.8 -5.1,-18.8 -18.7,-5 -6.9,6.9 -31.2,31.3 M 77.8,880.6 h 28.6 l 6.7,-11.6 -6.7,-11.7 H 77.8"
       id="path104" /><path
       d="m 132.5,852.2 h -9.7 l -9.7,16.8 9.7,16.8 h 9.7 M 77.8,857.3 v -28.5 l -11.6,-6.7 -11.6,6.7 v 28.5"
       id="path106" /><path
       d="m 49.4,802.7 v 9.7 l 16.8,9.7 16.8,-9.7 v -9.7 M 54.6,857.3 H 26 L 19.3,869 26,880.6 h 28.6 m -54.7,5.2 H 9.6 L 19.3,869 9.6,852.2 h -9.7"
       id="path108" /><circle
       cx="66.199997"
       cy="935.29999"
       r="6.1999998"
       id="circle110" /><circle
       cx="66.199997"
       cy="869"
       r="6.1999998"
       id="circle112" /><path
       d="m 54.6,1014.2 v 28.6 l 11.6,6.7 11.6,-6.7 v -28.6 m 5.2,54.7 v -9.7 l -16.8,-9.7 -16.8,9.7 v 9.7"
       id="path114" /><path
       d="m 66.2,1019.1 20.2,20.1 13,-3.4 3.4,-13 -20.2,-20.2"
       id="path116" /><path
       d="m 132.5,1045.1 -7.5,-7.5 -6.9,-6.8 -18.7,5 -5.1,18.7 6.9,6.9 31.3,31.3 m -49.9,-90.1 20.2,-20.2 -3.4,-12.9 -13,-3.5 -20.2,20.2 m 42.5,-49.9 -7.5,7.6 -6.9,6.8 5.1,18.8 18.7,5 6.9,-6.9 31.3,-31.3"
       id="path118" /><path
       d="M 66.2,986.2 46,966 l -13,3.5 -3.4,12.9 20.2,20.2 m -49.9,-42.5 7.5,7.5 6.9,6.9 18.7,-5 5.1,-18.8 -6.9,-6.8 -31.3,-31.3 m 49.9,90 -20.2,20.2 3.4,13 13,3.4 20.2,-20.1"
       id="path120" /><path
       d="m 23.7,1068.9 7.5,-7.5 6.9,-6.9 -5.1,-18.7 -18.7,-5 -6.9,6.8 -31.2,31.3 m 101.6,-54.7 h 28.6 l 6.7,-11.6 -6.7,-11.6 H 77.8 m 54.7,-5.2 h -9.7 l -9.7,16.8 9.7,16.8 h 9.7 M 77.8,991 v -28.6 l -11.6,-6.7 -11.6,6.7 V 991"
       id="path122" /><path
       d="M 49.4,936.3 V 946 L 66.2,955.7 83,946 v -9.7 M 54.6,991 H 26 l -6.7,11.6 6.7,11.6 h 28.6 m -54.7,5.2 h 9.7 l 9.7,-16.8 -9.7,-16.8 h -9.7"
       id="path124" /><circle
       cx="66.199997"
       cy="1068.9"
       r="6.1999998"
       id="circle126" /><circle
       cx="66.199997"
       cy="1002.6"
       r="6.1999998"
       id="circle128" /><path
       d="m 54.6,1147.9 v 28.6 l 11.6,6.7 11.6,-6.7 v -28.6"
       id="path130" /><path
       d="m 83,1202.6 v -9.7 l -16.8,-9.7 -16.8,9.7 v 9.7 m 16.8,-49.9 20.2,20.2 13,-3.5 3.4,-12.9 -20.2,-20.2"
       id="path132" /><path
       d="m 132.5,1178.8 -7.5,-7.5 -6.9,-6.9 -18.7,5 -5.1,18.8 6.9,6.8 31.3,31.3 m -49.9,-90 20.2,-20.2 -3.4,-13 -13,-3.5 -20.2,20.2"
       id="path134" /><path
       d="m 108.7,1070 -7.5,7.5 -6.9,6.9 5.1,18.7 18.7,5 6.9,-6.8 31.3,-31.3 m -90.1,49.8 -20.2,-20.2 -13,3.5 -3.4,13 20.2,20.2 m -49.9,-42.6 7.5,7.6 6.9,6.8 18.7,-5 5.1,-18.7 -6.9,-6.9 -31.3,-31.3 m 49.9,90.1 -20.2,20.2 3.4,12.9 13,3.5 20.2,-20.2 m -42.5,49.9 7.5,-7.6 6.9,-6.8 -5.1,-18.8 -18.7,-5 -6.9,6.9 -31.2,31.3 m 101.6,-54.7 h 28.6 l 6.7,-11.6 -6.7,-11.7 H 77.8 m 54.7,-5.1 h -9.7 l -9.7,16.8 9.7,16.8 h 9.7"
       id="path136" /><path
       d="m 77.8,1124.6 v -28.5 l -11.6,-6.7 -11.6,6.7 v 28.5"
       id="path138" /><path
       d="m 49.4,1070 v 9.7 l 16.8,9.7 16.8,-9.7 v -9.7 m -28.4,54.6 H 26 l -6.7,11.7 6.7,11.6 h 28.6 m -54.7,5.2 h 9.7 l 9.7,-16.8 -9.7,-16.8 h -9.7"
       id="path140" /><circle
       cx="66.199997"
       cy="1202.6"
       r="6.1999998"
       id="circle142" /><circle
       cx="66.199997"
       cy="1136.3"
       r="6.1999998"
       id="circle144" /><path
       d="m 54.6,1281.5 v 28.6 l 11.6,6.7 11.6,-6.7 v -28.6 m 5.2,54.7 v -9.7 l -16.8,-9.7 -16.8,9.7 v 9.7"
       id="path146" /><path
       d="m 66.2,1286.4 20.2,20.2 13,-3.5 3.4,-13 -20.2,-20.2"
       id="path148" /><path
       d="m 132.5,1312.5 -7.5,-7.6 -6.9,-6.8 -18.7,5 -5.1,18.7 6.9,6.9 31.3,31.3 m -49.9,-90.1 20.2,-20.2 -3.4,-12.9 -13,-3.5 -20.2,20.2 m 42.5,-49.9 -7.5,7.6 -6.9,6.8 5.1,18.8 18.7,5 6.9,-6.9 31.3,-31.3"
       id="path150" /><path
       d="m 66.2,1253.5 -20.2,-20.2 -13,3.5 -3.4,12.9 20.2,20.2"
       id="path152" /><path
       d="m -0.1,1227.4 7.5,7.5 6.9,6.9 18.7,-5 5.1,-18.8 -6.9,-6.8 -31.3,-31.3 m 49.9,90 -20.2,20.2 3.4,13 13,3.5 20.2,-20.2"
       id="path154" /><path
       d="m 23.7,1336.2 7.5,-7.5 6.9,-6.9 -5.1,-18.7 -18.7,-5 -6.9,6.8 -31.2,31.3 m 101.6,-54.7 h 28.6 l 6.7,-11.6 -6.7,-11.6 H 77.8 m 54.7,-5.2 h -9.7 l -9.7,16.8 9.7,16.8 h 9.7 m -54.7,-28.4 v -28.6 l -11.6,-6.7 -11.6,6.7 v 28.6 m -5.2,-54.7 v 9.7 l 16.8,9.7 16.8,-9.7 v -9.7 m -28.4,54.7 H 26 l -6.7,11.6 6.7,11.6 h 28.6 m -54.7,5.2 h 9.7 l 9.7,-16.8 -9.7,-16.8 h -9.7"
       id="path156" /><circle
       cx="66.199997"
       cy="1336.2"
       r="6.1999998"
       id="circle158" /><circle
       cx="66.199997"
       cy="1269.9"
       r="6.1999998"
       id="circle160" /><path
       d="m 54.6,1415.2 v 28.6 l 11.6,6.7 11.6,-6.7 v -28.6 m 5.2,54.7 v -9.7 l -16.8,-9.7 -16.8,9.7 v 9.7"
       id="path162" /><path
       d="m 66.2,1420 20.2,20.2 13,-3.5 3.4,-12.9 -20.2,-20.2"
       id="path164" /><path
       d="m 132.5,1446.1 -7.5,-7.5 -6.9,-6.9 -18.7,5 -5.1,18.8 6.9,6.8 31.3,31.3 m -49.9,-90 20.2,-20.2 -3.4,-13 -13,-3.5 -20.2,20.2"
       id="path166" /><path
       d="m 108.7,1337.3 -7.5,7.5 -6.9,6.9 5.1,18.7 18.7,5 6.9,-6.8 31.3,-31.3 m -90.1,49.8 -20.2,-20.2 -13,3.5 -3.4,13 20.2,20.2 m -49.9,-42.6 7.5,7.6 6.9,6.8 18.7,-5 5.1,-18.7 -6.9,-6.9 -31.3,-31.3"
       id="path168" /><path
       d="m 49.8,1403.6 -20.2,20.2 3.4,12.9 13,3.5 20.2,-20.2 m -42.5,49.9 7.5,-7.6 6.9,-6.8 -5.1,-18.8 -18.7,-5 -6.9,6.9 -31.2,31.3 m 101.6,-54.7 h 28.6 l 6.7,-11.6 -6.7,-11.7 H 77.8 m 54.7,-5.1 h -9.7 l -9.7,16.8 9.7,16.8 h 9.7 m -54.7,-28.5 v -28.5 l -11.6,-6.7 -11.6,6.7 v 28.5 m -5.2,-54.6 v 9.7 l 16.8,9.7 16.8,-9.7 v -9.7"
       id="path170" /><path
       d="M 54.6,1391.9 H 26 l -6.7,11.7 6.7,11.6 h 28.6 m -54.7,5.2 h 9.7 l 9.7,-16.8 -9.7,-16.8 h -9.7"
       id="path172" /><circle
       cx="66.199997"
       cy="1469.9"
       r="6.1999998"
       id="circle174" /><circle
       cx="66.199997"
       cy="1403.6"
       r="6.1999998"
       id="circle176" /><path
       d="m 54.6,1548.8 v 28.6 l 11.6,6.7 11.6,-6.7 v -28.6 m 5.2,54.7 v -9.7 l -16.8,-9.7 -16.8,9.7 v 9.7"
       id="path178" /><path
       d="m 66.2,1553.7 20.2,20.2 13,-3.5 3.4,-13 -20.2,-20.2"
       id="path180" /><path
       d="m 132.5,1579.8 -7.5,-7.6 -6.9,-6.8 -18.7,5 -5.1,18.7 6.9,6.9 31.3,31.3 m -49.9,-90.1 20.2,-20.2 -3.4,-12.9 -13,-3.5 -20.2,20.2 m 42.5,-49.9 -7.5,7.6 -6.9,6.8 5.1,18.8 18.7,5 6.9,-6.9 31.3,-31.3"
       id="path182" /><path
       d="m 66.2,1520.8 -20.2,-20.2 -13,3.5 -3.4,12.9 20.2,20.2"
       id="path184" /><path
       d="m -0.1,1494.7 7.5,7.5 6.9,6.9 18.7,-5 5.1,-18.8 -6.9,-6.8 -31.3,-31.3 m 49.9,90 -20.2,20.2 3.4,13 13,3.5 20.2,-20.2"
       id="path186" /><path
       d="m 23.7,1603.5 7.5,-7.5 6.9,-6.9 -5.1,-18.7 -18.7,-5 -6.9,6.8 -31.2,31.3 m 101.6,-54.7 h 28.6 l 6.7,-11.6 -6.7,-11.6 H 77.8"
       id="path188" /><path
       d="m 132.5,1520.4 h -9.7 l -9.7,16.8 9.7,16.8 h 9.7 M 77.8,1525.6 V 1497 l -11.6,-6.7 -11.6,6.7 v 28.6"
       id="path190" /><path
       d="m 49.4,1470.9 v 9.7 l 16.8,9.7 16.8,-9.7 v -9.7 m -28.4,54.7 H 26 l -6.7,11.6 6.7,11.6 h 28.6 m -54.7,5.2 h 9.7 l 9.7,-16.8 -9.7,-16.8 h -9.7"
       id="path192" /><circle
       cx="66.199997"
       cy="1603.5"
       r="6.1999998"
       id="circle194" /><circle
       cx="66.199997"
       cy="1537.2"
       r="6.1999998"
       id="circle196" /><path
       d="m 54.6,1682.5 v 28.6 l 11.6,6.7 11.6,-6.7 v -28.6 m 5.2,54.7 v -9.7 l -16.8,-9.7 -16.8,9.7 v 9.7"
       id="path198" /><path
       d="m 66.2,1687.3 20.2,20.2 13,-3.5 3.4,-12.9 -20.2,-20.2"
       id="path200" /><path
       d="m 132.5,1713.4 -7.5,-7.5 -6.9,-6.9 -18.7,5 -5.1,18.8 6.9,6.8 31.3,31.3 m -49.9,-90 20.2,-20.2 -3.4,-13 -13,-3.5 -20.2,20.2 m 42.5,-49.8 -7.5,7.5 -6.9,6.9 5.1,18.7 18.7,5 6.9,-6.8 31.3,-31.3"
       id="path202" /><path
       d="m 66.2,1654.4 -20.2,-20.2 -13,3.5 -3.4,13 20.2,20.2 m -49.9,-42.6 7.5,7.6 6.9,6.8 18.7,-5 5.1,-18.7 -6.9,-6.9 -31.3,-31.3 m 49.9,90.1 -20.2,20.2 3.4,12.9 13,3.5 20.2,-20.2 m -42.5,49.9 7.5,-7.6 6.9,-6.8 -5.1,-18.8 -18.7,-5 -6.9,6.9 -31.2,31.3 m 101.6,-54.7 h 28.6 l 6.7,-11.6 -6.7,-11.6 H 77.8 m 54.7,-5.2 h -9.7 l -9.7,16.8 9.7,16.8 h 9.7"
       id="path204" /><path
       d="m 77.8,1659.3 v -28.6 l -11.6,-6.7 -11.6,6.7 v 28.6 m -5.2,-54.7 v 9.7 l 16.8,9.7 16.8,-9.7 v -9.7 m -28.4,54.7 H 26 l -6.7,11.6 6.7,11.6 h 28.6 m -54.7,5.2 h 9.7 l 9.7,-16.8 -9.7,-16.8 h -9.7"
       id="path206" /><circle
       cx="66.199997"
       cy="1737.2"
       r="6.1999998"
       id="circle208" /><circle
       cx="66.199997"
       cy="1670.9"
       r="6.1999998"
       id="circle210" /><path
       d="m 54.6,1816.2 v 28.5 l 11.6,6.7 11.6,-6.7 v -28.5"
       id="path212" /><path
       d="m 83,1870.8 v -9.7 l -16.8,-9.7 -16.8,9.7 v 9.7 m 16.8,-49.8 20.2,20.2 13,-3.5 3.4,-13 -20.2,-20.2"
       id="path214" /><path
       d="m 132.5,1847.1 -7.5,-7.6 -6.9,-6.8 -18.7,5 -5.1,18.7 6.9,6.9 31.3,31.3 m -49.9,-90.1 20.2,-20.2 -3.4,-12.9 -13,-3.5 -20.2,20.2 m 42.5,-49.9 -7.5,7.6 -6.9,6.8 5.1,18.8 18.7,5 6.9,-6.9 31.3,-31.3"
       id="path216" /><path
       d="m 66.2,1788.1 -20.2,-20.2 -13,3.5 -3.4,12.9 20.2,20.2 m -49.9,-42.5 7.5,7.5 6.9,6.9 18.7,-5 5.1,-18.8 -6.9,-6.8 -31.3,-31.3"
       id="path218" /><path
       d="m 49.8,1804.5 -20.2,20.2 3.4,13 13,3.5 20.2,-20.2"
       id="path220" /><path
       d="m 23.7,1870.8 7.5,-7.5 6.9,-6.9 -5.1,-18.7 -18.7,-5 -6.9,6.8 -31.2,31.3 m 101.6,-54.6 h 28.6 l 6.7,-11.7 -6.7,-11.6 H 77.8"
       id="path222" /><path
       d="m 132.5,1787.7 h -9.7 l -9.7,16.8 9.7,16.8 h 9.7 m -54.7,-28.4 v -28.6 l -11.6,-6.7 -11.6,6.7 v 28.6 m -5.2,-54.7 v 9.7 l 16.8,9.7 16.8,-9.7 v -9.7 m -28.4,54.7 H 26 l -6.7,11.6 6.7,11.7 h 28.6 m -54.7,5.1 h 9.7 l 9.7,-16.8 -9.7,-16.8 h -9.7"
       id="path224" /><circle
       cx="66.199997"
       cy="1870.8"
       r="6.1999998"
       id="circle226" /><circle
       cx="66.199997"
       cy="1804.5"
       r="6.1999998"
       id="circle228" /><path
       d="m 187.2,78.7 v 28.5 l 11.6,6.7 11.6,-6.7 V 78.7 m 5.2,54.6 v -9.7 l -16.8,-9.7 -16.8,9.7 v 9.7"
       id="path230" /><path
       d="m 198.8,83.5 20.2,20.2 12.9,-3.5 3.5,-13 L 215.2,67"
       id="path232" /><path
       d="m 265.1,109.6 -7.6,-7.6 -6.8,-6.8 -18.8,5 -5,18.7 6.9,6.9 31.3,31.3 M 215.2,67 235.4,46.9 231.9,33.9 219,30.4 198.8,50.6 m 42.5,-49.8 -7.5,7.5 -6.9,6.9 5,18.7 18.8,5 6.8,-6.8 31.3,-31.3"
       id="path234" /><path
       d="m 198.8,50.6 -20.2,-20.2 -13,3.5 -3.4,13 20.1,20.1 m -49.8,-42.5 7.5,7.6 6.9,6.8 18.7,-5 5,-18.7 -6.8,-6.9 -31.3,-31.3 m 49.8,90 -20.1,20.2 3.4,13 13,3.5 20.2,-20.2 m -42.5,49.8 7.5,-7.5 6.8,-6.9 -5,-18.7 -18.7,-5 -6.9,6.8 -31.3,31.3 M 210.4,78.7 H 239 L 245.7,67 239,55.4 h -28.6 m 54.7,-5.2 h -9.7 l -9.7,16.8 9.7,16.8 h 9.7"
       id="path236" /><path
       d="M 210.4,55.4 V 26.9 l -11.6,-6.7 -11.6,6.7 V 55.4 M 182,0.8 v 9.7 l 16.8,9.7 16.8,-9.7 V 0.8 m -28.4,54.6 h -28.6 l -6.7,11.6 6.7,11.7 h 28.6 m -54.7,5.1 h 9.7 L 151.9,67 142.2,50.2 h -9.7"
       id="path238" /><circle
       cx="198.8"
       cy="133.3"
       r="6.1999998"
       id="circle240" /><circle
       cx="198.8"
       cy="67"
       r="6.1999998"
       id="circle242" /><path
       d="m 187.2,212.3 v 28.6 l 11.6,6.7 11.6,-6.7 v -28.6 m 5.2,54.7 v -9.7 l -16.8,-9.7 -16.8,9.7 v 9.7"
       id="path244" /><path
       d="m 198.8,217.1 20.2,20.2 12.9,-3.4 3.5,-13 -20.2,-20.2"
       id="path246" /><path
       d="m 265.1,243.2 -7.6,-7.5 -6.8,-6.9 -18.8,5.1 -5,18.7 6.9,6.9 31.3,31.3 m -49.9,-90.1 20.2,-20.2 -3.5,-13 -12.9,-3.4 -20.2,20.2 m 42.5,-49.9 -7.5,7.5 -6.9,6.9 5,18.7 18.8,5.1 6.8,-6.9 31.3,-31.3"
       id="path248" /><path
       d="m 198.8,184.3 -20.2,-20.2 -13,3.4 -3.4,13 20.1,20.2 m -49.8,-42.5 7.5,7.5 6.9,6.9 18.7,-5.1 5,-18.7 -6.8,-6.9 -31.3,-31.2"
       id="path250" /><path
       d="m 182.3,200.7 -20.1,20.2 3.4,13 13,3.4 20.2,-20.2 m -42.5,49.9 7.5,-7.5 6.8,-6.9 -5,-18.7 -18.7,-5.1 -6.9,6.9 -31.3,31.3 M 210.4,212.3 H 239 l 6.7,-11.6 -6.7,-11.6 h -28.6 m 54.7,-5.2 h -9.7 l -9.7,16.8 9.7,16.8 h 9.7 m -54.7,-28.4 v -28.6 l -11.6,-6.7 -11.6,6.7 v 28.6 M 182,134.4 v 9.7 l 16.8,9.7 16.8,-9.7 v -9.7"
       id="path252" /><path
       d="m 187.2,189.1 h -28.6 l -6.7,11.6 6.7,11.6 h 28.6 m -54.7,5.2 h 9.7 l 9.7,-16.8 -9.7,-16.8 h -9.7"
       id="path254" /><circle
       cx="198.8"
       cy="267"
       r="6.1999998"
       id="circle256" /><circle
       cx="198.8"
       cy="200.7"
       r="6.1999998"
       id="circle258" /><path
       d="m 187.2,346 v 28.5 l 11.6,6.7 11.6,-6.7 V 346 m 5.2,54.6 v -9.7 l -16.8,-9.7 -16.8,9.7 v 9.7"
       id="path260" /><path
       d="m 198.8,350.8 20.2,20.2 12.9,-3.5 3.5,-13 -20.2,-20.1"
       id="path262" /><path
       d="m 265.1,376.9 -7.6,-7.6 -6.8,-6.8 -18.8,5 -5,18.7 6.9,6.9 31.3,31.3 m -49.9,-90 20.2,-20.2 -3.5,-13 -12.9,-3.5 -20.2,20.2 m 42.5,-49.8 -7.5,7.5 -6.9,6.9 5,18.7 18.8,5 6.8,-6.8 31.3,-31.3"
       id="path264" /><path
       d="m 198.8,317.9 -20.2,-20.2 -13,3.5 -3.4,13 20.1,20.2 m -49.8,-42.6 7.5,7.6 6.9,6.8 18.7,-5 5,-18.7 -6.8,-6.9 -31.3,-31.3 m 49.8,90.1 -20.1,20.1 3.4,13 13,3.5 20.2,-20.2 m -42.5,49.8 7.5,-7.5 6.8,-6.9 -5,-18.7 -18.7,-5 -6.9,6.8 -31.3,31.3 M 210.4,346 H 239 l 6.7,-11.6 -6.7,-11.7 h -28.6 m 54.7,-5.1 h -9.7 l -9.7,16.8 9.7,16.8 h 9.7"
       id="path266" /><path
       d="m 210.4,322.7 v -28.5 l -11.6,-6.7 -11.6,6.7 v 28.5 M 182,268.1 v 9.7 l 16.8,9.7 16.8,-9.7 v -9.7 m -28.4,54.6 h -28.6 l -6.7,11.7 6.7,11.6 h 28.6 m -54.7,5.2 h 9.7 l 9.7,-16.8 -9.7,-16.8 h -9.7"
       id="path268" /><circle
       cx="198.8"
       cy="400.60001"
       r="6.1999998"
       id="circle270" /><circle
       cx="198.8"
       cy="334.39999"
       r="6.1999998"
       id="circle272" /><path
       d="m 187.2,479.6 v 28.6 l 11.6,6.7 11.6,-6.7 v -28.6"
       id="path274" /><path
       d="m 215.6,534.3 v -9.7 l -16.8,-9.7 -16.8,9.7 v 9.7 m 16.8,-49.9 20.2,20.2 12.9,-3.4 3.5,-13 -20.2,-20.2 m 49.9,42.5 -7.6,-7.5 -6.8,-6.9 -18.8,5.1 -5,18.7 6.9,6.9 31.3,31.3 m -49.9,-90.1 20.2,-20.2 -3.5,-13 -12.9,-3.4 -20.2,20.2 m 42.5,-49.9 -7.5,7.6 -6.9,6.8 5,18.7 18.8,5.1 6.8,-6.9 31.3,-31.3"
       id="path276" /><path
       d="m 198.8,451.6 -20.2,-20.2 -13,3.4 -3.4,13 20.1,20.2 m -49.8,-42.5 7.5,7.5 6.9,6.9 18.7,-5.1 5,-18.7 -6.8,-6.8 -31.3,-31.3 m 49.8,90 -20.1,20.2 3.4,13 13,3.4 20.2,-20.2 m -42.5,49.9 7.5,-7.5 6.8,-6.9 -5,-18.7 -18.7,-5.1 -6.9,6.9 -31.3,31.3 M 210.4,479.6 H 239 L 245.7,468 239,456.4 h -28.6 m 54.7,-5.2 h -9.7 l -9.7,16.8 9.7,16.8 h 9.7"
       id="path278" /><path
       d="m 210.4,456.4 v -28.6 l -11.6,-6.7 -11.6,6.7 v 28.6 M 182,401.7 v 9.7 l 16.8,9.7 16.8,-9.7 v -9.7 m -28.4,54.7 h -28.6 l -6.7,11.6 6.7,11.6 h 28.6 m -54.7,5.2 h 9.7 l 9.7,-16.8 -9.7,-16.8 h -9.7"
       id="path280" /><circle
       cx="198.8"
       cy="534.29999"
       r="6.1999998"
       id="circle282" /><circle
       cx="198.8"
       cy="468"
       r="6.1999998"
       id="circle284" /><path
       d="m 187.2,613.3 v 28.5 l 11.6,6.8 11.6,-6.8 v -28.5 m 5.2,54.6 v -9.6 l -16.8,-9.7 -16.8,9.7 v 9.6"
       id="path286" /><path
       d="m 198.8,618.1 20.2,20.2 12.9,-3.5 3.5,-12.9 -20.2,-20.2"
       id="path288" /><path
       d="m 265.1,644.2 -7.6,-7.5 -6.8,-6.9 -18.8,5 -5,18.8 6.9,6.8 31.3,31.3 m -49.9,-90 20.2,-20.2 -3.5,-13 -12.9,-3.5 -20.2,20.2 m 42.5,-49.8 -7.5,7.5 -6.9,6.9 5,18.7 18.8,5 6.8,-6.8 31.3,-31.3 m -90,49.8 -20.2,-20.2 -13,3.5 -3.4,13 20.1,20.2 m -49.8,-42.6 7.5,7.6 6.9,6.8 18.7,-5 5,-18.7 -6.8,-6.9 -31.3,-31.3 m 49.8,90.1 -20.1,20.2 3.4,12.9 13,3.5 20.2,-20.2 m -42.5,49.8 7.5,-7.5 6.8,-6.8 -5,-18.8 -18.7,-5 -6.9,6.9 -31.3,31.2"
       id="path290" /><path
       d="M 210.4,613.3 H 239 L 245.7,601.7 239,590 h -28.6 m 54.7,-5.1 h -9.7 l -9.7,16.8 9.7,16.8 h 9.7 M 210.4,590 v -28.5 l -11.6,-6.7 -11.6,6.7 V 590"
       id="path292" /><path
       d="m 182,535.4 v 9.7 l 16.8,9.7 16.8,-9.7 v -9.7 M 187.2,590 h -28.6 l -6.7,11.7 6.7,11.6 h 28.6 m -54.7,5.2 h 9.7 l 9.7,-16.8 -9.7,-16.8 h -9.7"
       id="path294" /><circle
       cx="198.8"
       cy="667.90002"
       r="6.1999998"
       id="circle296" /><circle
       cx="198.8"
       cy="601.70001"
       r="6.1999998"
       id="circle298" /><path
       d="m 187.2,746.9 v 28.6 l 11.6,6.7 11.6,-6.7 v -28.6"
       id="path300" /><path
       d="m 215.6,801.6 v -9.7 l -16.8,-9.7 -16.8,9.7 v 9.7 m 16.8,-49.9 20.2,20.2 12.9,-3.4 3.5,-13 -20.2,-20.2"
       id="path302" /><path
       d="m 265.1,777.8 -7.6,-7.5 -6.8,-6.9 -18.8,5.1 -5,18.7 6.9,6.9 31.3,31.3 m -49.9,-90.1 20.2,-20.2 -3.5,-12.9 -12.9,-3.5 -20.2,20.2 m 42.5,-49.9 -7.5,7.6 -6.9,6.8 5,18.8 18.8,5 6.8,-6.9 31.3,-31.3"
       id="path304" /><path
       d="m 198.8,718.9 -20.2,-20.2 -13,3.5 -3.4,12.9 20.1,20.2 m -49.8,-42.5 7.5,7.5 6.9,6.9 18.7,-5 5,-18.8 -6.8,-6.8 -31.3,-31.3 m 49.8,90 -20.1,20.2 3.4,13 13,3.4 20.2,-20.2 m -42.5,49.9 7.5,-7.5 6.8,-6.9 -5,-18.7 -18.7,-5.1 -6.9,6.9 -31.3,31.3 M 210.4,746.9 H 239 l 6.7,-11.6 -6.7,-11.6 h -28.6 m 54.7,-5.2 h -9.7 l -9.7,16.8 9.7,16.8 h 9.7"
       id="path306" /><path
       d="m 210.4,723.7 v -28.6 l -11.6,-6.7 -11.6,6.7 v 28.6"
       id="path308" /><path
       d="m 182,669 v 9.7 l 16.8,9.7 16.8,-9.7 V 669 m -28.4,54.7 h -28.6 l -6.7,11.6 6.7,11.6 h 28.6 m -54.7,5.2 h 9.7 l 9.7,-16.8 -9.7,-16.8 h -9.7"
       id="path310" /><circle
       cx="198.8"
       cy="801.59998"
       r="6.1999998"
       id="circle312" /><circle
       cx="198.8"
       cy="735.29999"
       r="6.1999998"
       id="circle314" /><path
       d="m 187.2,880.6 v 28.5 l 11.6,6.8 11.6,-6.8 v -28.5"
       id="path316" /><path
       d="m 215.6,935.3 v -9.7 l -16.8,-9.7 -16.8,9.7 v 9.7 m 16.8,-49.9 20.2,20.2 12.9,-3.5 3.5,-12.9 -20.2,-20.2"
       id="path318" /><path
       d="m 265.1,911.5 -7.6,-7.5 -6.8,-6.9 -18.8,5 -5,18.8 6.9,6.8 31.3,31.3 m -49.9,-90 20.2,-20.2 -3.5,-13 -12.9,-3.5 -20.2,20.2"
       id="path320" /><path
       d="m 241.3,802.7 -7.5,7.5 -6.9,6.9 5,18.7 18.8,5 6.8,-6.8 31.3,-31.3 m -90,49.8 -20.2,-20.2 -13,3.5 -3.4,13 20.1,20.2 m -49.8,-42.6 7.5,7.6 6.9,6.8 18.7,-5 5,-18.7 -6.8,-6.9 -31.3,-31.3 m 49.8,90.1 -20.1,20.2 3.4,12.9 13,3.5 20.2,-20.2 m -42.5,49.9 7.5,-7.6 6.8,-6.8 -5,-18.8 -18.7,-5 -6.9,6.9 -31.3,31.3 M 210.4,880.6 H 239 L 245.7,869 239,857.3 h -28.6 m 54.7,-5.1 h -9.7 l -9.7,16.8 9.7,16.8 h 9.7"
       id="path322" /><path
       d="m 210.4,857.3 v -28.5 l -11.6,-6.7 -11.6,6.7 v 28.5"
       id="path324" /><path
       d="m 182,802.7 v 9.7 l 16.8,9.7 16.8,-9.7 v -9.7 m -28.4,54.6 h -28.6 l -6.7,11.7 6.7,11.6 h 28.6 m -54.7,5.2 h 9.7 l 9.7,-16.8 -9.7,-16.8 h -9.7"
       id="path326" /><circle
       cx="198.8"
       cy="935.29999"
       r="6.1999998"
       id="circle328" /><circle
       cx="198.8"
       cy="869"
       r="6.1999998"
       id="circle330" /><path
       d="m 187.2,1014.2 v 28.6 l 11.6,6.7 11.6,-6.7 v -28.6 m 5.2,54.7 v -9.7 l -16.8,-9.7 -16.8,9.7 v 9.7"
       id="path332" /><path
       d="m 198.8,1019.1 20.2,20.1 12.9,-3.4 3.5,-13 -20.2,-20.2"
       id="path334" /><path
       d="m 265.1,1045.1 -7.6,-7.5 -6.8,-6.8 -18.8,5 -5,18.7 6.9,6.9 31.3,31.3 m -49.9,-90.1 20.2,-20.2 -3.5,-12.9 -12.9,-3.5 -20.2,20.2 m 42.5,-49.9 -7.5,7.6 -6.9,6.8 5,18.8 18.8,5 6.8,-6.9 31.3,-31.3 m -90,49.9 -20.2,-20.2 -13,3.5 -3.4,12.9 20.1,20.2 m -49.8,-42.5 7.5,7.5 6.9,6.9 18.7,-5 5,-18.8 -6.8,-6.8 -31.3,-31.3 m 49.8,90 -20.1,20.2 3.4,13 13,3.4 20.2,-20.1"
       id="path336" /><path
       d="m 156.3,1068.9 7.5,-7.5 6.8,-6.9 -5,-18.7 -18.7,-5 -6.9,6.8 -31.3,31.3 m 101.7,-54.7 H 239 l 6.7,-11.6 L 239,991 h -28.6 m 54.7,-5.2 h -9.7 l -9.7,16.8 9.7,16.8 h 9.7 M 210.4,991 v -28.6 l -11.6,-6.7 -11.6,6.7 V 991"
       id="path338" /><path
       d="m 182,936.3 v 9.7 l 16.8,9.7 16.8,-9.7 v -9.7 M 187.2,991 h -28.6 l -6.7,11.6 6.7,11.6 h 28.6 m -54.7,5.2 h 9.7 l 9.7,-16.8 -9.7,-16.8 h -9.7"
       id="path340" /><circle
       cx="198.8"
       cy="1068.9"
       r="6.1999998"
       id="circle342" /><circle
       cx="198.8"
       cy="1002.6"
       r="6.1999998"
       id="circle344" /><path
       d="m 187.2,1147.9 v 28.6 l 11.6,6.7 11.6,-6.7 v -28.6"
       id="path346" /><path
       d="m 215.6,1202.6 v -9.7 l -16.8,-9.7 -16.8,9.7 v 9.7 m 16.8,-49.9 20.2,20.2 12.9,-3.5 3.5,-12.9 -20.2,-20.2"
       id="path348" /><path
       d="m 265.1,1178.8 -7.6,-7.5 -6.8,-6.9 -18.8,5 -5,18.8 6.9,6.8 31.3,31.3 m -49.9,-90 20.2,-20.2 -3.5,-13 -12.9,-3.5 -20.2,20.2"
       id="path350" /><path
       d="m 241.3,1070 -7.5,7.5 -6.9,6.9 5,18.7 18.8,5 6.8,-6.8 31.3,-31.3 m -90,49.8 -20.2,-20.2 -13,3.5 -3.4,13 20.1,20.2 m -49.8,-42.6 7.5,7.6 6.9,6.8 18.7,-5 5,-18.7 -6.8,-6.9 -31.3,-31.3 m 49.8,90.1 -20.1,20.2 3.4,12.9 13,3.5 20.2,-20.2 m -42.5,49.9 7.5,-7.6 6.8,-6.8 -5,-18.8 -18.7,-5 -6.9,6.9 -31.3,31.3 m 101.7,-54.7 H 239 l 6.7,-11.6 -6.7,-11.7 h -28.6 m 54.7,-5.1 h -9.7 l -9.7,16.8 9.7,16.8 h 9.7"
       id="path352" /><path
       d="m 210.4,1124.6 v -28.5 l -11.6,-6.7 -11.6,6.7 v 28.5"
       id="path354" /><path
       d="m 182,1070 v 9.7 l 16.8,9.7 16.8,-9.7 v -9.7 m -28.4,54.6 h -28.6 l -6.7,11.7 6.7,11.6 h 28.6 m -54.7,5.2 h 9.7 l 9.7,-16.8 -9.7,-16.8 h -9.7"
       id="path356" /><circle
       cx="198.8"
       cy="1202.6"
       r="6.1999998"
       id="circle358" /><circle
       cx="198.8"
       cy="1136.3"
       r="6.1999998"
       id="circle360" /><path
       d="m 187.2,1281.5 v 28.6 l 11.6,6.7 11.6,-6.7 v -28.6 m 5.2,54.7 v -9.7 l -16.8,-9.7 -16.8,9.7 v 9.7"
       id="path362" /><path
       d="m 198.8,1286.4 20.2,20.2 12.9,-3.5 3.5,-13 -20.2,-20.2"
       id="path364" /><path
       d="m 265.1,1312.5 -7.6,-7.6 -6.8,-6.8 -18.8,5 -5,18.7 6.9,6.9 31.3,31.3 m -49.9,-90.1 20.2,-20.2 -3.5,-12.9 -12.9,-3.5 -20.2,20.2 m 42.5,-49.9 -7.5,7.6 -6.9,6.8 5,18.8 18.8,5 6.8,-6.9 31.3,-31.3"
       id="path366" /><path
       d="m 198.8,1253.5 -20.2,-20.2 -13,3.5 -3.4,12.9 20.1,20.2"
       id="path368" /><path
       d="m 132.5,1227.4 7.5,7.5 6.9,6.9 18.7,-5 5,-18.8 -6.8,-6.8 -31.3,-31.3 m 49.8,90 -20.1,20.2 3.4,13 13,3.5 20.2,-20.2"
       id="path370" /><path
       d="m 156.3,1336.2 7.5,-7.5 6.8,-6.9 -5,-18.7 -18.7,-5 -6.9,6.8 -31.3,31.3 m 101.7,-54.7 H 239 l 6.7,-11.6 -6.7,-11.6 h -28.6 m 54.7,-5.2 h -9.7 l -9.7,16.8 9.7,16.8 h 9.7 m -54.7,-28.4 v -28.6 l -11.6,-6.7 -11.6,6.7 v 28.6 m -5.2,-54.7 v 9.7 l 16.8,9.7 16.8,-9.7 v -9.7 m -28.4,54.7 h -28.6 l -6.7,11.6 6.7,11.6 h 28.6 m -54.7,5.2 h 9.7 l 9.7,-16.8 -9.7,-16.8 h -9.7"
       id="path372" /><circle
       cx="198.8"
       cy="1336.2"
       r="6.1999998"
       id="circle374" /><circle
       cx="198.8"
       cy="1269.9"
       r="6.1999998"
       id="circle376" /><path
       d="m 187.2,1415.2 v 28.6 l 11.6,6.7 11.6,-6.7 v -28.6 m 5.2,54.7 v -9.7 l -16.8,-9.7 -16.8,9.7 v 9.7"
       id="path378" /><path
       d="m 198.8,1420 20.2,20.2 12.9,-3.5 3.5,-12.9 -20.2,-20.2"
       id="path380" /><path
       d="m 265.1,1446.1 -7.6,-7.5 -6.8,-6.9 -18.8,5 -5,18.8 6.9,6.8 31.3,31.3 m -49.9,-90 20.2,-20.2 -3.5,-13 -12.9,-3.5 -20.2,20.2"
       id="path382" /><path
       d="m 241.3,1337.3 -7.5,7.5 -6.9,6.9 5,18.7 18.8,5 6.8,-6.8 31.3,-31.3 m -90,49.8 -20.2,-20.2 -13,3.5 -3.4,13 20.1,20.2 m -49.8,-42.6 7.5,7.6 6.9,6.8 18.7,-5 5,-18.7 -6.8,-6.9 -31.3,-31.3 m 49.8,90.1 -20.1,20.2 3.4,12.9 13,3.5 20.2,-20.2 m -42.5,49.9 7.5,-7.6 6.8,-6.8 -5,-18.8 -18.7,-5 -6.9,6.9 -31.3,31.3 m 101.7,-54.7 H 239 l 6.7,-11.6 -6.7,-11.7 h -28.6 m 54.7,-5.1 h -9.7 l -9.7,16.8 9.7,16.8 h 9.7"
       id="path384" /><path
       d="m 210.4,1391.9 v -28.5 l -11.6,-6.7 -11.6,6.7 v 28.5 m -5.2,-54.6 v 9.7 l 16.8,9.7 16.8,-9.7 v -9.7 m -28.4,54.6 h -28.6 l -6.7,11.7 6.7,11.6 h 28.6 m -54.7,5.2 h 9.7 l 9.7,-16.8 -9.7,-16.8 h -9.7"
       id="path386" /><circle
       cx="198.8"
       cy="1469.9"
       r="6.1999998"
       id="circle388" /><circle
       cx="198.8"
       cy="1403.6"
       r="6.1999998"
       id="circle390" /><path
       d="m 187.2,1548.8 v 28.6 l 11.6,6.7 11.6,-6.7 v -28.6 m 5.2,54.7 v -9.7 l -16.8,-9.7 -16.8,9.7 v 9.7"
       id="path392" /><path
       d="m 198.8,1553.7 20.2,20.2 12.9,-3.5 3.5,-13 -20.2,-20.2"
       id="path394" /><path
       d="m 265.1,1579.8 -7.6,-7.6 -6.8,-6.8 -18.8,5 -5,18.7 6.9,6.9 31.3,31.3 m -49.9,-90.1 20.2,-20.2 -3.5,-12.9 -12.9,-3.5 -20.2,20.2 m 42.5,-49.9 -7.5,7.6 -6.9,6.8 5,18.8 18.8,5 6.8,-6.9 31.3,-31.3"
       id="path396" /><path
       d="m 198.8,1520.8 -20.2,-20.2 -13,3.5 -3.4,12.9 20.1,20.2"
       id="path398" /><path
       d="m 132.5,1494.7 7.5,7.5 6.9,6.9 18.7,-5 5,-18.8 -6.8,-6.8 -31.3,-31.3 m 49.8,90 -20.1,20.2 3.4,13 13,3.5 20.2,-20.2"
       id="path400" /><path
       d="m 156.3,1603.5 7.5,-7.5 6.8,-6.9 -5,-18.7 -18.7,-5 -6.9,6.8 -31.3,31.3 m 101.7,-54.7 H 239 l 6.7,-11.6 -6.7,-11.6 h -28.6 m 54.7,-5.2 h -9.7 l -9.7,16.8 9.7,16.8 h 9.7 m -54.7,-28.4 V 1497 l -11.6,-6.7 -11.6,6.7 v 28.6"
       id="path402" /><path
       d="m 182,1470.9 v 9.7 l 16.8,9.7 16.8,-9.7 v -9.7 m -28.4,54.7 h -28.6 l -6.7,11.6 6.7,11.6 h 28.6 m -54.7,5.2 h 9.7 l 9.7,-16.8 -9.7,-16.8 h -9.7"
       id="path404" /><circle
       cx="198.8"
       cy="1603.5"
       r="6.1999998"
       id="circle406" /><circle
       cx="198.8"
       cy="1537.2"
       r="6.1999998"
       id="circle408" /><path
       d="m 187.2,1682.5 v 28.6 l 11.6,6.7 11.6,-6.7 v -28.6 m 5.2,54.7 v -9.7 l -16.8,-9.7 -16.8,9.7 v 9.7"
       id="path410" /><path
       d="m 198.8,1687.3 20.2,20.2 12.9,-3.5 3.5,-12.9 -20.2,-20.2"
       id="path412" /><path
       d="m 265.1,1713.4 -7.6,-7.5 -6.8,-6.9 -18.8,5 -5,18.8 6.9,6.8 31.3,31.3 m -49.9,-90 20.2,-20.2 -3.5,-13 -12.9,-3.5 -20.2,20.2 m 42.5,-49.8 -7.5,7.5 -6.9,6.9 5,18.7 18.8,5 6.8,-6.8 31.3,-31.3"
       id="path414" /><path
       d="m 198.8,1654.4 -20.2,-20.2 -13,3.5 -3.4,13 20.1,20.2 m -49.8,-42.6 7.5,7.6 6.9,6.8 18.7,-5 5,-18.7 -6.8,-6.9 -31.3,-31.3 m 49.8,90.1 -20.1,20.2 3.4,12.9 13,3.5 20.2,-20.2 m -42.5,49.9 7.5,-7.6 6.8,-6.8 -5,-18.8 -18.7,-5 -6.9,6.9 -31.3,31.3 m 101.7,-54.7 H 239 l 6.7,-11.6 -6.7,-11.6 h -28.6 m 54.7,-5.2 h -9.7 l -9.7,16.8 9.7,16.8 h 9.7"
       id="path416" /><path
       d="m 210.4,1659.3 v -28.6 l -11.6,-6.7 -11.6,6.7 v 28.6 m -5.2,-54.7 v 9.7 l 16.8,9.7 16.8,-9.7 v -9.7 m -28.4,54.7 h -28.6 l -6.7,11.6 6.7,11.6 h 28.6 m -54.7,5.2 h 9.7 l 9.7,-16.8 -9.7,-16.8 h -9.7"
       id="path418" /><circle
       cx="198.8"
       cy="1737.2"
       r="6.1999998"
       id="circle420" /><circle
       cx="198.8"
       cy="1670.9"
       r="6.1999998"
       id="circle422" /><path
       d="m 187.2,1816.2 v 28.5 l 11.6,6.7 11.6,-6.7 v -28.5"
       id="path424" /><path
       d="m 215.6,1870.8 v -9.7 l -16.8,-9.7 -16.8,9.7 v 9.7 m 16.8,-49.8 20.2,20.2 12.9,-3.5 3.5,-13 -20.2,-20.2"
       id="path426" /><path
       d="m 265.1,1847.1 -7.6,-7.6 -6.8,-6.8 -18.8,5 -5,18.7 6.9,6.9 31.3,31.3 m -49.9,-90.1 20.2,-20.2 -3.5,-12.9 -12.9,-3.5 -20.2,20.2 m 42.5,-49.9 -7.5,7.6 -6.9,6.8 5,18.8 18.8,5 6.8,-6.9 31.3,-31.3"
       id="path428" /><path
       d="m 198.8,1788.1 -20.2,-20.2 -13,3.5 -3.4,12.9 20.1,20.2"
       id="path430" /><path
       d="m 132.5,1762 7.5,7.5 6.9,6.9 18.7,-5 5,-18.8 -6.8,-6.8 -31.3,-31.3 m 49.8,90 -20.1,20.2 3.4,13 13,3.5 20.2,-20.2"
       id="path432" /><path
       d="m 156.3,1870.8 7.5,-7.5 6.8,-6.9 -5,-18.7 -18.7,-5 -6.9,6.8 -31.3,31.3 m 101.7,-54.6 H 239 l 6.7,-11.7 -6.7,-11.6 h -28.6 m 54.7,-5.2 h -9.7 l -9.7,16.8 9.7,16.8 h 9.7 m -54.7,-28.4 v -28.6 l -11.6,-6.7 -11.6,6.7 v 28.6 m -5.2,-54.7 v 9.7 l 16.8,9.7 16.8,-9.7 v -9.7 m -28.4,54.7 h -28.6 l -6.7,11.6 6.7,11.7 h 28.6 m -54.7,5.1 h 9.7 l 9.7,-16.8 -9.7,-16.8 h -9.7"
       id="path434" /><circle
       cx="198.8"
       cy="1870.8"
       r="6.1999998"
       id="circle436" /><circle
       cx="198.8"
       cy="1804.5"
       r="6.1999998"
       id="circle438" /><path
       d="m 319.7,78.7 v 28.5 l 11.7,6.7 11.6,-6.7 V 78.7 m 5.2,54.6 v -9.7 l -16.8,-9.7 -16.8,9.7 v 9.7"
       id="path440" /><path
       d="m 331.4,83.5 20.2,20.2 12.9,-3.5 3.5,-13 L 347.8,67 m 49.9,42.6 -7.6,-7.6 -6.8,-6.8 -18.8,5 -5,18.7 6.9,6.9 31.3,31.3 M 347.8,67 368,46.9 l -3.5,-13 -12.9,-3.5 -20.2,20.2 m 42.5,-49.8 -7.5,7.5 -6.9,6.9 5,18.7 18.8,5 6.8,-6.8 31.3,-31.3 m -90,49.8 -20.2,-20.2 -13,3.5 -3.5,13 20.2,20.1 m -49.8,-42.5 7.5,7.6 6.9,6.8 18.7,-5 5,-18.7 -6.8,-6.9 -31.3,-31.3 m 49.8,90 -20.2,20.2 3.5,13 13,3.5 20.2,-20.2"
       id="path442" /><path
       d="m 288.8,133.3 7.6,-7.5 6.8,-6.9 -5,-18.7 -18.7,-5 -6.9,6.8 -31.3,31.3 M 343,78.7 h 28.6 L 378.3,67 371.6,55.4 H 343 m 54.7,-5.2 H 388 L 378.3,67 388,83.8 h 9.7 M 343,55.4 V 26.9 l -11.6,-6.7 -11.7,6.7 V 55.4 M 314.6,0.8 v 9.7 l 16.8,9.7 16.8,-9.7 V 0.8 m -28.5,54.6 h -28.5 l -6.7,11.6 6.7,11.7 h 28.5 m -54.6,5.1 h 9.7 L 284.5,67 274.8,50.2 h -9.7"
       id="path444" /><circle
       cx="331.39999"
       cy="133.3"
       r="6.1999998"
       id="circle446" /><circle
       cx="331.39999"
       cy="67"
       r="6.1999998"
       id="circle448" /><path
       d="m 319.7,212.3 v 28.6 l 11.7,6.7 11.6,-6.7 v -28.6 m 5.2,54.7 v -9.7 l -16.8,-9.7 -16.8,9.7 v 9.7"
       id="path450" /><path
       d="m 331.4,217.1 20.2,20.2 12.9,-3.4 3.5,-13 -20.2,-20.2 m 49.9,42.5 -7.6,-7.5 -6.8,-6.9 -18.8,5.1 -5,18.7 6.9,6.9 31.3,31.3 m -49.9,-90.1 20.2,-20.2 -3.5,-13 -12.9,-3.4 -20.2,20.2 m 42.5,-49.9 -7.5,7.5 -6.9,6.9 5,18.7 18.8,5.1 6.8,-6.9 31.3,-31.3 m -90,49.9 -20.2,-20.2 -13,3.4 -3.5,13 20.2,20.2 m -49.8,-42.5 7.5,7.5 6.9,6.9 18.7,-5.1 5,-18.7 -6.8,-6.9 -31.3,-31.2"
       id="path452" /><path
       d="m 314.9,200.7 -20.2,20.2 3.5,13 13,3.4 20.2,-20.2 m -42.6,49.9 7.6,-7.5 6.8,-6.9 -5,-18.7 -18.7,-5.1 -6.9,6.9 -31.3,31.3 M 343,212.3 h 28.6 l 6.7,-11.6 -6.7,-11.6 H 343 m 54.7,-5.2 H 388 l -9.7,16.8 9.7,16.8 h 9.7 M 343,189.1 v -28.6 l -11.6,-6.7 -11.7,6.7 v 28.6 m -5.1,-54.7 v 9.7 l 16.8,9.7 16.8,-9.7 v -9.7"
       id="path454" /><path
       d="m 319.7,189.1 h -28.5 l -6.7,11.6 6.7,11.6 h 28.5 m -54.6,5.2 h 9.7 l 9.7,-16.8 -9.7,-16.8 h -9.7"
       id="path456" /><circle
       cx="331.39999"
       cy="267"
       r="6.1999998"
       id="circle458" /><circle
       cx="331.39999"
       cy="200.7"
       r="6.1999998"
       id="circle460" /><path
       d="m 319.7,346 v 28.5 l 11.7,6.7 11.6,-6.7 V 346 m 5.2,54.6 v -9.7 l -16.8,-9.7 -16.8,9.7 v 9.7"
       id="path462" /><path
       d="m 331.4,350.8 20.2,20.2 12.9,-3.5 3.5,-13 -20.2,-20.1"
       id="path464" /><path
       d="m 397.7,376.9 -7.6,-7.6 -6.8,-6.8 -18.8,5 -5,18.7 6.9,6.9 31.3,31.3 m -49.9,-90 20.2,-20.2 -3.5,-13 -12.9,-3.5 -20.2,20.2 m 42.5,-49.8 -7.5,7.5 -6.9,6.9 5,18.7 18.8,5 6.8,-6.8 31.3,-31.3 m -90,49.8 -20.2,-20.2 -13,3.5 -3.5,13 20.2,20.2"
       id="path466" /><path
       d="m 265.1,291.8 7.5,7.6 6.9,6.8 18.7,-5 5,-18.7 -6.8,-6.9 -31.3,-31.3 m 49.8,90.1 -20.2,20.1 3.5,13 13,3.5 20.2,-20.2 m -42.6,49.8 7.6,-7.5 6.8,-6.9 -5,-18.7 -18.7,-5 -6.9,6.8 -31.3,31.3 M 343,346 h 28.6 l 6.7,-11.6 -6.7,-11.7 H 343 m 54.7,-5.1 H 388 l -9.7,16.8 9.7,16.8 h 9.7 M 343,322.7 v -28.5 l -11.6,-6.7 -11.7,6.7 v 28.5 m -5.1,-54.6 v 9.7 l 16.8,9.7 16.8,-9.7 v -9.7"
       id="path468" /><path
       d="m 319.7,322.7 h -28.5 l -6.7,11.7 6.7,11.6 h 28.5 m -54.6,5.2 h 9.7 l 9.7,-16.8 -9.7,-16.8 h -9.7"
       id="path470" /><circle
       cx="331.39999"
       cy="400.60001"
       r="6.1999998"
       id="circle472" /><circle
       cx="331.39999"
       cy="334.39999"
       r="6.1999998"
       id="circle474" /><path
       d="m 319.7,479.6 v 28.6 l 11.7,6.7 11.6,-6.7 v -28.6"
       id="path476" /><path
       d="m 348.2,534.3 v -9.7 l -16.8,-9.7 -16.8,9.7 v 9.7 m 16.8,-49.9 20.2,20.2 12.9,-3.4 3.5,-13 -20.2,-20.2 m 49.9,42.5 -7.6,-7.5 -6.8,-6.9 -18.8,5.1 -5,18.7 6.9,6.9 31.3,31.3 M 347.8,468 368,447.8 l -3.5,-13 -12.9,-3.4 -20.2,20.2 m 42.5,-49.9 -7.5,7.6 -6.9,6.8 5,18.7 18.8,5.1 6.8,-6.9 31.3,-31.3 m -90,49.9 -20.2,-20.2 -13,3.4 -3.5,13 20.2,20.2 m -49.8,-42.5 7.5,7.5 6.9,6.9 18.7,-5.1 5,-18.7 -6.8,-6.8 -31.3,-31.3 m 49.8,90 -20.2,20.2 3.5,13 13,3.4 20.2,-20.2"
       id="path478" /><path
       d="m 288.8,534.3 7.6,-7.5 6.8,-6.9 -5,-18.7 -18.7,-5.1 -6.9,6.9 -31.3,31.3 M 343,479.6 h 28.6 l 6.7,-11.6 -6.7,-11.6 H 343 m 54.7,-5.2 H 388 l -9.7,16.8 9.7,16.8 h 9.7 M 343,456.4 v -28.6 l -11.6,-6.7 -11.7,6.7 v 28.6 m -5.1,-54.7 v 9.7 l 16.8,9.7 16.8,-9.7 v -9.7 m -28.5,54.7 h -28.5 l -6.7,11.6 6.7,11.6 h 28.5 m -54.6,5.2 h 9.7 l 9.7,-16.8 -9.7,-16.8 h -9.7"
       id="path480" /><circle
       cx="331.39999"
       cy="534.29999"
       r="6.1999998"
       id="circle482" /><circle
       cx="331.39999"
       cy="468"
       r="6.1999998"
       id="circle484" /><path
       d="m 319.7,613.3 v 28.5 l 11.7,6.8 11.6,-6.8 v -28.5 m 5.2,54.6 v -9.6 l -16.8,-9.7 -16.8,9.7 v 9.6"
       id="path486" /><path
       d="m 331.4,618.1 20.2,20.2 12.9,-3.5 3.5,-12.9 -20.2,-20.2 m 49.9,42.5 -7.6,-7.5 -6.8,-6.9 -18.8,5 -5,18.8 6.9,6.8 31.3,31.3 m -49.9,-90 20.2,-20.2 -3.5,-13 -12.9,-3.5 -20.2,20.2 m 42.5,-49.8 -7.5,7.5 -6.9,6.9 5,18.7 18.8,5 6.8,-6.8 31.3,-31.3 m -90,49.8 -20.2,-20.2 -13,3.5 -3.5,13 20.2,20.2 m -49.8,-42.6 7.5,7.6 6.9,6.8 18.7,-5 5,-18.7 -6.8,-6.9 -31.3,-31.3 m 49.8,90.1 -20.2,20.2 3.5,12.9 13,3.5 20.2,-20.2"
       id="path488" /><path
       d="m 288.8,667.9 7.6,-7.5 6.8,-6.8 -5,-18.8 -18.7,-5 -6.9,6.9 -31.3,31.2 M 343,613.3 h 28.6 l 6.7,-11.6 -6.7,-11.7 H 343 m 54.7,-5.1 H 388 l -9.7,16.8 9.7,16.8 h 9.7 M 343,590 v -28.5 l -11.6,-6.7 -11.7,6.7 V 590"
       id="path490" /><path
       d="m 314.6,535.4 v 9.7 l 16.8,9.7 16.8,-9.7 v -9.7 M 319.7,590 h -28.5 l -6.7,11.7 6.7,11.6 h 28.5 m -54.6,5.2 h 9.7 l 9.7,-16.8 -9.7,-16.8 h -9.7"
       id="path492" /><circle
       cx="331.39999"
       cy="667.90002"
       r="6.1999998"
       id="circle494" /><circle
       cx="331.39999"
       cy="601.70001"
       r="6.1999998"
       id="circle496" /><path
       d="m 319.7,746.9 v 28.6 l 11.7,6.7 11.6,-6.7 v -28.6"
       id="path498" /><path
       d="m 348.2,801.6 v -9.7 l -16.8,-9.7 -16.8,9.7 v 9.7 m 16.8,-49.9 20.2,20.2 12.9,-3.4 3.5,-13 -20.2,-20.2"
       id="path500" /><path
       d="m 397.7,777.8 -7.6,-7.5 -6.8,-6.9 -18.8,5.1 -5,18.7 6.9,6.9 31.3,31.3 m -49.9,-90.1 20.2,-20.2 -3.5,-12.9 -12.9,-3.5 -20.2,20.2 m 42.5,-49.9 -7.5,7.6 -6.9,6.8 5,18.8 18.8,5 6.8,-6.9 31.3,-31.3 m -90,49.9 -20.2,-20.2 -13,3.5 -3.5,12.9 20.2,20.2 m -49.8,-42.5 7.5,7.5 6.9,6.9 18.7,-5 5,-18.8 -6.8,-6.8 -31.3,-31.3 m 49.8,90 -20.2,20.2 3.5,13 13,3.4 20.2,-20.2"
       id="path502" /><path
       d="m 288.8,801.6 7.6,-7.5 6.8,-6.9 -5,-18.7 -18.7,-5.1 -6.9,6.9 -31.3,31.3 M 343,746.9 h 28.6 l 6.7,-11.6 -6.7,-11.6 H 343 m 54.7,-5.2 H 388 l -9.7,16.8 9.7,16.8 h 9.7 M 343,723.7 v -28.6 l -11.6,-6.7 -11.7,6.7 v 28.6"
       id="path504" /><path
       d="m 314.6,669 v 9.7 l 16.8,9.7 16.8,-9.7 V 669 m -28.5,54.7 h -28.5 l -6.7,11.6 6.7,11.6 h 28.5 m -54.6,5.2 h 9.7 l 9.7,-16.8 -9.7,-16.8 h -9.7"
       id="path506" /><circle
       cx="331.39999"
       cy="801.59998"
       r="6.1999998"
       id="circle508" /><circle
       cx="331.39999"
       cy="735.29999"
       r="6.1999998"
       id="circle510" /><path
       d="m 319.7,880.6 v 28.5 l 11.7,6.8 11.6,-6.8 v -28.5"
       id="path512" /><path
       d="m 348.2,935.3 v -9.7 l -16.8,-9.7 -16.8,9.7 v 9.7 m 16.8,-49.9 20.2,20.2 12.9,-3.5 3.5,-12.9 -20.2,-20.2 m 49.9,42.5 -7.6,-7.5 -6.8,-6.9 -18.8,5 -5,18.8 6.9,6.8 31.3,31.3 m -49.9,-90 20.2,-20.2 -3.5,-13 -12.9,-3.5 -20.2,20.2"
       id="path514" /><path
       d="m 373.9,802.7 -7.5,7.5 -6.9,6.9 5,18.7 18.8,5 6.8,-6.8 31.3,-31.3 m -90,49.8 -20.2,-20.2 -13,3.5 -3.5,13 20.2,20.2 m -49.8,-42.6 7.5,7.6 6.9,6.8 18.7,-5 5,-18.7 -6.8,-6.9 -31.3,-31.3 m 49.8,90.1 -20.2,20.2 3.5,12.9 13,3.5 20.2,-20.2"
       id="path516" /><path
       d="m 288.8,935.3 7.6,-7.6 6.8,-6.8 -5,-18.8 -18.7,-5 -6.9,6.9 -31.3,31.3 M 343,880.6 h 28.6 l 6.7,-11.6 -6.7,-11.7 H 343 m 54.7,-5.1 H 388 l -9.7,16.8 9.7,16.8 h 9.7 M 343,857.3 v -28.5 l -11.6,-6.7 -11.7,6.7 v 28.5"
       id="path518" /><path
       d="m 314.6,802.7 v 9.7 l 16.8,9.7 16.8,-9.7 v -9.7 m -28.5,54.6 h -28.5 l -6.7,11.7 6.7,11.6 h 28.5 m -54.6,5.2 h 9.7 l 9.7,-16.8 -9.7,-16.8 h -9.7"
       id="path520" /><circle
       cx="331.39999"
       cy="935.29999"
       r="6.1999998"
       id="circle522" /><circle
       cx="331.39999"
       cy="869"
       r="6.1999998"
       id="circle524" /><path
       d="m 319.7,1014.2 v 28.6 l 11.7,6.7 11.6,-6.7 v -28.6 m 5.2,54.7 v -9.7 l -16.8,-9.7 -16.8,9.7 v 9.7"
       id="path526" /><path
       d="m 331.4,1019.1 20.2,20.1 12.9,-3.4 3.5,-13 -20.2,-20.2 m 49.9,42.5 -7.6,-7.5 -6.8,-6.8 -18.8,5 -5,18.7 6.9,6.9 31.3,31.3"
       id="path528" /><path
       d="m 347.8,1002.6 20.2,-20.2 -3.5,-12.9 -12.9,-3.5 -20.2,20.2 m 42.5,-49.9 -7.5,7.6 -6.9,6.8 5,18.8 18.8,5 6.8,-6.9 31.3,-31.3 m -90,49.9 -20.2,-20.2 -13,3.5 -3.5,12.9 20.2,20.2 m -49.8,-42.5 7.5,7.5 6.9,6.9 18.7,-5 5,-18.8 -6.8,-6.8 -31.3,-31.3 m 49.8,90 -20.2,20.2 3.5,13 13,3.4 20.2,-20.1"
       id="path530" /><path
       d="m 288.8,1068.9 7.6,-7.5 6.8,-6.9 -5,-18.7 -18.7,-5 -6.9,6.8 -31.3,31.3 M 343,1014.2 h 28.6 l 6.7,-11.6 -6.7,-11.6 H 343 m 54.7,-5.2 H 388 l -9.7,16.8 9.7,16.8 h 9.7 M 343,991 v -28.6 l -11.6,-6.7 -11.7,6.7 V 991"
       id="path532" /><path
       d="m 314.6,936.3 v 9.7 l 16.8,9.7 16.8,-9.7 v -9.7 M 319.7,991 h -28.5 l -6.7,11.6 6.7,11.6 h 28.5 m -54.6,5.2 h 9.7 l 9.7,-16.8 -9.7,-16.8 h -9.7"
       id="path534" /><circle
       cx="331.39999"
       cy="1068.9"
       r="6.1999998"
       id="circle536" /><circle
       cx="331.39999"
       cy="1002.6"
       r="6.1999998"
       id="circle538" /><path
       d="m 319.7,1147.9 v 28.6 l 11.7,6.7 11.6,-6.7 v -28.6"
       id="path540" /><path
       d="m 348.2,1202.6 v -9.7 l -16.8,-9.7 -16.8,9.7 v 9.7 m 16.8,-49.9 20.2,20.2 12.9,-3.5 3.5,-12.9 -20.2,-20.2"
       id="path542" /><path
       d="m 397.7,1178.8 -7.6,-7.5 -6.8,-6.9 -18.8,5 -5,18.8 6.9,6.8 31.3,31.3 m -49.9,-90 20.2,-20.2 -3.5,-13 -12.9,-3.5 -20.2,20.2"
       id="path544" /><path
       d="m 373.9,1070 -7.5,7.5 -6.9,6.9 5,18.7 18.8,5 6.8,-6.8 31.3,-31.3 m -90,49.8 -20.2,-20.2 -13,3.5 -3.5,13 20.2,20.2 m -49.8,-42.6 7.5,7.6 6.9,6.8 18.7,-5 5,-18.7 -6.8,-6.9 -31.3,-31.3 m 49.8,90.1 -20.2,20.2 3.5,12.9 13,3.5 20.2,-20.2"
       id="path546" /><path
       d="m 288.8,1202.6 7.6,-7.6 6.8,-6.8 -5,-18.8 -18.7,-5 -6.9,6.9 -31.3,31.3 M 343,1147.9 h 28.6 l 6.7,-11.6 -6.7,-11.7 H 343 m 54.7,-5.1 H 388 l -9.7,16.8 9.7,16.8 h 9.7 M 343,1124.6 v -28.5 l -11.6,-6.7 -11.7,6.7 v 28.5"
       id="path548" /><path
       d="m 314.6,1070 v 9.7 l 16.8,9.7 16.8,-9.7 v -9.7 m -28.5,54.6 h -28.5 l -6.7,11.7 6.7,11.6 h 28.5 m -54.6,5.2 h 9.7 l 9.7,-16.8 -9.7,-16.8 h -9.7"
       id="path550" /><circle
       cx="331.39999"
       cy="1202.6"
       r="6.1999998"
       id="circle552" /><circle
       cx="331.39999"
       cy="1136.3"
       r="6.1999998"
       id="circle554" /><path
       d="m 319.7,1281.5 v 28.6 l 11.7,6.7 11.6,-6.7 v -28.6 m 5.2,54.7 v -9.7 l -16.8,-9.7 -16.8,9.7 v 9.7"
       id="path556" /><path
       d="m 331.4,1286.4 20.2,20.2 12.9,-3.5 3.5,-13 -20.2,-20.2 m 49.9,42.6 -7.6,-7.6 -6.8,-6.8 -18.8,5 -5,18.7 6.9,6.9 31.3,31.3 m -49.9,-90.1 20.2,-20.2 -3.5,-12.9 -12.9,-3.5 -20.2,20.2 m 42.5,-49.9 -7.5,7.6 -6.9,6.8 5,18.8 18.8,5 6.8,-6.9 31.3,-31.3 m -90,49.9 -20.2,-20.2 -13,3.5 -3.5,12.9 20.2,20.2"
       id="path558" /><path
       d="m 265.1,1227.4 7.5,7.5 6.9,6.9 18.7,-5 5,-18.8 -6.8,-6.8 -31.3,-31.3 m 49.8,90 -20.2,20.2 3.5,13 13,3.5 20.2,-20.2"
       id="path560" /><path
       d="m 288.8,1336.2 7.6,-7.5 6.8,-6.9 -5,-18.7 -18.7,-5 -6.9,6.8 -31.3,31.3 M 343,1281.5 h 28.6 l 6.7,-11.6 -6.7,-11.6 H 343 m 54.7,-5.2 H 388 l -9.7,16.8 9.7,16.8 h 9.7 M 343,1258.3 v -28.6 l -11.6,-6.7 -11.7,6.7 v 28.6 m -5.1,-54.7 v 9.7 l 16.8,9.7 16.8,-9.7 v -9.7 m -28.5,54.7 h -28.5 l -6.7,11.6 6.7,11.6 h 28.5 m -54.6,5.2 h 9.7 l 9.7,-16.8 -9.7,-16.8 h -9.7"
       id="path562" /><circle
       cx="331.39999"
       cy="1336.2"
       r="6.1999998"
       id="circle564" /><circle
       cx="331.39999"
       cy="1269.9"
       r="6.1999998"
       id="circle566" /><path
       d="m 319.7,1415.2 v 28.6 l 11.7,6.7 11.6,-6.7 v -28.6 m 5.2,54.7 v -9.7 l -16.8,-9.7 -16.8,9.7 v 9.7"
       id="path568" /><path
       d="m 331.4,1420 20.2,20.2 12.9,-3.5 3.5,-12.9 -20.2,-20.2"
       id="path570" /><path
       d="m 397.7,1446.1 -7.6,-7.5 -6.8,-6.9 -18.8,5 -5,18.8 6.9,6.8 31.3,31.3 m -49.9,-90 20.2,-20.2 -3.5,-13 -12.9,-3.5 -20.2,20.2"
       id="path572" /><path
       d="m 373.9,1337.3 -7.5,7.5 -6.9,6.9 5,18.7 18.8,5 6.8,-6.8 31.3,-31.3 m -90,49.8 -20.2,-20.2 -13,3.5 -3.5,13 20.2,20.2 m -49.8,-42.6 7.5,7.6 6.9,6.8 18.7,-5 5,-18.7 -6.8,-6.9 -31.3,-31.3 m 49.8,90.1 -20.2,20.2 3.5,12.9 13,3.5 20.2,-20.2 m -42.6,49.9 7.6,-7.6 6.8,-6.8 -5,-18.8 -18.7,-5 -6.9,6.9 -31.3,31.3 M 343,1415.2 h 28.6 l 6.7,-11.6 -6.7,-11.7 H 343 m 54.7,-5.1 H 388 l -9.7,16.8 9.7,16.8 h 9.7"
       id="path574" /><path
       d="m 343,1391.9 v -28.5 l -11.6,-6.7 -11.7,6.7 v 28.5 m -5.1,-54.6 v 9.7 l 16.8,9.7 16.8,-9.7 v -9.7 m -28.5,54.6 h -28.5 l -6.7,11.7 6.7,11.6 h 28.5 m -54.6,5.2 h 9.7 l 9.7,-16.8 -9.7,-16.8 h -9.7"
       id="path576" /><circle
       cx="331.39999"
       cy="1469.9"
       r="6.1999998"
       id="circle578" /><circle
       cx="331.39999"
       cy="1403.6"
       r="6.1999998"
       id="circle580" /><path
       d="m 319.7,1548.8 v 28.6 l 11.7,6.7 11.6,-6.7 v -28.6 m 5.2,54.7 v -9.7 l -16.8,-9.7 -16.8,9.7 v 9.7"
       id="path582" /><path
       d="m 331.4,1553.7 20.2,20.2 12.9,-3.5 3.5,-13 -20.2,-20.2 m 49.9,42.6 -7.6,-7.6 -6.8,-6.8 -18.8,5 -5,18.7 6.9,6.9 31.3,31.3 m -49.9,-90.1 20.2,-20.2 -3.5,-12.9 -12.9,-3.5 -20.2,20.2 m 42.5,-49.9 -7.5,7.6 -6.9,6.8 5,18.8 18.8,5 6.8,-6.9 31.3,-31.3 m -90,49.9 -20.2,-20.2 -13,3.5 -3.5,12.9 20.2,20.2"
       id="path584" /><path
       d="m 265.1,1494.7 7.5,7.5 6.9,6.9 18.7,-5 5,-18.8 -6.8,-6.8 -31.3,-31.3 m 49.8,90 -20.2,20.2 3.5,13 13,3.5 20.2,-20.2"
       id="path586" /><path
       d="m 288.8,1603.5 7.6,-7.5 6.8,-6.9 -5,-18.7 -18.7,-5 -6.9,6.8 -31.3,31.3 M 343,1548.8 h 28.6 l 6.7,-11.6 -6.7,-11.6 H 343 m 54.7,-5.2 H 388 l -9.7,16.8 9.7,16.8 h 9.7 M 343,1525.6 V 1497 l -11.6,-6.7 -11.7,6.7 v 28.6"
       id="path588" /><path
       d="m 314.6,1470.9 v 9.7 l 16.8,9.7 16.8,-9.7 v -9.7 m -28.5,54.7 h -28.5 l -6.7,11.6 6.7,11.6 h 28.5 m -54.6,5.2 h 9.7 l 9.7,-16.8 -9.7,-16.8 h -9.7"
       id="path590" /><circle
       cx="331.39999"
       cy="1603.5"
       r="6.1999998"
       id="circle592" /><circle
       cx="331.39999"
       cy="1537.2"
       r="6.1999998"
       id="circle594" /><path
       d="m 319.7,1682.5 v 28.6 l 11.7,6.7 11.6,-6.7 v -28.6 m 5.2,54.7 v -9.7 l -16.8,-9.7 -16.8,9.7 v 9.7"
       id="path596" /><path
       d="m 331.4,1687.3 20.2,20.2 12.9,-3.5 3.5,-12.9 -20.2,-20.2 m 49.9,42.5 -7.6,-7.5 -6.8,-6.9 -18.8,5 -5,18.8 6.9,6.8 31.3,31.3"
       id="path598" /><path
       d="m 347.8,1670.9 20.2,-20.2 -3.5,-13 -12.9,-3.5 -20.2,20.2 m 42.5,-49.8 -7.5,7.5 -6.9,6.9 5,18.7 18.8,5 6.8,-6.8 31.3,-31.3 m -90,49.8 -20.2,-20.2 -13,3.5 -3.5,13 20.2,20.2 m -49.8,-42.6 7.5,7.6 6.9,6.8 18.7,-5 5,-18.7 -6.8,-6.9 -31.3,-31.3 m 49.8,90.1 -20.2,20.2 3.5,12.9 13,3.5 20.2,-20.2"
       id="path600" /><path
       d="m 288.8,1737.2 7.6,-7.6 6.8,-6.8 -5,-18.8 -18.7,-5 -6.9,6.9 -31.3,31.3 M 343,1682.5 h 28.6 l 6.7,-11.6 -6.7,-11.6 H 343 m 54.7,-5.2 H 388 l -9.7,16.8 9.7,16.8 h 9.7 M 343,1659.3 v -28.6 l -11.6,-6.7 -11.7,6.7 v 28.6 m -5.1,-54.7 v 9.7 l 16.8,9.7 16.8,-9.7 v -9.7 m -28.5,54.7 h -28.5 l -6.7,11.6 6.7,11.6 h 28.5 m -54.6,5.2 h 9.7 l 9.7,-16.8 -9.7,-16.8 h -9.7"
       id="path602" /><circle
       cx="331.39999"
       cy="1737.2"
       r="6.1999998"
       id="circle604" /><circle
       cx="331.39999"
       cy="1670.9"
       r="6.1999998"
       id="circle606" /><path
       d="m 319.7,1816.2 v 28.5 l 11.7,6.7 11.6,-6.7 v -28.5"
       id="path608" /><path
       d="m 348.2,1870.8 v -9.7 l -16.8,-9.7 -16.8,9.7 v 9.7 m 16.8,-49.8 20.2,20.2 12.9,-3.5 3.5,-13 -20.2,-20.2 m 49.9,42.6 -7.6,-7.6 -6.8,-6.8 -18.8,5 -5,18.7 6.9,6.9 31.3,31.3 m -49.9,-90.1 20.2,-20.2 -3.5,-12.9 -12.9,-3.5 -20.2,20.2 m 42.5,-49.9 -7.5,7.6 -6.9,6.8 5,18.8 18.8,5 6.8,-6.9 31.3,-31.3 m -90,49.9 -20.2,-20.2 -13,3.5 -3.5,12.9 20.2,20.2"
       id="path610" /><path
       d="m 265.1,1762 7.5,7.5 6.9,6.9 18.7,-5 5,-18.8 -6.8,-6.8 -31.3,-31.3 m 49.8,90 -20.2,20.2 3.5,13 13,3.5 20.2,-20.2"
       id="path612" /><path
       d="m 288.8,1870.8 7.6,-7.5 6.8,-6.9 -5,-18.7 -18.7,-5 -6.9,6.8 -31.3,31.3 M 343,1816.2 h 28.6 l 6.7,-11.7 -6.7,-11.6 H 343 m 54.7,-5.2 H 388 l -9.7,16.8 9.7,16.8 h 9.7 M 343,1792.9 v -28.6 l -11.6,-6.7 -11.7,6.7 v 28.6 m -5.1,-54.7 v 9.7 l 16.8,9.7 16.8,-9.7 v -9.7 m -28.5,54.7 h -28.5 l -6.7,11.6 6.7,11.7 h 28.5 m -54.6,5.1 h 9.7 l 9.7,-16.8 -9.7,-16.8 h -9.7"
       id="path614" /><circle
       cx="331.39999"
       cy="1870.8"
       r="6.1999998"
       id="circle616" /><circle
       cx="331.39999"
       cy="1804.5"
       r="6.1999998"
       id="circle618" /><path
       d="m 452.3,78.7 v 28.5 l 11.7,6.7 11.6,-6.7 V 78.7 m 5.2,54.6 v -9.7 l -16.8,-9.7 -16.8,9.7 v 9.7"
       id="path620" /><path
       d="m 464,83.5 20.1,20.2 13,-3.5 3.5,-13 L 480.4,67 m 49.8,42.6 -7.5,-7.6 -6.9,-6.8 -18.7,5 -5,18.7 6.8,6.9 31.3,31.3 M 480.4,67 l 20.2,-20.1 -3.5,-13 -13,-3.5 -20.1,20.2 m 42.5,-49.8 -7.6,7.5 -6.8,6.9 5,18.7 18.7,5 6.9,-6.8 L 554,0.8 m -90,49.8 -20.2,-20.2 -13,3.5 -3.5,13 20.2,20.1 m -49.8,-42.5 7.5,7.6 6.9,6.8 18.7,-5 5,-18.7 L 429,8.3 397.7,-23 m 49.8,90 -20.2,20.2 3.5,13 13,3.5 20.2,-20.2 m -42.6,49.8 7.6,-7.5 6.8,-6.9 -5,-18.7 -18.7,-5 -6.9,6.8 -31.3,31.3"
       id="path622" /><path
       d="m 475.6,78.7 h 28.5 L 510.8,67 504.1,55.4 h -28.5 m 54.6,-5.2 h -9.7 l -9.7,16.8 9.7,16.8 h 9.7 M 475.6,55.4 V 26.9 L 464,20.2 452.3,26.9 V 55.4 M 447.2,0.8 v 9.7 l 16.8,9.7 16.8,-9.7 V 0.8 m -28.5,54.6 h -28.5 l -6.7,11.6 6.7,11.7 h 28.5 m -54.6,5.1 h 9.7 L 417.1,67 407.4,50.2 h -9.7"
       id="path624" /><circle
       cx="464"
       cy="133.3"
       r="6.1999998"
       id="circle626" /><circle
       cx="464"
       cy="67"
       r="6.1999998"
       id="circle628" /><path
       d="m 452.3,212.3 v 28.6 l 11.7,6.7 11.6,-6.7 v -28.6 m 5.2,54.7 v -9.7 l -16.8,-9.7 -16.8,9.7 v 9.7"
       id="path630" /><path
       d="m 464,217.1 20.1,20.2 13,-3.4 3.5,-13 -20.2,-20.2 m 49.8,42.5 -7.5,-7.5 -6.9,-6.9 -18.7,5.1 -5,18.7 6.8,6.9 31.3,31.3 m -49.8,-90.1 20.2,-20.2 -3.5,-13 -13,-3.4 -20.1,20.2 m 42.5,-49.9 -7.6,7.5 -6.8,6.9 5,18.7 18.7,5.1 6.9,-6.9 31.3,-31.3"
       id="path632" /><path
       d="m 464,184.3 -20.2,-20.2 -13,3.4 -3.5,13 20.2,20.2 m -49.8,-42.5 7.5,7.5 6.9,6.9 18.7,-5.1 5,-18.7 -6.8,-6.9 -31.3,-31.2"
       id="path634" /><path
       d="m 447.5,200.7 -20.2,20.2 3.5,13 13,3.4 20.2,-20.2 m -42.6,49.9 7.6,-7.5 6.8,-6.9 -5,-18.7 -18.7,-5.1 -6.9,6.9 -31.3,31.3 m 101.7,-54.7 h 28.5 l 6.7,-11.6 -6.7,-11.6 h -28.5 m 54.6,-5.2 h -9.7 l -9.7,16.8 9.7,16.8 h 9.7 m -54.6,-28.4 v -28.6 l -11.6,-6.7 -11.7,6.7 v 28.6 m -5.1,-54.7 v 9.7 l 16.8,9.7 16.8,-9.7 v -9.7"
       id="path636" /><path
       d="m 452.3,189.1 h -28.5 l -6.7,11.6 6.7,11.6 h 28.5 m -54.6,5.2 h 9.7 l 9.7,-16.8 -9.7,-16.8 h -9.7"
       id="path638" /><circle
       cx="464"
       cy="267"
       r="6.1999998"
       id="circle640" /><circle
       cx="464"
       cy="200.7"
       r="6.1999998"
       id="circle642" /><path
       d="m 452.3,346 v 28.5 l 11.7,6.7 11.6,-6.7 V 346 m 5.2,54.6 v -9.7 l -16.8,-9.7 -16.8,9.7 v 9.7"
       id="path644" /><path
       d="m 464,350.8 20.1,20.2 13,-3.5 3.5,-13 -20.2,-20.1 m 49.8,42.5 -7.5,-7.6 -6.9,-6.8 -18.7,5 -5,18.7 6.8,6.9 31.3,31.3 m -49.8,-90 20.2,-20.2 -3.5,-13 -13,-3.5 -20.1,20.2 m 42.5,-49.8 -7.6,7.5 -6.8,6.9 5,18.7 18.7,5 6.9,-6.8 31.3,-31.3"
       id="path646" /><path
       d="m 464,317.9 -20.2,-20.2 -13,3.5 -3.5,13 20.2,20.2 m -49.8,-42.6 7.5,7.6 6.9,6.8 18.7,-5 5,-18.7 -6.8,-6.9 -31.3,-31.3 m 49.8,90.1 -20.2,20.1 3.5,13 13,3.5 20.2,-20.2 m -42.6,49.8 7.6,-7.5 6.8,-6.9 -5,-18.7 -18.7,-5 -6.9,6.8 -31.3,31.3 M 475.6,346 h 28.5 l 6.7,-11.6 -6.7,-11.7 h -28.5 m 54.6,-5.1 h -9.7 l -9.7,16.8 9.7,16.8 h 9.7"
       id="path648" /><path
       d="m 475.6,322.7 v -28.5 l -11.6,-6.7 -11.7,6.7 v 28.5 m -5.1,-54.6 v 9.7 l 16.8,9.7 16.8,-9.7 v -9.7 m -28.5,54.6 h -28.5 l -6.7,11.7 6.7,11.6 h 28.5 m -54.6,5.2 h 9.7 l 9.7,-16.8 -9.7,-16.8 h -9.7"
       id="path650" /><circle
       cx="464"
       cy="400.60001"
       r="6.1999998"
       id="circle652" /><circle
       cx="464"
       cy="334.39999"
       r="6.1999998"
       id="circle654" /><path
       d="m 452.3,479.6 v 28.6 l 11.7,6.7 11.6,-6.7 v -28.6"
       id="path656" /><path
       d="m 480.8,534.3 v -9.7 l -16.8,-9.7 -16.8,9.7 v 9.7 m 16.8,-49.9 20.1,20.2 13,-3.4 3.5,-13 -20.2,-20.2 m 49.8,42.5 -7.5,-7.5 -6.9,-6.9 -18.7,5.1 -5,18.7 6.8,6.9 31.3,31.3 m -49.8,-90.1 20.2,-20.2 -3.5,-13 -13,-3.4 -20.1,20.2 m 42.5,-49.9 -7.6,7.6 -6.8,6.8 5,18.7 18.7,5.1 6.9,-6.9 31.3,-31.3"
       id="path658" /><path
       d="m 464,451.6 -20.2,-20.2 -13,3.4 -3.5,13 20.2,20.2 m -49.8,-42.5 7.5,7.5 6.9,6.9 18.7,-5.1 5,-18.7 -6.8,-6.8 -31.3,-31.3 m 49.8,90 -20.2,20.2 3.5,13 13,3.4 20.2,-20.2 m -42.6,49.9 7.6,-7.5 6.8,-6.9 -5,-18.7 -18.7,-5.1 -6.9,6.9 -31.3,31.3 m 101.7,-54.7 h 28.5 l 6.7,-11.6 -6.7,-11.6 h -28.5 m 54.6,-5.2 h -9.7 l -9.7,16.8 9.7,16.8 h 9.7"
       id="path660" /><path
       d="m 475.6,456.4 v -28.6 l -11.6,-6.7 -11.7,6.7 v 28.6 m -5.1,-54.7 v 9.7 l 16.8,9.7 16.8,-9.7 v -9.7 m -28.5,54.7 h -28.5 l -6.7,11.6 6.7,11.6 h 28.5 m -54.6,5.2 h 9.7 l 9.7,-16.8 -9.7,-16.8 h -9.7"
       id="path662" /><circle
       cx="464"
       cy="534.29999"
       r="6.1999998"
       id="circle664" /><circle
       cx="464"
       cy="468"
       r="6.1999998"
       id="circle666" /><path
       d="m 452.3,613.3 v 28.5 l 11.7,6.8 11.6,-6.8 v -28.5 m 5.2,54.6 v -9.6 l -16.8,-9.7 -16.8,9.7 v 9.6"
       id="path668" /><path
       d="m 464,618.1 20.1,20.2 13,-3.5 3.5,-12.9 -20.2,-20.2 m 49.8,42.5 -7.5,-7.5 -6.9,-6.9 -18.7,5 -5,18.8 6.8,6.8 31.3,31.3 m -49.8,-90 20.2,-20.2 -3.5,-13 -13,-3.5 -20.1,20.2 m 42.5,-49.8 -7.6,7.5 -6.8,6.9 5,18.7 18.7,5 6.9,-6.8 31.3,-31.3"
       id="path670" /><path
       d="m 464,585.2 -20.2,-20.2 -13,3.5 -3.5,13 20.2,20.2 m -49.8,-42.6 7.5,7.6 6.9,6.8 18.7,-5 5,-18.7 -6.8,-6.9 -31.3,-31.3 m 49.8,90.1 -20.2,20.2 3.5,12.9 13,3.5 20.2,-20.2 m -42.6,49.8 7.6,-7.5 6.8,-6.8 -5,-18.8 -18.7,-5 -6.9,6.9 -31.3,31.2 m 101.7,-54.6 h 28.5 l 6.7,-11.6 -6.7,-11.7 h -28.5 m 54.6,-5.1 h -9.7 l -9.7,16.8 9.7,16.8 h 9.7"
       id="path672" /><path
       d="m 475.6,590 v -28.5 l -11.6,-6.7 -11.7,6.7 V 590"
       id="path674" /><path
       d="m 447.2,535.4 v 9.7 l 16.8,9.7 16.8,-9.7 v -9.7 M 452.3,590 h -28.5 l -6.7,11.7 6.7,11.6 h 28.5 m -54.6,5.2 h 9.7 l 9.7,-16.8 -9.7,-16.8 h -9.7"
       id="path676" /><circle
       cx="464"
       cy="667.90002"
       r="6.1999998"
       id="circle678" /><circle
       cx="464"
       cy="601.70001"
       r="6.1999998"
       id="circle680" /><path
       d="m 452.3,746.9 v 28.6 l 11.7,6.7 11.6,-6.7 v -28.6"
       id="path682" /><path
       d="m 480.8,801.6 v -9.7 l -16.8,-9.7 -16.8,9.7 v 9.7 m 16.8,-49.9 20.1,20.2 13,-3.4 3.5,-13 -20.2,-20.2 m 49.8,42.5 -7.5,-7.5 -6.9,-6.9 -18.7,5.1 -5,18.7 6.8,6.9 31.3,31.3 m -49.8,-90.1 20.2,-20.2 -3.5,-12.9 -13,-3.5 -20.1,20.2 m 42.5,-49.9 -7.6,7.6 -6.8,6.8 5,18.8 18.7,5 6.9,-6.9 L 554,669"
       id="path684" /><path
       d="m 464,718.9 -20.2,-20.2 -13,3.5 -3.5,12.9 20.2,20.2 m -49.8,-42.5 7.5,7.5 6.9,6.9 18.7,-5 5,-18.8 -6.8,-6.8 -31.3,-31.3 m 49.8,90 -20.2,20.2 3.5,13 13,3.4 20.2,-20.2 m -42.6,49.9 7.6,-7.5 6.8,-6.9 -5,-18.7 -18.7,-5.1 -6.9,6.9 -31.3,31.3 m 101.7,-54.7 h 28.5 l 6.7,-11.6 -6.7,-11.6 h -28.5 m 54.6,-5.2 h -9.7 l -9.7,16.8 9.7,16.8 h 9.7"
       id="path686" /><path
       d="m 475.6,723.7 v -28.6 l -11.6,-6.7 -11.7,6.7 v 28.6"
       id="path688" /><path
       d="m 447.2,669 v 9.7 l 16.8,9.7 16.8,-9.7 V 669 m -28.5,54.7 h -28.5 l -6.7,11.6 6.7,11.6 h 28.5 m -54.6,5.2 h 9.7 l 9.7,-16.8 -9.7,-16.8 h -9.7"
       id="path690" /><circle
       cx="464"
       cy="801.59998"
       r="6.1999998"
       id="circle692" /><circle
       cx="464"
       cy="735.29999"
       r="6.1999998"
       id="circle694" /><path
       d="m 452.3,880.6 v 28.5 l 11.7,6.8 11.6,-6.8 v -28.5"
       id="path696" /><path
       d="m 480.8,935.3 v -9.7 l -16.8,-9.7 -16.8,9.7 v 9.7 m 16.8,-49.9 20.1,20.2 13,-3.5 3.5,-12.9 -20.2,-20.2 m 49.8,42.5 -7.5,-7.5 -6.9,-6.9 -18.7,5 -5,18.8 6.8,6.8 31.3,31.3 m -49.8,-90 20.2,-20.2 -3.5,-13 -13,-3.5 -20.1,20.2"
       id="path698" /><path
       d="m 506.5,802.7 -7.6,7.5 -6.8,6.9 5,18.7 18.7,5 6.9,-6.8 31.3,-31.3 m -90,49.8 -20.2,-20.2 -13,3.5 -3.5,13 20.2,20.2 m -49.8,-42.6 7.5,7.6 6.9,6.8 18.7,-5 5,-18.7 -6.8,-6.9 -31.3,-31.3 m 49.8,90.1 -20.2,20.2 3.5,12.9 13,3.5 20.2,-20.2 m -42.6,49.9 7.6,-7.6 6.8,-6.8 -5,-18.8 -18.7,-5 -6.9,6.9 -31.3,31.3 m 101.7,-54.7 h 28.5 l 6.7,-11.6 -6.7,-11.7 h -28.5 m 54.6,-5.1 h -9.7 l -9.7,16.8 9.7,16.8 h 9.7"
       id="path700" /><path
       d="m 475.6,857.3 v -28.5 l -11.6,-6.7 -11.7,6.7 v 28.5"
       id="path702" /><path
       d="m 447.2,802.7 v 9.7 l 16.8,9.7 16.8,-9.7 v -9.7 m -28.5,54.6 h -28.5 l -6.7,11.7 6.7,11.6 h 28.5 m -54.6,5.2 h 9.7 l 9.7,-16.8 -9.7,-16.8 h -9.7"
       id="path704" /><circle
       cx="464"
       cy="935.29999"
       r="6.1999998"
       id="circle706" /><circle
       cx="464"
       cy="869"
       r="6.1999998"
       id="circle708" /><path
       d="m 452.3,1014.2 v 28.6 l 11.7,6.7 11.6,-6.7 v -28.6 m 5.2,54.7 v -9.7 l -16.8,-9.7 -16.8,9.7 v 9.7"
       id="path710" /><path
       d="m 464,1019.1 20.1,20.1 13,-3.4 3.5,-13 -20.2,-20.2 m 49.8,42.5 -7.5,-7.5 -6.9,-6.8 -18.7,5 -5,18.7 6.8,6.9 31.3,31.3"
       id="path712" /><path
       d="m 480.4,1002.6 20.2,-20.2 -3.5,-12.9 -13,-3.5 -20.1,20.2 m 42.5,-49.9 -7.6,7.6 -6.8,6.8 5,18.8 18.7,5 6.9,-6.9 31.3,-31.3"
       id="path714" /><path
       d="m 464,986.2 -20.2,-20.2 -13,3.5 -3.5,12.9 20.2,20.2 m -49.8,-42.5 7.5,7.5 6.9,6.9 18.7,-5 5,-18.8 -6.8,-6.8 -31.3,-31.3 m 49.8,90 -20.2,20.2 3.5,13 13,3.4 20.2,-20.1"
       id="path716" /><path
       d="m 421.4,1068.9 7.6,-7.5 6.8,-6.9 -5,-18.7 -18.7,-5 -6.9,6.8 -31.3,31.3 m 101.7,-54.7 h 28.5 l 6.7,-11.6 -6.7,-11.6 h -28.5 m 54.6,-5.2 h -9.7 l -9.7,16.8 9.7,16.8 h 9.7 M 475.6,991 v -28.6 l -11.6,-6.7 -11.7,6.7 V 991"
       id="path718" /><path
       d="m 447.2,936.3 v 9.7 l 16.8,9.7 16.8,-9.7 v -9.7 M 452.3,991 h -28.5 l -6.7,11.6 6.7,11.6 h 28.5 m -54.6,5.2 h 9.7 l 9.7,-16.8 -9.7,-16.8 h -9.7"
       id="path720" /><circle
       cx="464"
       cy="1068.9"
       r="6.1999998"
       id="circle722" /><circle
       cx="464"
       cy="1002.6"
       r="6.1999998"
       id="circle724" /><path
       d="m 452.3,1147.9 v 28.6 l 11.7,6.7 11.6,-6.7 v -28.6"
       id="path726" /><path
       d="m 480.8,1202.6 v -9.7 l -16.8,-9.7 -16.8,9.7 v 9.7 m 16.8,-49.9 20.1,20.2 13,-3.5 3.5,-12.9 -20.2,-20.2"
       id="path728" /><path
       d="m 530.2,1178.8 -7.5,-7.5 -6.9,-6.9 -18.7,5 -5,18.8 6.8,6.8 31.3,31.3 m -49.8,-90 20.2,-20.2 -3.5,-13 -13,-3.5 -20.1,20.2"
       id="path730" /><path
       d="m 506.5,1070 -7.6,7.5 -6.8,6.9 5,18.7 18.7,5 6.9,-6.8 31.3,-31.3 m -90,49.8 -20.2,-20.2 -13,3.5 -3.5,13 20.2,20.2 m -49.8,-42.6 7.5,7.6 6.9,6.8 18.7,-5 5,-18.7 -6.8,-6.9 -31.3,-31.3 m 49.8,90.1 -20.2,20.2 3.5,12.9 13,3.5 20.2,-20.2 m -42.6,49.9 7.6,-7.6 6.8,-6.8 -5,-18.8 -18.7,-5 -6.9,6.9 -31.3,31.3 m 101.7,-54.7 h 28.5 l 6.7,-11.6 -6.7,-11.7 h -28.5 m 54.6,-5.1 h -9.7 l -9.7,16.8 9.7,16.8 h 9.7"
       id="path732" /><path
       d="m 475.6,1124.6 v -28.5 l -11.6,-6.7 -11.7,6.7 v 28.5"
       id="path734" /><path
       d="m 447.2,1070 v 9.7 l 16.8,9.7 16.8,-9.7 v -9.7 m -28.5,54.6 h -28.5 l -6.7,11.7 6.7,11.6 h 28.5 m -54.6,5.2 h 9.7 l 9.7,-16.8 -9.7,-16.8 h -9.7"
       id="path736" /><circle
       cx="464"
       cy="1202.6"
       r="6.1999998"
       id="circle738" /><circle
       cx="464"
       cy="1136.3"
       r="6.1999998"
       id="circle740" /><path
       d="m 452.3,1281.5 v 28.6 l 11.7,6.7 11.6,-6.7 v -28.6 m 5.2,54.7 v -9.7 l -16.8,-9.7 -16.8,9.7 v 9.7"
       id="path742" /><path
       d="m 464,1286.4 20.1,20.2 13,-3.5 3.5,-13 -20.2,-20.2 m 49.8,42.6 -7.5,-7.6 -6.9,-6.8 -18.7,5 -5,18.7 6.8,6.9 31.3,31.3 m -49.8,-90.1 20.2,-20.2 -3.5,-12.9 -13,-3.5 -20.1,20.2 m 42.5,-49.9 -7.6,7.6 -6.8,6.8 5,18.8 18.7,5 6.9,-6.9 31.3,-31.3"
       id="path744" /><path
       d="m 464,1253.5 -20.2,-20.2 -13,3.5 -3.5,12.9 20.2,20.2"
       id="path746" /><path
       d="m 397.7,1227.4 7.5,7.5 6.9,6.9 18.7,-5 5,-18.8 -6.8,-6.8 -31.3,-31.3 m 49.8,90 -20.2,20.2 3.5,13 13,3.5 20.2,-20.2"
       id="path748" /><path
       d="m 421.4,1336.2 7.6,-7.5 6.8,-6.9 -5,-18.7 -18.7,-5 -6.9,6.8 -31.3,31.3 m 101.7,-54.7 h 28.5 l 6.7,-11.6 -6.7,-11.6 h -28.5 m 54.6,-5.2 h -9.7 l -9.7,16.8 9.7,16.8 h 9.7 m -54.6,-28.4 v -28.6 l -11.6,-6.7 -11.7,6.7 v 28.6 m -5.1,-54.7 v 9.7 l 16.8,9.7 16.8,-9.7 v -9.7 m -28.5,54.7 h -28.5 l -6.7,11.6 6.7,11.6 h 28.5 m -54.6,5.2 h 9.7 l 9.7,-16.8 -9.7,-16.8 h -9.7"
       id="path750" /><circle
       cx="464"
       cy="1336.2"
       r="6.1999998"
       id="circle752" /><circle
       cx="464"
       cy="1269.9"
       r="6.1999998"
       id="circle754" /><path
       d="m 452.3,1415.2 v 28.6 l 11.7,6.7 11.6,-6.7 v -28.6 m 5.2,54.7 v -9.7 l -16.8,-9.7 -16.8,9.7 v 9.7"
       id="path756" /><path
       d="m 464,1420 20.1,20.2 13,-3.5 3.5,-12.9 -20.2,-20.2"
       id="path758" /><path
       d="m 530.2,1446.1 -7.5,-7.5 -6.9,-6.9 -18.7,5 -5,18.8 6.8,6.8 31.3,31.3 m -49.8,-90 20.2,-20.2 -3.5,-13 -13,-3.5 -20.1,20.2"
       id="path760" /><path
       d="m 506.5,1337.3 -7.6,7.5 -6.8,6.9 5,18.7 18.7,5 6.9,-6.8 31.3,-31.3 m -90,49.8 -20.2,-20.2 -13,3.5 -3.5,13 20.2,20.2 m -49.8,-42.6 7.5,7.6 6.9,6.8 18.7,-5 5,-18.7 -6.8,-6.9 -31.3,-31.3 m 49.8,90.1 -20.2,20.2 3.5,12.9 13,3.5 20.2,-20.2 m -42.6,49.9 7.6,-7.6 6.8,-6.8 -5,-18.8 -18.7,-5 -6.9,6.9 -31.3,31.3 m 101.7,-54.7 h 28.5 l 6.7,-11.6 -6.7,-11.7 h -28.5 m 54.6,-5.1 h -9.7 l -9.7,16.8 9.7,16.8 h 9.7"
       id="path762" /><path
       d="m 475.6,1391.9 v -28.5 l -11.6,-6.7 -11.7,6.7 v 28.5 m -5.1,-54.6 v 9.7 l 16.8,9.7 16.8,-9.7 v -9.7 m -28.5,54.6 h -28.5 l -6.7,11.7 6.7,11.6 h 28.5 m -54.6,5.2 h 9.7 l 9.7,-16.8 -9.7,-16.8 h -9.7"
       id="path764" /><circle
       cx="464"
       cy="1469.9"
       r="6.1999998"
       id="circle766" /><circle
       cx="464"
       cy="1403.6"
       r="6.1999998"
       id="circle768" /><path
       d="m 452.3,1548.8 v 28.6 l 11.7,6.7 11.6,-6.7 v -28.6 m 5.2,54.7 v -9.7 l -16.8,-9.7 -16.8,9.7 v 9.7"
       id="path770" /><path
       d="m 464,1553.7 20.1,20.2 13,-3.5 3.5,-13 -20.2,-20.2 m 49.8,42.6 -7.5,-7.6 -6.9,-6.8 -18.7,5 -5,18.7 6.8,6.9 31.3,31.3 m -49.8,-90.1 20.2,-20.2 -3.5,-12.9 -13,-3.5 -20.1,20.2 m 42.5,-49.9 -7.6,7.6 -6.8,6.8 5,18.8 18.7,5 6.9,-6.9 31.3,-31.3"
       id="path772" /><path
       d="m 464,1520.8 -20.2,-20.2 -13,3.5 -3.5,12.9 20.2,20.2"
       id="path774" /><path
       d="m 397.7,1494.7 7.5,7.5 6.9,6.9 18.7,-5 5,-18.8 -6.8,-6.8 -31.3,-31.3 m 49.8,90 -20.2,20.2 3.5,13 13,3.5 20.2,-20.2"
       id="path776" /><path
       d="m 421.4,1603.5 7.6,-7.5 6.8,-6.9 -5,-18.7 -18.7,-5 -6.9,6.8 -31.3,31.3 m 101.7,-54.7 h 28.5 l 6.7,-11.6 -6.7,-11.6 h -28.5 m 54.6,-5.2 h -9.7 l -9.7,16.8 9.7,16.8 h 9.7 m -54.6,-28.4 V 1497 l -11.6,-6.7 -11.7,6.7 v 28.6"
       id="path778" /><path
       d="m 447.2,1470.9 v 9.7 l 16.8,9.7 16.8,-9.7 v -9.7 m -28.5,54.7 h -28.5 l -6.7,11.6 6.7,11.6 h 28.5 m -54.6,5.2 h 9.7 l 9.7,-16.8 -9.7,-16.8 h -9.7"
       id="path780" /><circle
       cx="464"
       cy="1603.5"
       r="6.1999998"
       id="circle782" /><circle
       cx="464"
       cy="1537.2"
       r="6.1999998"
       id="circle784" /><path
       d="m 452.3,1682.5 v 28.6 l 11.7,6.7 11.6,-6.7 v -28.6 m 5.2,54.7 v -9.7 l -16.8,-9.7 -16.8,9.7 v 9.7"
       id="path786" /><path
       d="m 464,1687.3 20.1,20.2 13,-3.5 3.5,-12.9 -20.2,-20.2 m 49.8,42.5 -7.5,-7.5 -6.9,-6.9 -18.7,5 -5,18.8 6.8,6.8 31.3,31.3"
       id="path788" /><path
       d="m 480.4,1670.9 20.2,-20.2 -3.5,-13 -13,-3.5 -20.1,20.2 m 42.5,-49.8 -7.6,7.5 -6.8,6.9 5,18.7 18.7,5 6.9,-6.8 31.3,-31.3"
       id="path790" /><path
       d="m 464,1654.4 -20.2,-20.2 -13,3.5 -3.5,13 20.2,20.2 m -49.8,-42.6 7.5,7.6 6.9,6.8 18.7,-5 5,-18.7 -6.8,-6.9 -31.3,-31.3 m 49.8,90.1 -20.2,20.2 3.5,12.9 13,3.5 20.2,-20.2 m -42.6,49.9 7.6,-7.6 6.8,-6.8 -5,-18.8 -18.7,-5 -6.9,6.9 -31.3,31.3 m 101.7,-54.7 h 28.5 l 6.7,-11.6 -6.7,-11.6 h -28.5 m 54.6,-5.2 h -9.7 l -9.7,16.8 9.7,16.8 h 9.7"
       id="path792" /><path
       d="m 475.6,1659.3 v -28.6 l -11.6,-6.7 -11.7,6.7 v 28.6 m -5.1,-54.7 v 9.7 l 16.8,9.7 16.8,-9.7 v -9.7 m -28.5,54.7 h -28.5 l -6.7,11.6 6.7,11.6 h 28.5 m -54.6,5.2 h 9.7 l 9.7,-16.8 -9.7,-16.8 h -9.7"
       id="path794" /><circle
       cx="464"
       cy="1737.2"
       r="6.1999998"
       id="circle796" /><circle
       cx="464"
       cy="1670.9"
       r="6.1999998"
       id="circle798" /><path
       d="m 452.3,1816.2 v 28.5 l 11.7,6.7 11.6,-6.7 v -28.5"
       id="path800" /><path
       d="m 480.8,1870.8 v -9.7 l -16.8,-9.7 -16.8,9.7 v 9.7 m 16.8,-49.8 20.1,20.2 13,-3.5 3.5,-13 -20.2,-20.2 m 49.8,42.6 -7.5,-7.6 -6.9,-6.8 -18.7,5 -5,18.7 6.8,6.9 31.3,31.3 m -49.8,-90.1 20.2,-20.2 -3.5,-12.9 -13,-3.5 -20.1,20.2 m 42.5,-49.9 -7.6,7.6 -6.8,6.8 5,18.8 18.7,5 6.9,-6.9 31.3,-31.3"
       id="path802" /><path
       d="m 464,1788.1 -20.2,-20.2 -13,3.5 -3.5,12.9 20.2,20.2"
       id="path804" /><path
       d="m 397.7,1762 7.5,7.5 6.9,6.9 18.7,-5 5,-18.8 -6.8,-6.8 -31.3,-31.3 m 49.8,90 -20.2,20.2 3.5,13 13,3.5 20.2,-20.2"
       id="path806" /><path
       d="m 421.4,1870.8 7.6,-7.5 6.8,-6.9 -5,-18.7 -18.7,-5 -6.9,6.8 -31.3,31.3 m 101.7,-54.6 h 28.5 l 6.7,-11.7 -6.7,-11.6 h -28.5 m 54.6,-5.2 h -9.7 l -9.7,16.8 9.7,16.8 h 9.7 m -54.6,-28.4 v -28.6 l -11.6,-6.7 -11.7,6.7 v 28.6 m -5.1,-54.7 v 9.7 l 16.8,9.7 16.8,-9.7 v -9.7 m -28.5,54.7 h -28.5 l -6.7,11.6 6.7,11.7 h 28.5 m -54.6,5.1 h 9.7 l 9.7,-16.8 -9.7,-16.8 h -9.7"
       id="path808" /><circle
       cx="464"
       cy="1870.8"
       r="6.1999998"
       id="circle810" /><circle
       cx="464"
       cy="1804.5"
       r="6.1999998"
       id="circle812" /></g><rect
     style="opacity:0.506427;fill:#000080;fill-opacity:0"
     id="rect1153"
     width="134.72374"
     height="136.54431"
     x="-1.3422241"
     y="-1.3103638" /><rect
     style="opacity:0.506427;fill:#000080;fill-opacity:0"
     id="rect1155"
     width="132.8143"
     height="133.80313"
     x="0"
     y="0"
     ry="0" /></svg>
