<svg xmlns="http://www.w3.org/2000/svg" xmlns:xlink="http://www.w3.org/1999/xlink" xml:space="preserve" width="378.7" height="1872"><defs><path id="a" d="M0 0h378.7v1872H0z"/></defs><clipPath id="b"><use xlink:href="#a" overflow="visible"/></clipPath><g fill="none" stroke="currentColor" stroke-linecap="round" stroke-miterlimit="10" stroke-width="4" clip-path="url(#b)"><path d="M54.6 78.7v28.5l11.6 6.7 11.6-6.7V78.7M83 133.3v-9.7l-16.8-9.7-16.8 9.7v9.7"/><path d="m66.2 83.5 20.2 20.2 13-3.5 3.4-13L82.6 67"/><path d="M132.5 109.6 125 102l-6.9-6.8-18.7 5-5.1 18.7 6.9 6.9 31.3 31.3M82.6 67l20.2-20.1-3.4-13-13-3.5-20.2 20.2M108.7.8l-7.5 7.5-6.9 6.9 5.1 18.7 18.7 5 6.9-6.8L156.3.8"/><path d="M66.2 50.6 46 30.4l-13 3.5-3.4 13L49.8 67M-.1 24.5l7.5 7.6 6.9 6.8 18.7-5 5.1-18.7-6.9-6.9L-.1-23M49.8 67 29.6 87.2l3.4 13 13 3.5 20.2-20.2M23.7 133.3l7.5-7.5 6.9-6.9-5.1-18.7-18.7-5-6.9 6.8-31.2 31.3M77.8 78.7h28.6l6.7-11.7-6.7-11.6H77.8"/><path d="M132.5 50.2h-9.7L113.1 67l9.7 16.8h9.7M77.8 55.4V26.9l-11.6-6.7-11.6 6.7v28.5M49.4.8v9.7l16.8 9.7L83 10.5V.8M54.6 55.4H26L19.3 67 26 78.7h28.6M-.1 83.8h9.7L19.3 67 9.6 50.2H-.1"/><circle cx="66.2" cy="133.3" r="6.2"/><circle cx="66.2" cy="67" r="6.2"/><path d="M54.6 212.3v28.6l11.6 6.7 11.6-6.7v-28.6M83 267v-9.7l-16.8-9.7-16.8 9.7v9.7"/><path d="m66.2 217.1 20.2 20.2 13-3.4 3.4-13-20.2-20.2"/><path d="m132.5 243.2-7.5-7.5-6.9-6.9-18.7 5.1-5.1 18.7 6.9 6.9 31.3 31.3M82.6 200.7l20.2-20.2-3.4-13-13-3.4-20.2 20.2M108.7 134.4l-7.5 7.5-6.9 6.9 5.1 18.7 18.7 5.1 6.9-6.9 31.3-31.3M66.2 184.3 46 164.1l-13 3.4-3.4 13 20.2 20.2M-.1 158.2l7.5 7.5 6.9 6.9 18.7-5.1 5.1-18.7-6.9-6.9-31.3-31.2M49.8 200.7l-20.2 20.2 3.4 13 13 3.4 20.2-20.2M23.7 267l7.5-7.5 6.9-6.9-5.1-18.7-18.7-5.1-6.9 6.9-31.2 31.3"/><path d="M77.8 212.3h28.6l6.7-11.6-6.7-11.6H77.8"/><path d="M132.5 183.9h-9.7l-9.7 16.8 9.7 16.8h9.7M77.8 189.1v-28.6l-11.6-6.7-11.6 6.7v28.6M49.4 134.4v9.7l16.8 9.7 16.8-9.7v-9.7M54.6 189.1H26l-6.7 11.6 6.7 11.6h28.6M-.1 217.5h9.7l9.7-16.8-9.7-16.8H-.1"/><circle cx="66.2" cy="267" r="6.2"/><circle cx="66.2" cy="200.7" r="6.2"/><path d="M54.6 346v28.5l11.6 6.7 11.6-6.7V346M83 400.6v-9.7l-16.8-9.7-16.8 9.7v9.7"/><path d="M66.2 350.8 86.4 371l13-3.5 3.4-13-20.2-20.1"/><path d="m132.5 376.9-7.5-7.6-6.9-6.8-18.7 5-5.1 18.7 6.9 6.9 31.3 31.3M82.6 334.4l20.2-20.2-3.4-13-13-3.5-20.2 20.2M108.7 268.1l-7.5 7.5-6.9 6.9 5.1 18.7 18.7 5 6.9-6.8 31.3-31.3"/><path d="M66.2 317.9 46 297.7l-13 3.5-3.4 13 20.2 20.2"/><path d="m-.1 291.8 7.5 7.6 6.9 6.8 18.7-5 5.1-18.7-6.9-6.9-31.3-31.3M49.8 334.4l-20.2 20.1 3.4 13 13 3.5 20.2-20.2M23.7 400.6l7.5-7.5 6.9-6.9-5.1-18.7-18.7-5-6.9 6.8-31.2 31.3M77.8 346h28.6l6.7-11.6-6.7-11.7H77.8M132.5 317.6h-9.7l-9.7 16.8 9.7 16.8h9.7M77.8 322.7v-28.5l-11.6-6.7-11.6 6.7v28.5M49.4 268.1v9.7l16.8 9.7 16.8-9.7v-9.7"/><path d="M54.6 322.7H26l-6.7 11.7L26 346h28.6M-.1 351.2h9.7l9.7-16.8-9.7-16.8H-.1"/><circle cx="66.2" cy="400.6" r="6.2"/><circle cx="66.2" cy="334.4" r="6.2"/><path d="M54.6 479.6v28.6l11.6 6.7 11.6-6.7v-28.6"/><path d="M83 534.3v-9.7l-16.8-9.7-16.8 9.7v9.7M66.2 484.4l20.2 20.2 13-3.4 3.4-13L82.6 468M132.5 510.5 125 503l-6.9-6.9-18.7 5.1-5.1 18.7 6.9 6.9 31.3 31.3M82.6 468l20.2-20.2-3.4-13-13-3.4-20.2 20.2M108.7 401.7l-7.5 7.6-6.9 6.8 5.1 18.7 18.7 5.1 6.9-6.9 31.3-31.3"/><path d="M66.2 451.6 46 431.4l-13 3.4-3.4 13L49.8 468M-.1 425.5l7.5 7.5 6.9 6.9 18.7-5.1 5.1-18.7-6.9-6.8L-.1 378M49.8 468l-20.2 20.2 3.4 13 13 3.4 20.2-20.2M23.7 534.3l7.5-7.5 6.9-6.9-5.1-18.7-18.7-5.1-6.9 6.9-31.2 31.3M77.8 479.6h28.6l6.7-11.6-6.7-11.6H77.8"/><path d="M132.5 451.2h-9.7l-9.7 16.8 9.7 16.8h9.7M77.8 456.4v-28.6l-11.6-6.7-11.6 6.7v28.6M49.4 401.7v9.7l16.8 9.7 16.8-9.7v-9.7M54.6 456.4H26L19.3 468l6.7 11.6h28.6M-.1 484.8h9.7l9.7-16.8-9.7-16.8H-.1"/><circle cx="66.2" cy="534.3" r="6.2"/><circle cx="66.2" cy="468" r="6.2"/><path d="M54.6 613.3v28.5l11.6 6.8 11.6-6.8v-28.5M83 667.9v-9.6l-16.8-9.7-16.8 9.7v9.6"/><path d="m66.2 618.1 20.2 20.2 13-3.5 3.4-12.9-20.2-20.2"/><path d="m132.5 644.2-7.5-7.5-6.9-6.9-18.7 5-5.1 18.8 6.9 6.8 31.3 31.3M82.6 601.7l20.2-20.2-3.4-13-13-3.5-20.2 20.2M108.7 535.4l-7.5 7.5-6.9 6.9 5.1 18.7 18.7 5 6.9-6.8 31.3-31.3"/><path d="M66.2 585.2 46 565l-13 3.5-3.4 13 20.2 20.2M-.1 559.1l7.5 7.6 6.9 6.8 18.7-5 5.1-18.7-6.9-6.9-31.3-31.3M49.8 601.7l-20.2 20.2 3.4 12.9 13 3.5 20.2-20.2M23.7 667.9l7.5-7.5 6.9-6.8-5.1-18.8-18.7-5-6.9 6.9-31.2 31.2M77.8 613.3h28.6l6.7-11.6-6.7-11.7H77.8"/><path d="M132.5 584.9h-9.7l-9.7 16.8 9.7 16.8h9.7M77.8 590v-28.5l-11.6-6.7-11.6 6.7V590"/><path d="M49.4 535.4v9.7l16.8 9.7 16.8-9.7v-9.7M54.6 590H26l-6.7 11.7 6.7 11.6h28.6M-.1 618.5h9.7l9.7-16.8-9.7-16.8H-.1"/><circle cx="66.2" cy="667.9" r="6.2"/><circle cx="66.2" cy="601.7" r="6.2"/><path d="M54.6 746.9v28.6l11.6 6.7 11.6-6.7v-28.6"/><path d="M83 801.6v-9.7l-16.8-9.7-16.8 9.7v9.7M66.2 751.7l20.2 20.2 13-3.4 3.4-13-20.2-20.2"/><path d="m132.5 777.8-7.5-7.5-6.9-6.9-18.7 5.1-5.1 18.7 6.9 6.9 31.3 31.3M82.6 735.3l20.2-20.2-3.4-12.9-13-3.5-20.2 20.2M108.7 669l-7.5 7.6-6.9 6.8 5.1 18.8 18.7 5 6.9-6.9 31.3-31.3"/><path d="M66.2 718.9 46 698.7l-13 3.5-3.4 12.9 20.2 20.2M-.1 692.8l7.5 7.5 6.9 6.9 18.7-5 5.1-18.8-6.9-6.8-31.3-31.3"/><path d="m49.8 735.3-20.2 20.2 3.4 13 13 3.4 20.2-20.2M23.7 801.6l7.5-7.5 6.9-6.9-5.1-18.7-18.7-5.1-6.9 6.9-31.2 31.3M77.8 746.9h28.6l6.7-11.6-6.7-11.6H77.8"/><path d="M132.5 718.5h-9.7l-9.7 16.8 9.7 16.8h9.7M77.8 723.7v-28.6l-11.6-6.7-11.6 6.7v28.6"/><path d="M49.4 669v9.7l16.8 9.7 16.8-9.7V669M54.6 723.7H26l-6.7 11.6 6.7 11.6h28.6M-.1 752.1h9.7l9.7-16.8-9.7-16.8H-.1"/><circle cx="66.2" cy="801.6" r="6.2"/><circle cx="66.2" cy="735.3" r="6.2"/><path d="M54.6 880.6v28.5l11.6 6.8 11.6-6.8v-28.5"/><path d="M83 935.3v-9.7l-16.8-9.7-16.8 9.7v9.7M66.2 885.4l20.2 20.2 13-3.5 3.4-12.9L82.6 869"/><path d="M132.5 911.5 125 904l-6.9-6.9-18.7 5-5.1 18.8 6.9 6.8 31.3 31.3M82.6 869l20.2-20.2-3.4-13-13-3.5-20.2 20.2"/><path d="m108.7 802.7-7.5 7.5-6.9 6.9 5.1 18.7 18.7 5 6.9-6.8 31.3-31.3M66.2 852.5 46 832.3l-13 3.5-3.4 13L49.8 869M-.1 826.4l7.5 7.6 6.9 6.8 18.7-5 5.1-18.7-6.9-6.9-31.3-31.3M49.8 869l-20.2 20.2 3.4 12.9 13 3.5 20.2-20.2M23.7 935.3l7.5-7.6 6.9-6.8-5.1-18.8-18.7-5-6.9 6.9-31.2 31.3M77.8 880.6h28.6l6.7-11.6-6.7-11.7H77.8"/><path d="M132.5 852.2h-9.7l-9.7 16.8 9.7 16.8h9.7M77.8 857.3v-28.5l-11.6-6.7-11.6 6.7v28.5"/><path d="M49.4 802.7v9.7l16.8 9.7 16.8-9.7v-9.7M54.6 857.3H26L19.3 869l6.7 11.6h28.6M-.1 885.8h9.7l9.7-16.8-9.7-16.8H-.1"/><circle cx="66.2" cy="935.3" r="6.2"/><circle cx="66.2" cy="869" r="6.2"/><path d="M54.6 1014.2v28.6l11.6 6.7 11.6-6.7v-28.6M83 1068.9v-9.7l-16.8-9.7-16.8 9.7v9.7"/><path d="m66.2 1019.1 20.2 20.1 13-3.4 3.4-13-20.2-20.2"/><path d="m132.5 1045.1-7.5-7.5-6.9-6.8-18.7 5-5.1 18.7 6.9 6.9 31.3 31.3M82.6 1002.6l20.2-20.2-3.4-12.9-13-3.5-20.2 20.2M108.7 936.3l-7.5 7.6-6.9 6.8 5.1 18.8 18.7 5 6.9-6.9 31.3-31.3"/><path d="M66.2 986.2 46 966l-13 3.5-3.4 12.9 20.2 20.2M-.1 960.1l7.5 7.5 6.9 6.9 18.7-5 5.1-18.8-6.9-6.8-31.3-31.3M49.8 1002.6l-20.2 20.2 3.4 13 13 3.4 20.2-20.1"/><path d="m23.7 1068.9 7.5-7.5 6.9-6.9-5.1-18.7-18.7-5-6.9 6.8-31.2 31.3M77.8 1014.2h28.6l6.7-11.6-6.7-11.6H77.8M132.5 985.8h-9.7l-9.7 16.8 9.7 16.8h9.7M77.8 991v-28.6l-11.6-6.7-11.6 6.7V991"/><path d="M49.4 936.3v9.7l16.8 9.7L83 946v-9.7M54.6 991H26l-6.7 11.6 6.7 11.6h28.6M-.1 1019.4h9.7l9.7-16.8-9.7-16.8H-.1"/><circle cx="66.2" cy="1068.9" r="6.2"/><circle cx="66.2" cy="1002.6" r="6.2"/><path d="M54.6 1147.9v28.6l11.6 6.7 11.6-6.7v-28.6"/><path d="M83 1202.6v-9.7l-16.8-9.7-16.8 9.7v9.7M66.2 1152.7l20.2 20.2 13-3.5 3.4-12.9-20.2-20.2"/><path d="m132.5 1178.8-7.5-7.5-6.9-6.9-18.7 5-5.1 18.8 6.9 6.8 31.3 31.3M82.6 1136.3l20.2-20.2-3.4-13-13-3.5-20.2 20.2"/><path d="m108.7 1070-7.5 7.5-6.9 6.9 5.1 18.7 18.7 5 6.9-6.8 31.3-31.3M66.2 1119.8 46 1099.6l-13 3.5-3.4 13 20.2 20.2M-.1 1093.7l7.5 7.6 6.9 6.8 18.7-5 5.1-18.7-6.9-6.9-31.3-31.3M49.8 1136.3l-20.2 20.2 3.4 12.9 13 3.5 20.2-20.2M23.7 1202.6l7.5-7.6 6.9-6.8-5.1-18.8-18.7-5-6.9 6.9-31.2 31.3M77.8 1147.9h28.6l6.7-11.6-6.7-11.7H77.8M132.5 1119.5h-9.7l-9.7 16.8 9.7 16.8h9.7"/><path d="M77.8 1124.6v-28.5l-11.6-6.7-11.6 6.7v28.5"/><path d="M49.4 1070v9.7l16.8 9.7 16.8-9.7v-9.7M54.6 1124.6H26l-6.7 11.7 6.7 11.6h28.6M-.1 1153.1h9.7l9.7-16.8-9.7-16.8H-.1"/><circle cx="66.2" cy="1202.6" r="6.2"/><circle cx="66.2" cy="1136.3" r="6.2"/><path d="M54.6 1281.5v28.6l11.6 6.7 11.6-6.7v-28.6M83 1336.2v-9.7l-16.8-9.7-16.8 9.7v9.7"/><path d="m66.2 1286.4 20.2 20.2 13-3.5 3.4-13-20.2-20.2"/><path d="m132.5 1312.5-7.5-7.6-6.9-6.8-18.7 5-5.1 18.7 6.9 6.9 31.3 31.3M82.6 1269.9l20.2-20.2-3.4-12.9-13-3.5-20.2 20.2M108.7 1203.6l-7.5 7.6-6.9 6.8 5.1 18.8 18.7 5 6.9-6.9 31.3-31.3"/><path d="M66.2 1253.5 46 1233.3l-13 3.5-3.4 12.9 20.2 20.2"/><path d="m-.1 1227.4 7.5 7.5 6.9 6.9 18.7-5 5.1-18.8-6.9-6.8-31.3-31.3M49.8 1269.9l-20.2 20.2 3.4 13 13 3.5 20.2-20.2"/><path d="m23.7 1336.2 7.5-7.5 6.9-6.9-5.1-18.7-18.7-5-6.9 6.8-31.2 31.3M77.8 1281.5h28.6l6.7-11.6-6.7-11.6H77.8M132.5 1253.1h-9.7l-9.7 16.8 9.7 16.8h9.7M77.8 1258.3v-28.6l-11.6-6.7-11.6 6.7v28.6M49.4 1203.6v9.7l16.8 9.7 16.8-9.7v-9.7M54.6 1258.3H26l-6.7 11.6 6.7 11.6h28.6M-.1 1286.7h9.7l9.7-16.8-9.7-16.8H-.1"/><circle cx="66.2" cy="1336.2" r="6.2"/><circle cx="66.2" cy="1269.9" r="6.2"/><path d="M54.6 1415.2v28.6l11.6 6.7 11.6-6.7v-28.6M83 1469.9v-9.7l-16.8-9.7-16.8 9.7v9.7"/><path d="m66.2 1420 20.2 20.2 13-3.5 3.4-12.9-20.2-20.2"/><path d="m132.5 1446.1-7.5-7.5-6.9-6.9-18.7 5-5.1 18.8 6.9 6.8 31.3 31.3M82.6 1403.6l20.2-20.2-3.4-13-13-3.5-20.2 20.2"/><path d="m108.7 1337.3-7.5 7.5-6.9 6.9 5.1 18.7 18.7 5 6.9-6.8 31.3-31.3M66.2 1387.1 46 1366.9l-13 3.5-3.4 13 20.2 20.2M-.1 1361l7.5 7.6 6.9 6.8 18.7-5 5.1-18.7-6.9-6.9-31.3-31.3"/><path d="m49.8 1403.6-20.2 20.2 3.4 12.9 13 3.5 20.2-20.2M23.7 1469.9l7.5-7.6 6.9-6.8-5.1-18.8-18.7-5-6.9 6.9-31.2 31.3M77.8 1415.2h28.6l6.7-11.6-6.7-11.7H77.8M132.5 1386.8h-9.7l-9.7 16.8 9.7 16.8h9.7M77.8 1391.9v-28.5l-11.6-6.7-11.6 6.7v28.5M49.4 1337.3v9.7l16.8 9.7L83 1347v-9.7"/><path d="M54.6 1391.9H26l-6.7 11.7 6.7 11.6h28.6M-.1 1420.4h9.7l9.7-16.8-9.7-16.8H-.1"/><circle cx="66.2" cy="1469.9" r="6.2"/><circle cx="66.2" cy="1403.6" r="6.2"/><path d="M54.6 1548.8v28.6l11.6 6.7 11.6-6.7v-28.6M83 1603.5v-9.7l-16.8-9.7-16.8 9.7v9.7"/><path d="m66.2 1553.7 20.2 20.2 13-3.5 3.4-13-20.2-20.2"/><path d="m132.5 1579.8-7.5-7.6-6.9-6.8-18.7 5-5.1 18.7 6.9 6.9 31.3 31.3M82.6 1537.2l20.2-20.2-3.4-12.9-13-3.5-20.2 20.2M108.7 1470.9l-7.5 7.6-6.9 6.8 5.1 18.8 18.7 5 6.9-6.9 31.3-31.3"/><path d="M66.2 1520.8 46 1500.6l-13 3.5-3.4 12.9 20.2 20.2"/><path d="m-.1 1494.7 7.5 7.5 6.9 6.9 18.7-5 5.1-18.8-6.9-6.8-31.3-31.3M49.8 1537.2l-20.2 20.2 3.4 13 13 3.5 20.2-20.2"/><path d="m23.7 1603.5 7.5-7.5 6.9-6.9-5.1-18.7-18.7-5-6.9 6.8-31.2 31.3M77.8 1548.8h28.6l6.7-11.6-6.7-11.6H77.8"/><path d="M132.5 1520.4h-9.7l-9.7 16.8 9.7 16.8h9.7M77.8 1525.6V1497l-11.6-6.7-11.6 6.7v28.6"/><path d="M49.4 1470.9v9.7l16.8 9.7 16.8-9.7v-9.7M54.6 1525.6H26l-6.7 11.6 6.7 11.6h28.6M-.1 1554h9.7l9.7-16.8-9.7-16.8H-.1"/><circle cx="66.2" cy="1603.5" r="6.2"/><circle cx="66.2" cy="1537.2" r="6.2"/><path d="M54.6 1682.5v28.6l11.6 6.7 11.6-6.7v-28.6M83 1737.2v-9.7l-16.8-9.7-16.8 9.7v9.7"/><path d="m66.2 1687.3 20.2 20.2 13-3.5 3.4-12.9-20.2-20.2"/><path d="m132.5 1713.4-7.5-7.5-6.9-6.9-18.7 5-5.1 18.8 6.9 6.8 31.3 31.3M82.6 1670.9l20.2-20.2-3.4-13-13-3.5-20.2 20.2M108.7 1604.6l-7.5 7.5-6.9 6.9 5.1 18.7 18.7 5 6.9-6.8 31.3-31.3"/><path d="M66.2 1654.4 46 1634.2l-13 3.5-3.4 13 20.2 20.2M-.1 1628.3l7.5 7.6 6.9 6.8 18.7-5 5.1-18.7-6.9-6.9-31.3-31.3M49.8 1670.9l-20.2 20.2L33 1704l13 3.5 20.2-20.2M23.7 1737.2l7.5-7.6 6.9-6.8L33 1704l-18.7-5-6.9 6.9-31.2 31.3M77.8 1682.5h28.6l6.7-11.6-6.7-11.6H77.8M132.5 1654.1h-9.7l-9.7 16.8 9.7 16.8h9.7"/><path d="M77.8 1659.3v-28.6l-11.6-6.7-11.6 6.7v28.6M49.4 1604.6v9.7l16.8 9.7 16.8-9.7v-9.7M54.6 1659.3H26l-6.7 11.6 6.7 11.6h28.6M-.1 1687.7h9.7l9.7-16.8-9.7-16.8H-.1"/><circle cx="66.2" cy="1737.2" r="6.2"/><circle cx="66.2" cy="1670.9" r="6.2"/><path d="M54.6 1816.2v28.5l11.6 6.7 11.6-6.7v-28.5"/><path d="M83 1870.8v-9.7l-16.8-9.7-16.8 9.7v9.7M66.2 1821l20.2 20.2 13-3.5 3.4-13-20.2-20.2"/><path d="m132.5 1847.1-7.5-7.6-6.9-6.8-18.7 5-5.1 18.7 6.9 6.9 31.3 31.3M82.6 1804.5l20.2-20.2-3.4-12.9-13-3.5-20.2 20.2M108.7 1738.2l-7.5 7.6-6.9 6.8 5.1 18.8 18.7 5 6.9-6.9 31.3-31.3"/><path d="M66.2 1788.1 46 1767.9l-13 3.5-3.4 12.9 20.2 20.2M-.1 1762l7.5 7.5 6.9 6.9 18.7-5 5.1-18.8-6.9-6.8-31.3-31.3"/><path d="m49.8 1804.5-20.2 20.2 3.4 13 13 3.5 20.2-20.2"/><path d="m23.7 1870.8 7.5-7.5 6.9-6.9-5.1-18.7-18.7-5-6.9 6.8-31.2 31.3M77.8 1816.2h28.6l6.7-11.7-6.7-11.6H77.8"/><path d="M132.5 1787.7h-9.7l-9.7 16.8 9.7 16.8h9.7M77.8 1792.9v-28.6l-11.6-6.7-11.6 6.7v28.6M49.4 1738.2v9.7l16.8 9.7 16.8-9.7v-9.7M54.6 1792.9H26l-6.7 11.6 6.7 11.7h28.6M-.1 1821.3h9.7l9.7-16.8-9.7-16.8H-.1"/><circle cx="66.2" cy="1870.8" r="6.2"/><circle cx="66.2" cy="1804.5" r="6.2"/><path d="M187.2 78.7v28.5l11.6 6.7 11.6-6.7V78.7M215.6 133.3v-9.7l-16.8-9.7-16.8 9.7v9.7"/><path d="m198.8 83.5 20.2 20.2 12.9-3.5 3.5-13L215.2 67"/><path d="m265.1 109.6-7.6-7.6-6.8-6.8-18.8 5-5 18.7 6.9 6.9 31.3 31.3M215.2 67l20.2-20.1-3.5-13-12.9-3.5-20.2 20.2M241.3.8l-7.5 7.5-6.9 6.9 5 18.7 18.8 5 6.8-6.8L288.8.8"/><path d="m198.8 50.6-20.2-20.2-13 3.5-3.4 13L182.3 67M132.5 24.5l7.5 7.6 6.9 6.8 18.7-5 5-18.7-6.8-6.9L132.5-23M182.3 67l-20.1 20.2 3.4 13 13 3.5 20.2-20.2M156.3 133.3l7.5-7.5 6.8-6.9-5-18.7-18.7-5-6.9 6.8-31.3 31.3M210.4 78.7H239l6.7-11.7-6.7-11.6h-28.6M265.1 50.2h-9.7L245.7 67l9.7 16.8h9.7"/><path d="M210.4 55.4V26.9l-11.6-6.7-11.6 6.7v28.5M182 .8v9.7l16.8 9.7 16.8-9.7V.8M187.2 55.4h-28.6L151.9 67l6.7 11.7h28.6M132.5 83.8h9.7l9.7-16.8-9.7-16.8h-9.7"/><circle cx="198.8" cy="133.3" r="6.2"/><circle cx="198.8" cy="67" r="6.2"/><path d="M187.2 212.3v28.6l11.6 6.7 11.6-6.7v-28.6M215.6 267v-9.7l-16.8-9.7-16.8 9.7v9.7"/><path d="m198.8 217.1 20.2 20.2 12.9-3.4 3.5-13-20.2-20.2"/><path d="m265.1 243.2-7.6-7.5-6.8-6.9-18.8 5.1-5 18.7 6.9 6.9 31.3 31.3M215.2 200.7l20.2-20.2-3.5-13-12.9-3.4-20.2 20.2M241.3 134.4l-7.5 7.5-6.9 6.9 5 18.7 18.8 5.1 6.8-6.9 31.3-31.3"/><path d="m198.8 184.3-20.2-20.2-13 3.4-3.4 13 20.1 20.2M132.5 158.2l7.5 7.5 6.9 6.9 18.7-5.1 5-18.7-6.8-6.9-31.3-31.2"/><path d="m182.3 200.7-20.1 20.2 3.4 13 13 3.4 20.2-20.2M156.3 267l7.5-7.5 6.8-6.9-5-18.7-18.7-5.1-6.9 6.9-31.3 31.3M210.4 212.3H239l6.7-11.6-6.7-11.6h-28.6M265.1 183.9h-9.7l-9.7 16.8 9.7 16.8h9.7M210.4 189.1v-28.6l-11.6-6.7-11.6 6.7v28.6M182 134.4v9.7l16.8 9.7 16.8-9.7v-9.7"/><path d="M187.2 189.1h-28.6l-6.7 11.6 6.7 11.6h28.6M132.5 217.5h9.7l9.7-16.8-9.7-16.8h-9.7"/><circle cx="198.8" cy="267" r="6.2"/><circle cx="198.8" cy="200.7" r="6.2"/><path d="M187.2 346v28.5l11.6 6.7 11.6-6.7V346M215.6 400.6v-9.7l-16.8-9.7-16.8 9.7v9.7"/><path d="M198.8 350.8 219 371l12.9-3.5 3.5-13-20.2-20.1"/><path d="m265.1 376.9-7.6-7.6-6.8-6.8-18.8 5-5 18.7 6.9 6.9 31.3 31.3M215.2 334.4l20.2-20.2-3.5-13-12.9-3.5-20.2 20.2M241.3 268.1l-7.5 7.5-6.9 6.9 5 18.7 18.8 5 6.8-6.8 31.3-31.3"/><path d="m198.8 317.9-20.2-20.2-13 3.5-3.4 13 20.1 20.2M132.5 291.8l7.5 7.6 6.9 6.8 18.7-5 5-18.7-6.8-6.9-31.3-31.3M182.3 334.4l-20.1 20.1 3.4 13 13 3.5 20.2-20.2M156.3 400.6l7.5-7.5 6.8-6.9-5-18.7-18.7-5-6.9 6.8-31.3 31.3M210.4 346H239l6.7-11.6-6.7-11.7h-28.6M265.1 317.6h-9.7l-9.7 16.8 9.7 16.8h9.7"/><path d="M210.4 322.7v-28.5l-11.6-6.7-11.6 6.7v28.5M182 268.1v9.7l16.8 9.7 16.8-9.7v-9.7M187.2 322.7h-28.6l-6.7 11.7 6.7 11.6h28.6M132.5 351.2h9.7l9.7-16.8-9.7-16.8h-9.7"/><circle cx="198.8" cy="400.6" r="6.2"/><circle cx="198.8" cy="334.4" r="6.2"/><path d="M187.2 479.6v28.6l11.6 6.7 11.6-6.7v-28.6"/><path d="M215.6 534.3v-9.7l-16.8-9.7-16.8 9.7v9.7M198.8 484.4l20.2 20.2 12.9-3.4 3.5-13-20.2-20.2M265.1 510.5l-7.6-7.5-6.8-6.9-18.8 5.1-5 18.7 6.9 6.9 31.3 31.3M215.2 468l20.2-20.2-3.5-13-12.9-3.4-20.2 20.2M241.3 401.7l-7.5 7.6-6.9 6.8 5 18.7 18.8 5.1 6.8-6.9 31.3-31.3"/><path d="m198.8 451.6-20.2-20.2-13 3.4-3.4 13 20.1 20.2M132.5 425.5l7.5 7.5 6.9 6.9 18.7-5.1 5-18.7-6.8-6.8-31.3-31.3M182.3 468l-20.1 20.2 3.4 13 13 3.4 20.2-20.2M156.3 534.3l7.5-7.5 6.8-6.9-5-18.7-18.7-5.1-6.9 6.9-31.3 31.3M210.4 479.6H239l6.7-11.6-6.7-11.6h-28.6M265.1 451.2h-9.7l-9.7 16.8 9.7 16.8h9.7"/><path d="M210.4 456.4v-28.6l-11.6-6.7-11.6 6.7v28.6M182 401.7v9.7l16.8 9.7 16.8-9.7v-9.7M187.2 456.4h-28.6l-6.7 11.6 6.7 11.6h28.6M132.5 484.8h9.7l9.7-16.8-9.7-16.8h-9.7"/><circle cx="198.8" cy="534.3" r="6.2"/><circle cx="198.8" cy="468" r="6.2"/><path d="M187.2 613.3v28.5l11.6 6.8 11.6-6.8v-28.5M215.6 667.9v-9.6l-16.8-9.7-16.8 9.7v9.6"/><path d="m198.8 618.1 20.2 20.2 12.9-3.5 3.5-12.9-20.2-20.2"/><path d="m265.1 644.2-7.6-7.5-6.8-6.9-18.8 5-5 18.8 6.9 6.8 31.3 31.3M215.2 601.7l20.2-20.2-3.5-13L219 565l-20.2 20.2M241.3 535.4l-7.5 7.5-6.9 6.9 5 18.7 18.8 5 6.8-6.8 31.3-31.3M198.8 585.2 178.6 565l-13 3.5-3.4 13 20.1 20.2M132.5 559.1l7.5 7.6 6.9 6.8 18.7-5 5-18.7-6.8-6.9-31.3-31.3M182.3 601.7l-20.1 20.2 3.4 12.9 13 3.5 20.2-20.2M156.3 667.9l7.5-7.5 6.8-6.8-5-18.8-18.7-5-6.9 6.9-31.3 31.2"/><path d="M210.4 613.3H239l6.7-11.6L239 590h-28.6M265.1 584.9h-9.7l-9.7 16.8 9.7 16.8h9.7M210.4 590v-28.5l-11.6-6.7-11.6 6.7V590"/><path d="M182 535.4v9.7l16.8 9.7 16.8-9.7v-9.7M187.2 590h-28.6l-6.7 11.7 6.7 11.6h28.6M132.5 618.5h9.7l9.7-16.8-9.7-16.8h-9.7"/><circle cx="198.8" cy="667.9" r="6.2"/><circle cx="198.8" cy="601.7" r="6.2"/><path d="M187.2 746.9v28.6l11.6 6.7 11.6-6.7v-28.6"/><path d="M215.6 801.6v-9.7l-16.8-9.7-16.8 9.7v9.7M198.8 751.7l20.2 20.2 12.9-3.4 3.5-13-20.2-20.2"/><path d="m265.1 777.8-7.6-7.5-6.8-6.9-18.8 5.1-5 18.7 6.9 6.9 31.3 31.3M215.2 735.3l20.2-20.2-3.5-12.9-12.9-3.5-20.2 20.2M241.3 669l-7.5 7.6-6.9 6.8 5 18.8 18.8 5 6.8-6.9 31.3-31.3"/><path d="m198.8 718.9-20.2-20.2-13 3.5-3.4 12.9 20.1 20.2M132.5 692.8l7.5 7.5 6.9 6.9 18.7-5 5-18.8-6.8-6.8-31.3-31.3M182.3 735.3l-20.1 20.2 3.4 13 13 3.4 20.2-20.2M156.3 801.6l7.5-7.5 6.8-6.9-5-18.7-18.7-5.1-6.9 6.9-31.3 31.3M210.4 746.9H239l6.7-11.6-6.7-11.6h-28.6M265.1 718.5h-9.7l-9.7 16.8 9.7 16.8h9.7"/><path d="M210.4 723.7v-28.6l-11.6-6.7-11.6 6.7v28.6"/><path d="M182 669v9.7l16.8 9.7 16.8-9.7V669M187.2 723.7h-28.6l-6.7 11.6 6.7 11.6h28.6M132.5 752.1h9.7l9.7-16.8-9.7-16.8h-9.7"/><circle cx="198.8" cy="801.6" r="6.2"/><circle cx="198.8" cy="735.3" r="6.2"/><path d="M187.2 880.6v28.5l11.6 6.8 11.6-6.8v-28.5"/><path d="M215.6 935.3v-9.7l-16.8-9.7-16.8 9.7v9.7M198.8 885.4l20.2 20.2 12.9-3.5 3.5-12.9-20.2-20.2"/><path d="m265.1 911.5-7.6-7.5-6.8-6.9-18.8 5-5 18.8 6.9 6.8 31.3 31.3M215.2 869l20.2-20.2-3.5-13-12.9-3.5-20.2 20.2"/><path d="m241.3 802.7-7.5 7.5-6.9 6.9 5 18.7 18.8 5 6.8-6.8 31.3-31.3M198.8 852.5l-20.2-20.2-13 3.5-3.4 13 20.1 20.2M132.5 826.4l7.5 7.6 6.9 6.8 18.7-5 5-18.7-6.8-6.9-31.3-31.3M182.3 869l-20.1 20.2 3.4 12.9 13 3.5 20.2-20.2M156.3 935.3l7.5-7.6 6.8-6.8-5-18.8-18.7-5-6.9 6.9-31.3 31.3M210.4 880.6H239l6.7-11.6-6.7-11.7h-28.6M265.1 852.2h-9.7l-9.7 16.8 9.7 16.8h9.7"/><path d="M210.4 857.3v-28.5l-11.6-6.7-11.6 6.7v28.5"/><path d="M182 802.7v9.7l16.8 9.7 16.8-9.7v-9.7M187.2 857.3h-28.6l-6.7 11.7 6.7 11.6h28.6M132.5 885.8h9.7l9.7-16.8-9.7-16.8h-9.7"/><circle cx="198.8" cy="935.3" r="6.2"/><circle cx="198.8" cy="869" r="6.2"/><path d="M187.2 1014.2v28.6l11.6 6.7 11.6-6.7v-28.6M215.6 1068.9v-9.7l-16.8-9.7-16.8 9.7v9.7"/><path d="m198.8 1019.1 20.2 20.1 12.9-3.4 3.5-13-20.2-20.2"/><path d="m265.1 1045.1-7.6-7.5-6.8-6.8-18.8 5-5 18.7 6.9 6.9 31.3 31.3M215.2 1002.6l20.2-20.2-3.5-12.9L219 966l-20.2 20.2M241.3 936.3l-7.5 7.6-6.9 6.8 5 18.8 18.8 5 6.8-6.9 31.3-31.3M198.8 986.2 178.6 966l-13 3.5-3.4 12.9 20.1 20.2M132.5 960.1l7.5 7.5 6.9 6.9 18.7-5 5-18.8-6.8-6.8-31.3-31.3M182.3 1002.6l-20.1 20.2 3.4 13 13 3.4 20.2-20.1"/><path d="m156.3 1068.9 7.5-7.5 6.8-6.9-5-18.7-18.7-5-6.9 6.8-31.3 31.3M210.4 1014.2H239l6.7-11.6L239 991h-28.6M265.1 985.8h-9.7l-9.7 16.8 9.7 16.8h9.7M210.4 991v-28.6l-11.6-6.7-11.6 6.7V991"/><path d="M182 936.3v9.7l16.8 9.7 16.8-9.7v-9.7M187.2 991h-28.6l-6.7 11.6 6.7 11.6h28.6M132.5 1019.4h9.7l9.7-16.8-9.7-16.8h-9.7"/><circle cx="198.8" cy="1068.9" r="6.2"/><circle cx="198.8" cy="1002.6" r="6.2"/><path d="M187.2 1147.9v28.6l11.6 6.7 11.6-6.7v-28.6"/><path d="M215.6 1202.6v-9.7l-16.8-9.7-16.8 9.7v9.7M198.8 1152.7l20.2 20.2 12.9-3.5 3.5-12.9-20.2-20.2"/><path d="m265.1 1178.8-7.6-7.5-6.8-6.9-18.8 5-5 18.8 6.9 6.8 31.3 31.3M215.2 1136.3l20.2-20.2-3.5-13-12.9-3.5-20.2 20.2"/><path d="m241.3 1070-7.5 7.5-6.9 6.9 5 18.7 18.8 5 6.8-6.8 31.3-31.3M198.8 1119.8l-20.2-20.2-13 3.5-3.4 13 20.1 20.2M132.5 1093.7l7.5 7.6 6.9 6.8 18.7-5 5-18.7-6.8-6.9-31.3-31.3M182.3 1136.3l-20.1 20.2 3.4 12.9 13 3.5 20.2-20.2M156.3 1202.6l7.5-7.6 6.8-6.8-5-18.8-18.7-5-6.9 6.9-31.3 31.3M210.4 1147.9H239l6.7-11.6-6.7-11.7h-28.6M265.1 1119.5h-9.7l-9.7 16.8 9.7 16.8h9.7"/><path d="M210.4 1124.6v-28.5l-11.6-6.7-11.6 6.7v28.5"/><path d="M182 1070v9.7l16.8 9.7 16.8-9.7v-9.7M187.2 1124.6h-28.6l-6.7 11.7 6.7 11.6h28.6M132.5 1153.1h9.7l9.7-16.8-9.7-16.8h-9.7"/><circle cx="198.8" cy="1202.6" r="6.2"/><circle cx="198.8" cy="1136.3" r="6.2"/><path d="M187.2 1281.5v28.6l11.6 6.7 11.6-6.7v-28.6M215.6 1336.2v-9.7l-16.8-9.7-16.8 9.7v9.7"/><path d="m198.8 1286.4 20.2 20.2 12.9-3.5 3.5-13-20.2-20.2"/><path d="m265.1 1312.5-7.6-7.6-6.8-6.8-18.8 5-5 18.7 6.9 6.9 31.3 31.3M215.2 1269.9l20.2-20.2-3.5-12.9-12.9-3.5-20.2 20.2M241.3 1203.6l-7.5 7.6-6.9 6.8 5 18.8 18.8 5 6.8-6.9 31.3-31.3"/><path d="m198.8 1253.5-20.2-20.2-13 3.5-3.4 12.9 20.1 20.2"/><path d="m132.5 1227.4 7.5 7.5 6.9 6.9 18.7-5 5-18.8-6.8-6.8-31.3-31.3M182.3 1269.9l-20.1 20.2 3.4 13 13 3.5 20.2-20.2"/><path d="m156.3 1336.2 7.5-7.5 6.8-6.9-5-18.7-18.7-5-6.9 6.8-31.3 31.3M210.4 1281.5H239l6.7-11.6-6.7-11.6h-28.6M265.1 1253.1h-9.7l-9.7 16.8 9.7 16.8h9.7M210.4 1258.3v-28.6l-11.6-6.7-11.6 6.7v28.6M182 1203.6v9.7l16.8 9.7 16.8-9.7v-9.7M187.2 1258.3h-28.6l-6.7 11.6 6.7 11.6h28.6M132.5 1286.7h9.7l9.7-16.8-9.7-16.8h-9.7"/><circle cx="198.8" cy="1336.2" r="6.2"/><circle cx="198.8" cy="1269.9" r="6.2"/><path d="M187.2 1415.2v28.6l11.6 6.7 11.6-6.7v-28.6M215.6 1469.9v-9.7l-16.8-9.7-16.8 9.7v9.7"/><path d="m198.8 1420 20.2 20.2 12.9-3.5 3.5-12.9-20.2-20.2"/><path d="m265.1 1446.1-7.6-7.5-6.8-6.9-18.8 5-5 18.8 6.9 6.8 31.3 31.3M215.2 1403.6l20.2-20.2-3.5-13-12.9-3.5-20.2 20.2"/><path d="m241.3 1337.3-7.5 7.5-6.9 6.9 5 18.7 18.8 5 6.8-6.8 31.3-31.3M198.8 1387.1l-20.2-20.2-13 3.5-3.4 13 20.1 20.2M132.5 1361l7.5 7.6 6.9 6.8 18.7-5 5-18.7-6.8-6.9-31.3-31.3M182.3 1403.6l-20.1 20.2 3.4 12.9 13 3.5 20.2-20.2M156.3 1469.9l7.5-7.6 6.8-6.8-5-18.8-18.7-5-6.9 6.9-31.3 31.3M210.4 1415.2H239l6.7-11.6-6.7-11.7h-28.6M265.1 1386.8h-9.7l-9.7 16.8 9.7 16.8h9.7"/><path d="M210.4 1391.9v-28.5l-11.6-6.7-11.6 6.7v28.5M182 1337.3v9.7l16.8 9.7 16.8-9.7v-9.7M187.2 1391.9h-28.6l-6.7 11.7 6.7 11.6h28.6M132.5 1420.4h9.7l9.7-16.8-9.7-16.8h-9.7"/><circle cx="198.8" cy="1469.9" r="6.2"/><circle cx="198.8" cy="1403.6" r="6.2"/><path d="M187.2 1548.8v28.6l11.6 6.7 11.6-6.7v-28.6M215.6 1603.5v-9.7l-16.8-9.7-16.8 9.7v9.7"/><path d="m198.8 1553.7 20.2 20.2 12.9-3.5 3.5-13-20.2-20.2"/><path d="m265.1 1579.8-7.6-7.6-6.8-6.8-18.8 5-5 18.7 6.9 6.9 31.3 31.3M215.2 1537.2l20.2-20.2-3.5-12.9-12.9-3.5-20.2 20.2M241.3 1470.9l-7.5 7.6-6.9 6.8 5 18.8 18.8 5 6.8-6.9 31.3-31.3"/><path d="m198.8 1520.8-20.2-20.2-13 3.5-3.4 12.9 20.1 20.2"/><path d="m132.5 1494.7 7.5 7.5 6.9 6.9 18.7-5 5-18.8-6.8-6.8-31.3-31.3M182.3 1537.2l-20.1 20.2 3.4 13 13 3.5 20.2-20.2"/><path d="m156.3 1603.5 7.5-7.5 6.8-6.9-5-18.7-18.7-5-6.9 6.8-31.3 31.3M210.4 1548.8H239l6.7-11.6-6.7-11.6h-28.6M265.1 1520.4h-9.7l-9.7 16.8 9.7 16.8h9.7M210.4 1525.6V1497l-11.6-6.7-11.6 6.7v28.6"/><path d="M182 1470.9v9.7l16.8 9.7 16.8-9.7v-9.7M187.2 1525.6h-28.6l-6.7 11.6 6.7 11.6h28.6M132.5 1554h9.7l9.7-16.8-9.7-16.8h-9.7"/><circle cx="198.8" cy="1603.5" r="6.2"/><circle cx="198.8" cy="1537.2" r="6.2"/><path d="M187.2 1682.5v28.6l11.6 6.7 11.6-6.7v-28.6M215.6 1737.2v-9.7l-16.8-9.7-16.8 9.7v9.7"/><path d="m198.8 1687.3 20.2 20.2 12.9-3.5 3.5-12.9-20.2-20.2"/><path d="m265.1 1713.4-7.6-7.5-6.8-6.9-18.8 5-5 18.8 6.9 6.8 31.3 31.3M215.2 1670.9l20.2-20.2-3.5-13-12.9-3.5-20.2 20.2M241.3 1604.6l-7.5 7.5-6.9 6.9 5 18.7 18.8 5 6.8-6.8 31.3-31.3"/><path d="m198.8 1654.4-20.2-20.2-13 3.5-3.4 13 20.1 20.2M132.5 1628.3l7.5 7.6 6.9 6.8 18.7-5 5-18.7-6.8-6.9-31.3-31.3M182.3 1670.9l-20.1 20.2 3.4 12.9 13 3.5 20.2-20.2M156.3 1737.2l7.5-7.6 6.8-6.8-5-18.8-18.7-5-6.9 6.9-31.3 31.3M210.4 1682.5H239l6.7-11.6-6.7-11.6h-28.6M265.1 1654.1h-9.7l-9.7 16.8 9.7 16.8h9.7"/><path d="M210.4 1659.3v-28.6l-11.6-6.7-11.6 6.7v28.6M182 1604.6v9.7l16.8 9.7 16.8-9.7v-9.7M187.2 1659.3h-28.6l-6.7 11.6 6.7 11.6h28.6M132.5 1687.7h9.7l9.7-16.8-9.7-16.8h-9.7"/><circle cx="198.8" cy="1737.2" r="6.2"/><circle cx="198.8" cy="1670.9" r="6.2"/><path d="M187.2 1816.2v28.5l11.6 6.7 11.6-6.7v-28.5"/><path d="M215.6 1870.8v-9.7l-16.8-9.7-16.8 9.7v9.7M198.8 1821l20.2 20.2 12.9-3.5 3.5-13-20.2-20.2"/><path d="m265.1 1847.1-7.6-7.6-6.8-6.8-18.8 5-5 18.7 6.9 6.9 31.3 31.3M215.2 1804.5l20.2-20.2-3.5-12.9-12.9-3.5-20.2 20.2M241.3 1738.2l-7.5 7.6-6.9 6.8 5 18.8 18.8 5 6.8-6.9 31.3-31.3"/><path d="m198.8 1788.1-20.2-20.2-13 3.5-3.4 12.9 20.1 20.2"/><path d="m132.5 1762 7.5 7.5 6.9 6.9 18.7-5 5-18.8-6.8-6.8-31.3-31.3M182.3 1804.5l-20.1 20.2 3.4 13 13 3.5 20.2-20.2"/><path d="m156.3 1870.8 7.5-7.5 6.8-6.9-5-18.7-18.7-5-6.9 6.8-31.3 31.3M210.4 1816.2H239l6.7-11.7-6.7-11.6h-28.6M265.1 1787.7h-9.7l-9.7 16.8 9.7 16.8h9.7M210.4 1792.9v-28.6l-11.6-6.7-11.6 6.7v28.6M182 1738.2v9.7l16.8 9.7 16.8-9.7v-9.7M187.2 1792.9h-28.6l-6.7 11.6 6.7 11.7h28.6M132.5 1821.3h9.7l9.7-16.8-9.7-16.8h-9.7"/><circle cx="198.8" cy="1870.8" r="6.2"/><circle cx="198.8" cy="1804.5" r="6.2"/><path d="M319.7 78.7v28.5l11.7 6.7 11.6-6.7V78.7M348.2 133.3v-9.7l-16.8-9.7-16.8 9.7v9.7"/><path d="m331.4 83.5 20.2 20.2 12.9-3.5 3.5-13L347.8 67M397.7 109.6l-7.6-7.6-6.8-6.8-18.8 5-5 18.7 6.9 6.9 31.3 31.3M347.8 67 368 46.9l-3.5-13-12.9-3.5-20.2 20.2M373.9.8l-7.5 7.5-6.9 6.9 5 18.7 18.8 5 6.8-6.8L421.4.8M331.4 50.6l-20.2-20.2-13 3.5-3.5 13L314.9 67M265.1 24.5l7.5 7.6 6.9 6.8 18.7-5 5-18.7-6.8-6.9L265.1-23M314.9 67l-20.2 20.2 3.5 13 13 3.5 20.2-20.2"/><path d="m288.8 133.3 7.6-7.5 6.8-6.9-5-18.7-18.7-5-6.9 6.8-31.3 31.3M343 78.7h28.6l6.7-11.7-6.7-11.6H343M397.7 50.2H388L378.3 67l9.7 16.8h9.7M343 55.4V26.9l-11.6-6.7-11.7 6.7v28.5M314.6.8v9.7l16.8 9.7 16.8-9.7V.8M319.7 55.4h-28.5L284.5 67l6.7 11.7h28.5M265.1 83.8h9.7l9.7-16.8-9.7-16.8h-9.7"/><circle cx="331.4" cy="133.3" r="6.2"/><circle cx="331.4" cy="67" r="6.2"/><path d="M319.7 212.3v28.6l11.7 6.7 11.6-6.7v-28.6M348.2 267v-9.7l-16.8-9.7-16.8 9.7v9.7"/><path d="m331.4 217.1 20.2 20.2 12.9-3.4 3.5-13-20.2-20.2M397.7 243.2l-7.6-7.5-6.8-6.9-18.8 5.1-5 18.7 6.9 6.9 31.3 31.3M347.8 200.7l20.2-20.2-3.5-13-12.9-3.4-20.2 20.2M373.9 134.4l-7.5 7.5-6.9 6.9 5 18.7 18.8 5.1 6.8-6.9 31.3-31.3M331.4 184.3l-20.2-20.2-13 3.4-3.5 13 20.2 20.2M265.1 158.2l7.5 7.5 6.9 6.9 18.7-5.1 5-18.7-6.8-6.9-31.3-31.2"/><path d="m314.9 200.7-20.2 20.2 3.5 13 13 3.4 20.2-20.2M288.8 267l7.6-7.5 6.8-6.9-5-18.7-18.7-5.1-6.9 6.9-31.3 31.3M343 212.3h28.6l6.7-11.6-6.7-11.6H343M397.7 183.9H388l-9.7 16.8 9.7 16.8h9.7M343 189.1v-28.6l-11.6-6.7-11.7 6.7v28.6M314.6 134.4v9.7l16.8 9.7 16.8-9.7v-9.7"/><path d="M319.7 189.1h-28.5l-6.7 11.6 6.7 11.6h28.5M265.1 217.5h9.7l9.7-16.8-9.7-16.8h-9.7"/><circle cx="331.4" cy="267" r="6.2"/><circle cx="331.4" cy="200.7" r="6.2"/><path d="M319.7 346v28.5l11.7 6.7 11.6-6.7V346M348.2 400.6v-9.7l-16.8-9.7-16.8 9.7v9.7"/><path d="m331.4 350.8 20.2 20.2 12.9-3.5 3.5-13-20.2-20.1"/><path d="m397.7 376.9-7.6-7.6-6.8-6.8-18.8 5-5 18.7 6.9 6.9 31.3 31.3M347.8 334.4l20.2-20.2-3.5-13-12.9-3.5-20.2 20.2M373.9 268.1l-7.5 7.5-6.9 6.9 5 18.7 18.8 5 6.8-6.8 31.3-31.3M331.4 317.9l-20.2-20.2-13 3.5-3.5 13 20.2 20.2"/><path d="m265.1 291.8 7.5 7.6 6.9 6.8 18.7-5 5-18.7-6.8-6.9-31.3-31.3M314.9 334.4l-20.2 20.1 3.5 13 13 3.5 20.2-20.2M288.8 400.6l7.6-7.5 6.8-6.9-5-18.7-18.7-5-6.9 6.8-31.3 31.3M343 346h28.6l6.7-11.6-6.7-11.7H343M397.7 317.6H388l-9.7 16.8 9.7 16.8h9.7M343 322.7v-28.5l-11.6-6.7-11.7 6.7v28.5M314.6 268.1v9.7l16.8 9.7 16.8-9.7v-9.7"/><path d="M319.7 322.7h-28.5l-6.7 11.7 6.7 11.6h28.5M265.1 351.2h9.7l9.7-16.8-9.7-16.8h-9.7"/><circle cx="331.4" cy="400.6" r="6.2"/><circle cx="331.4" cy="334.4" r="6.2"/><path d="M319.7 479.6v28.6l11.7 6.7 11.6-6.7v-28.6"/><path d="M348.2 534.3v-9.7l-16.8-9.7-16.8 9.7v9.7M331.4 484.4l20.2 20.2 12.9-3.4 3.5-13-20.2-20.2M397.7 510.5l-7.6-7.5-6.8-6.9-18.8 5.1-5 18.7 6.9 6.9 31.3 31.3M347.8 468l20.2-20.2-3.5-13-12.9-3.4-20.2 20.2M373.9 401.7l-7.5 7.6-6.9 6.8 5 18.7 18.8 5.1 6.8-6.9 31.3-31.3M331.4 451.6l-20.2-20.2-13 3.4-3.5 13 20.2 20.2M265.1 425.5l7.5 7.5 6.9 6.9 18.7-5.1 5-18.7-6.8-6.8-31.3-31.3M314.9 468l-20.2 20.2 3.5 13 13 3.4 20.2-20.2"/><path d="m288.8 534.3 7.6-7.5 6.8-6.9-5-18.7-18.7-5.1-6.9 6.9-31.3 31.3M343 479.6h28.6l6.7-11.6-6.7-11.6H343M397.7 451.2H388l-9.7 16.8 9.7 16.8h9.7M343 456.4v-28.6l-11.6-6.7-11.7 6.7v28.6M314.6 401.7v9.7l16.8 9.7 16.8-9.7v-9.7M319.7 456.4h-28.5l-6.7 11.6 6.7 11.6h28.5M265.1 484.8h9.7l9.7-16.8-9.7-16.8h-9.7"/><circle cx="331.4" cy="534.3" r="6.2"/><circle cx="331.4" cy="468" r="6.2"/><path d="M319.7 613.3v28.5l11.7 6.8 11.6-6.8v-28.5M348.2 667.9v-9.6l-16.8-9.7-16.8 9.7v9.6"/><path d="m331.4 618.1 20.2 20.2 12.9-3.5 3.5-12.9-20.2-20.2M397.7 644.2l-7.6-7.5-6.8-6.9-18.8 5-5 18.8 6.9 6.8 31.3 31.3M347.8 601.7l20.2-20.2-3.5-13-12.9-3.5-20.2 20.2M373.9 535.4l-7.5 7.5-6.9 6.9 5 18.7 18.8 5 6.8-6.8 31.3-31.3M331.4 585.2 311.2 565l-13 3.5-3.5 13 20.2 20.2M265.1 559.1l7.5 7.6 6.9 6.8 18.7-5 5-18.7-6.8-6.9-31.3-31.3M314.9 601.7l-20.2 20.2 3.5 12.9 13 3.5 20.2-20.2"/><path d="m288.8 667.9 7.6-7.5 6.8-6.8-5-18.8-18.7-5-6.9 6.9-31.3 31.2M343 613.3h28.6l6.7-11.6-6.7-11.7H343M397.7 584.9H388l-9.7 16.8 9.7 16.8h9.7M343 590v-28.5l-11.6-6.7-11.7 6.7V590"/><path d="M314.6 535.4v9.7l16.8 9.7 16.8-9.7v-9.7M319.7 590h-28.5l-6.7 11.7 6.7 11.6h28.5M265.1 618.5h9.7l9.7-16.8-9.7-16.8h-9.7"/><circle cx="331.4" cy="667.9" r="6.2"/><circle cx="331.4" cy="601.7" r="6.2"/><path d="M319.7 746.9v28.6l11.7 6.7 11.6-6.7v-28.6"/><path d="M348.2 801.6v-9.7l-16.8-9.7-16.8 9.7v9.7M331.4 751.7l20.2 20.2 12.9-3.4 3.5-13-20.2-20.2"/><path d="m397.7 777.8-7.6-7.5-6.8-6.9-18.8 5.1-5 18.7 6.9 6.9 31.3 31.3M347.8 735.3l20.2-20.2-3.5-12.9-12.9-3.5-20.2 20.2M373.9 669l-7.5 7.6-6.9 6.8 5 18.8 18.8 5 6.8-6.9 31.3-31.3M331.4 718.9l-20.2-20.2-13 3.5-3.5 12.9 20.2 20.2M265.1 692.8l7.5 7.5 6.9 6.9 18.7-5 5-18.8-6.8-6.8-31.3-31.3M314.9 735.3l-20.2 20.2 3.5 13 13 3.4 20.2-20.2"/><path d="m288.8 801.6 7.6-7.5 6.8-6.9-5-18.7-18.7-5.1-6.9 6.9-31.3 31.3M343 746.9h28.6l6.7-11.6-6.7-11.6H343M397.7 718.5H388l-9.7 16.8 9.7 16.8h9.7M343 723.7v-28.6l-11.6-6.7-11.7 6.7v28.6"/><path d="M314.6 669v9.7l16.8 9.7 16.8-9.7V669M319.7 723.7h-28.5l-6.7 11.6 6.7 11.6h28.5M265.1 752.1h9.7l9.7-16.8-9.7-16.8h-9.7"/><circle cx="331.4" cy="801.6" r="6.2"/><circle cx="331.4" cy="735.3" r="6.2"/><path d="M319.7 880.6v28.5l11.7 6.8 11.6-6.8v-28.5"/><path d="M348.2 935.3v-9.7l-16.8-9.7-16.8 9.7v9.7M331.4 885.4l20.2 20.2 12.9-3.5 3.5-12.9-20.2-20.2M397.7 911.5l-7.6-7.5-6.8-6.9-18.8 5-5 18.8 6.9 6.8 31.3 31.3M347.8 869l20.2-20.2-3.5-13-12.9-3.5-20.2 20.2"/><path d="m373.9 802.7-7.5 7.5-6.9 6.9 5 18.7 18.8 5 6.8-6.8 31.3-31.3M331.4 852.5l-20.2-20.2-13 3.5-3.5 13 20.2 20.2M265.1 826.4l7.5 7.6 6.9 6.8 18.7-5 5-18.7-6.8-6.9-31.3-31.3M314.9 869l-20.2 20.2 3.5 12.9 13 3.5 20.2-20.2"/><path d="m288.8 935.3 7.6-7.6 6.8-6.8-5-18.8-18.7-5-6.9 6.9-31.3 31.3M343 880.6h28.6l6.7-11.6-6.7-11.7H343M397.7 852.2H388l-9.7 16.8 9.7 16.8h9.7M343 857.3v-28.5l-11.6-6.7-11.7 6.7v28.5"/><path d="M314.6 802.7v9.7l16.8 9.7 16.8-9.7v-9.7M319.7 857.3h-28.5l-6.7 11.7 6.7 11.6h28.5M265.1 885.8h9.7l9.7-16.8-9.7-16.8h-9.7"/><circle cx="331.4" cy="935.3" r="6.2"/><circle cx="331.4" cy="869" r="6.2"/><path d="M319.7 1014.2v28.6l11.7 6.7 11.6-6.7v-28.6M348.2 1068.9v-9.7l-16.8-9.7-16.8 9.7v9.7"/><path d="m331.4 1019.1 20.2 20.1 12.9-3.4 3.5-13-20.2-20.2M397.7 1045.1l-7.6-7.5-6.8-6.8-18.8 5-5 18.7 6.9 6.9 31.3 31.3"/><path d="m347.8 1002.6 20.2-20.2-3.5-12.9-12.9-3.5-20.2 20.2M373.9 936.3l-7.5 7.6-6.9 6.8 5 18.8 18.8 5 6.8-6.9 31.3-31.3M331.4 986.2 311.2 966l-13 3.5-3.5 12.9 20.2 20.2M265.1 960.1l7.5 7.5 6.9 6.9 18.7-5 5-18.8-6.8-6.8-31.3-31.3M314.9 1002.6l-20.2 20.2 3.5 13 13 3.4 20.2-20.1"/><path d="m288.8 1068.9 7.6-7.5 6.8-6.9-5-18.7-18.7-5-6.9 6.8-31.3 31.3M343 1014.2h28.6l6.7-11.6-6.7-11.6H343M397.7 985.8H388l-9.7 16.8 9.7 16.8h9.7M343 991v-28.6l-11.6-6.7-11.7 6.7V991"/><path d="M314.6 936.3v9.7l16.8 9.7 16.8-9.7v-9.7M319.7 991h-28.5l-6.7 11.6 6.7 11.6h28.5M265.1 1019.4h9.7l9.7-16.8-9.7-16.8h-9.7"/><circle cx="331.4" cy="1068.9" r="6.2"/><circle cx="331.4" cy="1002.6" r="6.2"/><path d="M319.7 1147.9v28.6l11.7 6.7 11.6-6.7v-28.6"/><path d="M348.2 1202.6v-9.7l-16.8-9.7-16.8 9.7v9.7M331.4 1152.7l20.2 20.2 12.9-3.5 3.5-12.9-20.2-20.2"/><path d="m397.7 1178.8-7.6-7.5-6.8-6.9-18.8 5-5 18.8 6.9 6.8 31.3 31.3M347.8 1136.3l20.2-20.2-3.5-13-12.9-3.5-20.2 20.2"/><path d="m373.9 1070-7.5 7.5-6.9 6.9 5 18.7 18.8 5 6.8-6.8 31.3-31.3M331.4 1119.8l-20.2-20.2-13 3.5-3.5 13 20.2 20.2M265.1 1093.7l7.5 7.6 6.9 6.8 18.7-5 5-18.7-6.8-6.9-31.3-31.3M314.9 1136.3l-20.2 20.2 3.5 12.9 13 3.5 20.2-20.2"/><path d="m288.8 1202.6 7.6-7.6 6.8-6.8-5-18.8-18.7-5-6.9 6.9-31.3 31.3M343 1147.9h28.6l6.7-11.6-6.7-11.7H343M397.7 1119.5H388l-9.7 16.8 9.7 16.8h9.7M343 1124.6v-28.5l-11.6-6.7-11.7 6.7v28.5"/><path d="M314.6 1070v9.7l16.8 9.7 16.8-9.7v-9.7M319.7 1124.6h-28.5l-6.7 11.7 6.7 11.6h28.5M265.1 1153.1h9.7l9.7-16.8-9.7-16.8h-9.7"/><circle cx="331.4" cy="1202.6" r="6.2"/><circle cx="331.4" cy="1136.3" r="6.2"/><path d="M319.7 1281.5v28.6l11.7 6.7 11.6-6.7v-28.6M348.2 1336.2v-9.7l-16.8-9.7-16.8 9.7v9.7"/><path d="m331.4 1286.4 20.2 20.2 12.9-3.5 3.5-13-20.2-20.2M397.7 1312.5l-7.6-7.6-6.8-6.8-18.8 5-5 18.7 6.9 6.9 31.3 31.3M347.8 1269.9l20.2-20.2-3.5-12.9-12.9-3.5-20.2 20.2M373.9 1203.6l-7.5 7.6-6.9 6.8 5 18.8 18.8 5 6.8-6.9 31.3-31.3M331.4 1253.5l-20.2-20.2-13 3.5-3.5 12.9 20.2 20.2"/><path d="m265.1 1227.4 7.5 7.5 6.9 6.9 18.7-5 5-18.8-6.8-6.8-31.3-31.3M314.9 1269.9l-20.2 20.2 3.5 13 13 3.5 20.2-20.2"/><path d="m288.8 1336.2 7.6-7.5 6.8-6.9-5-18.7-18.7-5-6.9 6.8-31.3 31.3M343 1281.5h28.6l6.7-11.6-6.7-11.6H343M397.7 1253.1H388l-9.7 16.8 9.7 16.8h9.7M343 1258.3v-28.6l-11.6-6.7-11.7 6.7v28.6M314.6 1203.6v9.7l16.8 9.7 16.8-9.7v-9.7M319.7 1258.3h-28.5l-6.7 11.6 6.7 11.6h28.5M265.1 1286.7h9.7l9.7-16.8-9.7-16.8h-9.7"/><circle cx="331.4" cy="1336.2" r="6.2"/><circle cx="331.4" cy="1269.9" r="6.2"/><path d="M319.7 1415.2v28.6l11.7 6.7 11.6-6.7v-28.6M348.2 1469.9v-9.7l-16.8-9.7-16.8 9.7v9.7"/><path d="m331.4 1420 20.2 20.2 12.9-3.5 3.5-12.9-20.2-20.2"/><path d="m397.7 1446.1-7.6-7.5-6.8-6.9-18.8 5-5 18.8 6.9 6.8 31.3 31.3M347.8 1403.6l20.2-20.2-3.5-13-12.9-3.5-20.2 20.2"/><path d="m373.9 1337.3-7.5 7.5-6.9 6.9 5 18.7 18.8 5 6.8-6.8 31.3-31.3M331.4 1387.1l-20.2-20.2-13 3.5-3.5 13 20.2 20.2M265.1 1361l7.5 7.6 6.9 6.8 18.7-5 5-18.7-6.8-6.9-31.3-31.3M314.9 1403.6l-20.2 20.2 3.5 12.9 13 3.5 20.2-20.2M288.8 1469.9l7.6-7.6 6.8-6.8-5-18.8-18.7-5-6.9 6.9-31.3 31.3M343 1415.2h28.6l6.7-11.6-6.7-11.7H343M397.7 1386.8H388l-9.7 16.8 9.7 16.8h9.7"/><path d="M343 1391.9v-28.5l-11.6-6.7-11.7 6.7v28.5M314.6 1337.3v9.7l16.8 9.7 16.8-9.7v-9.7M319.7 1391.9h-28.5l-6.7 11.7 6.7 11.6h28.5M265.1 1420.4h9.7l9.7-16.8-9.7-16.8h-9.7"/><circle cx="331.4" cy="1469.9" r="6.2"/><circle cx="331.4" cy="1403.6" r="6.2"/><path d="M319.7 1548.8v28.6l11.7 6.7 11.6-6.7v-28.6M348.2 1603.5v-9.7l-16.8-9.7-16.8 9.7v9.7"/><path d="m331.4 1553.7 20.2 20.2 12.9-3.5 3.5-13-20.2-20.2M397.7 1579.8l-7.6-7.6-6.8-6.8-18.8 5-5 18.7 6.9 6.9 31.3 31.3M347.8 1537.2 368 1517l-3.5-12.9-12.9-3.5-20.2 20.2M373.9 1470.9l-7.5 7.6-6.9 6.8 5 18.8 18.8 5 6.8-6.9 31.3-31.3M331.4 1520.8l-20.2-20.2-13 3.5-3.5 12.9 20.2 20.2"/><path d="m265.1 1494.7 7.5 7.5 6.9 6.9 18.7-5 5-18.8-6.8-6.8-31.3-31.3M314.9 1537.2l-20.2 20.2 3.5 13 13 3.5 20.2-20.2"/><path d="m288.8 1603.5 7.6-7.5 6.8-6.9-5-18.7-18.7-5-6.9 6.8-31.3 31.3M343 1548.8h28.6l6.7-11.6-6.7-11.6H343M397.7 1520.4H388l-9.7 16.8 9.7 16.8h9.7M343 1525.6V1497l-11.6-6.7-11.7 6.7v28.6"/><path d="M314.6 1470.9v9.7l16.8 9.7 16.8-9.7v-9.7M319.7 1525.6h-28.5l-6.7 11.6 6.7 11.6h28.5M265.1 1554h9.7l9.7-16.8-9.7-16.8h-9.7"/><circle cx="331.4" cy="1603.5" r="6.2"/><circle cx="331.4" cy="1537.2" r="6.2"/><path d="M319.7 1682.5v28.6l11.7 6.7 11.6-6.7v-28.6M348.2 1737.2v-9.7l-16.8-9.7-16.8 9.7v9.7"/><path d="m331.4 1687.3 20.2 20.2 12.9-3.5 3.5-12.9-20.2-20.2M397.7 1713.4l-7.6-7.5-6.8-6.9-18.8 5-5 18.8 6.9 6.8 31.3 31.3"/><path d="m347.8 1670.9 20.2-20.2-3.5-13-12.9-3.5-20.2 20.2M373.9 1604.6l-7.5 7.5-6.9 6.9 5 18.7 18.8 5 6.8-6.8 31.3-31.3M331.4 1654.4l-20.2-20.2-13 3.5-3.5 13 20.2 20.2M265.1 1628.3l7.5 7.6 6.9 6.8 18.7-5 5-18.7-6.8-6.9-31.3-31.3M314.9 1670.9l-20.2 20.2 3.5 12.9 13 3.5 20.2-20.2"/><path d="m288.8 1737.2 7.6-7.6 6.8-6.8-5-18.8-18.7-5-6.9 6.9-31.3 31.3M343 1682.5h28.6l6.7-11.6-6.7-11.6H343M397.7 1654.1H388l-9.7 16.8 9.7 16.8h9.7M343 1659.3v-28.6l-11.6-6.7-11.7 6.7v28.6M314.6 1604.6v9.7l16.8 9.7 16.8-9.7v-9.7M319.7 1659.3h-28.5l-6.7 11.6 6.7 11.6h28.5M265.1 1687.7h9.7l9.7-16.8-9.7-16.8h-9.7"/><circle cx="331.4" cy="1737.2" r="6.2"/><circle cx="331.4" cy="1670.9" r="6.2"/><path d="M319.7 1816.2v28.5l11.7 6.7 11.6-6.7v-28.5"/><path d="M348.2 1870.8v-9.7l-16.8-9.7-16.8 9.7v9.7M331.4 1821l20.2 20.2 12.9-3.5 3.5-13-20.2-20.2M397.7 1847.1l-7.6-7.6-6.8-6.8-18.8 5-5 18.7 6.9 6.9 31.3 31.3M347.8 1804.5l20.2-20.2-3.5-12.9-12.9-3.5-20.2 20.2M373.9 1738.2l-7.5 7.6-6.9 6.8 5 18.8 18.8 5 6.8-6.9 31.3-31.3M331.4 1788.1l-20.2-20.2-13 3.5-3.5 12.9 20.2 20.2"/><path d="m265.1 1762 7.5 7.5 6.9 6.9 18.7-5 5-18.8-6.8-6.8-31.3-31.3M314.9 1804.5l-20.2 20.2 3.5 13 13 3.5 20.2-20.2"/><path d="m288.8 1870.8 7.6-7.5 6.8-6.9-5-18.7-18.7-5-6.9 6.8-31.3 31.3M343 1816.2h28.6l6.7-11.7-6.7-11.6H343M397.7 1787.7H388l-9.7 16.8 9.7 16.8h9.7M343 1792.9v-28.6l-11.6-6.7-11.7 6.7v28.6M314.6 1738.2v9.7l16.8 9.7 16.8-9.7v-9.7M319.7 1792.9h-28.5l-6.7 11.6 6.7 11.7h28.5M265.1 1821.3h9.7l9.7-16.8-9.7-16.8h-9.7"/><circle cx="331.4" cy="1870.8" r="6.2"/><circle cx="331.4" cy="1804.5" r="6.2"/><path d="M452.3 78.7v28.5l11.7 6.7 11.6-6.7V78.7M480.8 133.3v-9.7l-16.8-9.7-16.8 9.7v9.7"/><path d="m464 83.5 20.1 20.2 13-3.5 3.5-13L480.4 67M530.2 109.6l-7.5-7.6-6.9-6.8-18.7 5-5 18.7 6.8 6.9 31.3 31.3M480.4 67l20.2-20.1-3.5-13-13-3.5L464 50.6M506.5.8l-7.6 7.5-6.8 6.9 5 18.7 18.7 5 6.9-6.8L554 .8M464 50.6l-20.2-20.2-13 3.5-3.5 13L447.5 67M397.7 24.5l7.5 7.6 6.9 6.8 18.7-5 5-18.7-6.8-6.9L397.7-23M447.5 67l-20.2 20.2 3.5 13 13 3.5L464 83.5M421.4 133.3l7.6-7.5 6.8-6.9-5-18.7-18.7-5-6.9 6.8-31.3 31.3"/><path d="M475.6 78.7h28.5l6.7-11.7-6.7-11.6h-28.5M530.2 50.2h-9.7L510.8 67l9.7 16.8h9.7M475.6 55.4V26.9L464 20.2l-11.7 6.7v28.5M447.2.8v9.7l16.8 9.7 16.8-9.7V.8M452.3 55.4h-28.5L417.1 67l6.7 11.7h28.5M397.7 83.8h9.7l9.7-16.8-9.7-16.8h-9.7"/><circle cx="464" cy="133.3" r="6.2"/><circle cx="464" cy="67" r="6.2"/><path d="M452.3 212.3v28.6l11.7 6.7 11.6-6.7v-28.6M480.8 267v-9.7l-16.8-9.7-16.8 9.7v9.7"/><path d="m464 217.1 20.1 20.2 13-3.4 3.5-13-20.2-20.2M530.2 243.2l-7.5-7.5-6.9-6.9-18.7 5.1-5 18.7 6.8 6.9 31.3 31.3M480.4 200.7l20.2-20.2-3.5-13-13-3.4-20.1 20.2M506.5 134.4l-7.6 7.5-6.8 6.9 5 18.7 18.7 5.1 6.9-6.9 31.3-31.3"/><path d="m464 184.3-20.2-20.2-13 3.4-3.5 13 20.2 20.2M397.7 158.2l7.5 7.5 6.9 6.9 18.7-5.1 5-18.7-6.8-6.9-31.3-31.2"/><path d="m447.5 200.7-20.2 20.2 3.5 13 13 3.4 20.2-20.2M421.4 267l7.6-7.5 6.8-6.9-5-18.7-18.7-5.1-6.9 6.9-31.3 31.3M475.6 212.3h28.5l6.7-11.6-6.7-11.6h-28.5M530.2 183.9h-9.7l-9.7 16.8 9.7 16.8h9.7M475.6 189.1v-28.6l-11.6-6.7-11.7 6.7v28.6M447.2 134.4v9.7l16.8 9.7 16.8-9.7v-9.7"/><path d="M452.3 189.1h-28.5l-6.7 11.6 6.7 11.6h28.5M397.7 217.5h9.7l9.7-16.8-9.7-16.8h-9.7"/><circle cx="464" cy="267" r="6.2"/><circle cx="464" cy="200.7" r="6.2"/><path d="M452.3 346v28.5l11.7 6.7 11.6-6.7V346M480.8 400.6v-9.7l-16.8-9.7-16.8 9.7v9.7"/><path d="m464 350.8 20.1 20.2 13-3.5 3.5-13-20.2-20.1M530.2 376.9l-7.5-7.6-6.9-6.8-18.7 5-5 18.7 6.8 6.9 31.3 31.3M480.4 334.4l20.2-20.2-3.5-13-13-3.5-20.1 20.2M506.5 268.1l-7.6 7.5-6.8 6.9 5 18.7 18.7 5 6.9-6.8 31.3-31.3"/><path d="m464 317.9-20.2-20.2-13 3.5-3.5 13 20.2 20.2M397.7 291.8l7.5 7.6 6.9 6.8 18.7-5 5-18.7-6.8-6.9-31.3-31.3M447.5 334.4l-20.2 20.1 3.5 13 13 3.5 20.2-20.2M421.4 400.6l7.6-7.5 6.8-6.9-5-18.7-18.7-5-6.9 6.8-31.3 31.3M475.6 346h28.5l6.7-11.6-6.7-11.7h-28.5M530.2 317.6h-9.7l-9.7 16.8 9.7 16.8h9.7"/><path d="M475.6 322.7v-28.5l-11.6-6.7-11.7 6.7v28.5M447.2 268.1v9.7l16.8 9.7 16.8-9.7v-9.7M452.3 322.7h-28.5l-6.7 11.7 6.7 11.6h28.5M397.7 351.2h9.7l9.7-16.8-9.7-16.8h-9.7"/><circle cx="464" cy="400.6" r="6.2"/><circle cx="464" cy="334.4" r="6.2"/><path d="M452.3 479.6v28.6l11.7 6.7 11.6-6.7v-28.6"/><path d="M480.8 534.3v-9.7l-16.8-9.7-16.8 9.7v9.7M464 484.4l20.1 20.2 13-3.4 3.5-13-20.2-20.2M530.2 510.5l-7.5-7.5-6.9-6.9-18.7 5.1-5 18.7 6.8 6.9 31.3 31.3M480.4 468l20.2-20.2-3.5-13-13-3.4-20.1 20.2M506.5 401.7l-7.6 7.6-6.8 6.8 5 18.7 18.7 5.1 6.9-6.9 31.3-31.3"/><path d="m464 451.6-20.2-20.2-13 3.4-3.5 13 20.2 20.2M397.7 425.5l7.5 7.5 6.9 6.9 18.7-5.1 5-18.7-6.8-6.8-31.3-31.3M447.5 468l-20.2 20.2 3.5 13 13 3.4 20.2-20.2M421.4 534.3l7.6-7.5 6.8-6.9-5-18.7-18.7-5.1-6.9 6.9-31.3 31.3M475.6 479.6h28.5l6.7-11.6-6.7-11.6h-28.5M530.2 451.2h-9.7l-9.7 16.8 9.7 16.8h9.7"/><path d="M475.6 456.4v-28.6l-11.6-6.7-11.7 6.7v28.6M447.2 401.7v9.7l16.8 9.7 16.8-9.7v-9.7M452.3 456.4h-28.5l-6.7 11.6 6.7 11.6h28.5M397.7 484.8h9.7l9.7-16.8-9.7-16.8h-9.7"/><circle cx="464" cy="534.3" r="6.2"/><circle cx="464" cy="468" r="6.2"/><path d="M452.3 613.3v28.5l11.7 6.8 11.6-6.8v-28.5M480.8 667.9v-9.6l-16.8-9.7-16.8 9.7v9.6"/><path d="m464 618.1 20.1 20.2 13-3.5 3.5-12.9-20.2-20.2M530.2 644.2l-7.5-7.5-6.9-6.9-18.7 5-5 18.8 6.8 6.8 31.3 31.3M480.4 601.7l20.2-20.2-3.5-13-13-3.5-20.1 20.2M506.5 535.4l-7.6 7.5-6.8 6.9 5 18.7 18.7 5 6.9-6.8 31.3-31.3"/><path d="M464 585.2 443.8 565l-13 3.5-3.5 13 20.2 20.2M397.7 559.1l7.5 7.6 6.9 6.8 18.7-5 5-18.7-6.8-6.9-31.3-31.3M447.5 601.7l-20.2 20.2 3.5 12.9 13 3.5 20.2-20.2M421.4 667.9l7.6-7.5 6.8-6.8-5-18.8-18.7-5-6.9 6.9-31.3 31.2M475.6 613.3h28.5l6.7-11.6-6.7-11.7h-28.5M530.2 584.9h-9.7l-9.7 16.8 9.7 16.8h9.7"/><path d="M475.6 590v-28.5l-11.6-6.7-11.7 6.7V590"/><path d="M447.2 535.4v9.7l16.8 9.7 16.8-9.7v-9.7M452.3 590h-28.5l-6.7 11.7 6.7 11.6h28.5M397.7 618.5h9.7l9.7-16.8-9.7-16.8h-9.7"/><circle cx="464" cy="667.9" r="6.2"/><circle cx="464" cy="601.7" r="6.2"/><path d="M452.3 746.9v28.6l11.7 6.7 11.6-6.7v-28.6"/><path d="M480.8 801.6v-9.7l-16.8-9.7-16.8 9.7v9.7M464 751.7l20.1 20.2 13-3.4 3.5-13-20.2-20.2M530.2 777.8l-7.5-7.5-6.9-6.9-18.7 5.1-5 18.7 6.8 6.9 31.3 31.3M480.4 735.3l20.2-20.2-3.5-12.9-13-3.5-20.1 20.2M506.5 669l-7.6 7.6-6.8 6.8 5 18.8 18.7 5 6.9-6.9L554 669"/><path d="m464 718.9-20.2-20.2-13 3.5-3.5 12.9 20.2 20.2M397.7 692.8l7.5 7.5 6.9 6.9 18.7-5 5-18.8-6.8-6.8-31.3-31.3M447.5 735.3l-20.2 20.2 3.5 13 13 3.4 20.2-20.2M421.4 801.6l7.6-7.5 6.8-6.9-5-18.7-18.7-5.1-6.9 6.9-31.3 31.3M475.6 746.9h28.5l6.7-11.6-6.7-11.6h-28.5M530.2 718.5h-9.7l-9.7 16.8 9.7 16.8h9.7"/><path d="M475.6 723.7v-28.6l-11.6-6.7-11.7 6.7v28.6"/><path d="M447.2 669v9.7l16.8 9.7 16.8-9.7V669M452.3 723.7h-28.5l-6.7 11.6 6.7 11.6h28.5M397.7 752.1h9.7l9.7-16.8-9.7-16.8h-9.7"/><circle cx="464" cy="801.6" r="6.2"/><circle cx="464" cy="735.3" r="6.2"/><path d="M452.3 880.6v28.5l11.7 6.8 11.6-6.8v-28.5"/><path d="M480.8 935.3v-9.7l-16.8-9.7-16.8 9.7v9.7M464 885.4l20.1 20.2 13-3.5 3.5-12.9-20.2-20.2M530.2 911.5l-7.5-7.5-6.9-6.9-18.7 5-5 18.8 6.8 6.8 31.3 31.3M480.4 869l20.2-20.2-3.5-13-13-3.5-20.1 20.2"/><path d="m506.5 802.7-7.6 7.5-6.8 6.9 5 18.7 18.7 5 6.9-6.8 31.3-31.3M464 852.5l-20.2-20.2-13 3.5-3.5 13 20.2 20.2M397.7 826.4l7.5 7.6 6.9 6.8 18.7-5 5-18.7-6.8-6.9-31.3-31.3M447.5 869l-20.2 20.2 3.5 12.9 13 3.5 20.2-20.2M421.4 935.3l7.6-7.6 6.8-6.8-5-18.8-18.7-5-6.9 6.9-31.3 31.3M475.6 880.6h28.5l6.7-11.6-6.7-11.7h-28.5M530.2 852.2h-9.7l-9.7 16.8 9.7 16.8h9.7"/><path d="M475.6 857.3v-28.5l-11.6-6.7-11.7 6.7v28.5"/><path d="M447.2 802.7v9.7l16.8 9.7 16.8-9.7v-9.7M452.3 857.3h-28.5l-6.7 11.7 6.7 11.6h28.5M397.7 885.8h9.7l9.7-16.8-9.7-16.8h-9.7"/><circle cx="464" cy="935.3" r="6.2"/><circle cx="464" cy="869" r="6.2"/><path d="M452.3 1014.2v28.6l11.7 6.7 11.6-6.7v-28.6M480.8 1068.9v-9.7l-16.8-9.7-16.8 9.7v9.7"/><path d="m464 1019.1 20.1 20.1 13-3.4 3.5-13-20.2-20.2M530.2 1045.1l-7.5-7.5-6.9-6.8-18.7 5-5 18.7 6.8 6.9 31.3 31.3"/><path d="m480.4 1002.6 20.2-20.2-3.5-12.9-13-3.5-20.1 20.2M506.5 936.3l-7.6 7.6-6.8 6.8 5 18.8 18.7 5 6.9-6.9 31.3-31.3"/><path d="M464 986.2 443.8 966l-13 3.5-3.5 12.9 20.2 20.2M397.7 960.1l7.5 7.5 6.9 6.9 18.7-5 5-18.8-6.8-6.8-31.3-31.3M447.5 1002.6l-20.2 20.2 3.5 13 13 3.4 20.2-20.1"/><path d="m421.4 1068.9 7.6-7.5 6.8-6.9-5-18.7-18.7-5-6.9 6.8-31.3 31.3M475.6 1014.2h28.5l6.7-11.6-6.7-11.6h-28.5M530.2 985.8h-9.7l-9.7 16.8 9.7 16.8h9.7M475.6 991v-28.6l-11.6-6.7-11.7 6.7V991"/><path d="M447.2 936.3v9.7l16.8 9.7 16.8-9.7v-9.7M452.3 991h-28.5l-6.7 11.6 6.7 11.6h28.5M397.7 1019.4h9.7l9.7-16.8-9.7-16.8h-9.7"/><circle cx="464" cy="1068.9" r="6.2"/><circle cx="464" cy="1002.6" r="6.2"/><path d="M452.3 1147.9v28.6l11.7 6.7 11.6-6.7v-28.6"/><path d="M480.8 1202.6v-9.7l-16.8-9.7-16.8 9.7v9.7M464 1152.7l20.1 20.2 13-3.5 3.5-12.9-20.2-20.2"/><path d="m530.2 1178.8-7.5-7.5-6.9-6.9-18.7 5-5 18.8 6.8 6.8 31.3 31.3M480.4 1136.3l20.2-20.2-3.5-13-13-3.5-20.1 20.2"/><path d="m506.5 1070-7.6 7.5-6.8 6.9 5 18.7 18.7 5 6.9-6.8L554 1070M464 1119.8l-20.2-20.2-13 3.5-3.5 13 20.2 20.2M397.7 1093.7l7.5 7.6 6.9 6.8 18.7-5 5-18.7-6.8-6.9-31.3-31.3M447.5 1136.3l-20.2 20.2 3.5 12.9 13 3.5 20.2-20.2M421.4 1202.6l7.6-7.6 6.8-6.8-5-18.8-18.7-5-6.9 6.9-31.3 31.3M475.6 1147.9h28.5l6.7-11.6-6.7-11.7h-28.5M530.2 1119.5h-9.7l-9.7 16.8 9.7 16.8h9.7"/><path d="M475.6 1124.6v-28.5l-11.6-6.7-11.7 6.7v28.5"/><path d="M447.2 1070v9.7l16.8 9.7 16.8-9.7v-9.7M452.3 1124.6h-28.5l-6.7 11.7 6.7 11.6h28.5M397.7 1153.1h9.7l9.7-16.8-9.7-16.8h-9.7"/><circle cx="464" cy="1202.6" r="6.2"/><circle cx="464" cy="1136.3" r="6.2"/><path d="M452.3 1281.5v28.6l11.7 6.7 11.6-6.7v-28.6M480.8 1336.2v-9.7l-16.8-9.7-16.8 9.7v9.7"/><path d="m464 1286.4 20.1 20.2 13-3.5 3.5-13-20.2-20.2M530.2 1312.5l-7.5-7.6-6.9-6.8-18.7 5-5 18.7 6.8 6.9 31.3 31.3M480.4 1269.9l20.2-20.2-3.5-12.9-13-3.5-20.1 20.2M506.5 1203.6l-7.6 7.6-6.8 6.8 5 18.8 18.7 5 6.9-6.9 31.3-31.3"/><path d="m464 1253.5-20.2-20.2-13 3.5-3.5 12.9 20.2 20.2"/><path d="m397.7 1227.4 7.5 7.5 6.9 6.9 18.7-5 5-18.8-6.8-6.8-31.3-31.3M447.5 1269.9l-20.2 20.2 3.5 13 13 3.5 20.2-20.2"/><path d="m421.4 1336.2 7.6-7.5 6.8-6.9-5-18.7-18.7-5-6.9 6.8-31.3 31.3M475.6 1281.5h28.5l6.7-11.6-6.7-11.6h-28.5M530.2 1253.1h-9.7l-9.7 16.8 9.7 16.8h9.7M475.6 1258.3v-28.6L464 1223l-11.7 6.7v28.6M447.2 1203.6v9.7l16.8 9.7 16.8-9.7v-9.7M452.3 1258.3h-28.5l-6.7 11.6 6.7 11.6h28.5M397.7 1286.7h9.7l9.7-16.8-9.7-16.8h-9.7"/><circle cx="464" cy="1336.2" r="6.2"/><circle cx="464" cy="1269.9" r="6.2"/><path d="M452.3 1415.2v28.6l11.7 6.7 11.6-6.7v-28.6M480.8 1469.9v-9.7l-16.8-9.7-16.8 9.7v9.7"/><path d="m464 1420 20.1 20.2 13-3.5 3.5-12.9-20.2-20.2"/><path d="m530.2 1446.1-7.5-7.5-6.9-6.9-18.7 5-5 18.8 6.8 6.8 31.3 31.3M480.4 1403.6l20.2-20.2-3.5-13-13-3.5-20.1 20.2"/><path d="m506.5 1337.3-7.6 7.5-6.8 6.9 5 18.7 18.7 5 6.9-6.8 31.3-31.3M464 1387.1l-20.2-20.2-13 3.5-3.5 13 20.2 20.2M397.7 1361l7.5 7.6 6.9 6.8 18.7-5 5-18.7-6.8-6.9-31.3-31.3M447.5 1403.6l-20.2 20.2 3.5 12.9 13 3.5L464 1420M421.4 1469.9l7.6-7.6 6.8-6.8-5-18.8-18.7-5-6.9 6.9-31.3 31.3M475.6 1415.2h28.5l6.7-11.6-6.7-11.7h-28.5M530.2 1386.8h-9.7l-9.7 16.8 9.7 16.8h9.7"/><path d="M475.6 1391.9v-28.5l-11.6-6.7-11.7 6.7v28.5M447.2 1337.3v9.7l16.8 9.7 16.8-9.7v-9.7M452.3 1391.9h-28.5l-6.7 11.7 6.7 11.6h28.5M397.7 1420.4h9.7l9.7-16.8-9.7-16.8h-9.7"/><circle cx="464" cy="1469.9" r="6.2"/><circle cx="464" cy="1403.6" r="6.2"/><path d="M452.3 1548.8v28.6l11.7 6.7 11.6-6.7v-28.6M480.8 1603.5v-9.7l-16.8-9.7-16.8 9.7v9.7"/><path d="m464 1553.7 20.1 20.2 13-3.5 3.5-13-20.2-20.2M530.2 1579.8l-7.5-7.6-6.9-6.8-18.7 5-5 18.7 6.8 6.9 31.3 31.3M480.4 1537.2l20.2-20.2-3.5-12.9-13-3.5-20.1 20.2M506.5 1470.9l-7.6 7.6-6.8 6.8 5 18.8 18.7 5 6.9-6.9 31.3-31.3"/><path d="m464 1520.8-20.2-20.2-13 3.5-3.5 12.9 20.2 20.2"/><path d="m397.7 1494.7 7.5 7.5 6.9 6.9 18.7-5 5-18.8-6.8-6.8-31.3-31.3M447.5 1537.2l-20.2 20.2 3.5 13 13 3.5 20.2-20.2"/><path d="m421.4 1603.5 7.6-7.5 6.8-6.9-5-18.7-18.7-5-6.9 6.8-31.3 31.3M475.6 1548.8h28.5l6.7-11.6-6.7-11.6h-28.5M530.2 1520.4h-9.7l-9.7 16.8 9.7 16.8h9.7M475.6 1525.6V1497l-11.6-6.7-11.7 6.7v28.6"/><path d="M447.2 1470.9v9.7l16.8 9.7 16.8-9.7v-9.7M452.3 1525.6h-28.5l-6.7 11.6 6.7 11.6h28.5M397.7 1554h9.7l9.7-16.8-9.7-16.8h-9.7"/><circle cx="464" cy="1603.5" r="6.2"/><circle cx="464" cy="1537.2" r="6.2"/><path d="M452.3 1682.5v28.6l11.7 6.7 11.6-6.7v-28.6M480.8 1737.2v-9.7l-16.8-9.7-16.8 9.7v9.7"/><path d="m464 1687.3 20.1 20.2 13-3.5 3.5-12.9-20.2-20.2M530.2 1713.4l-7.5-7.5-6.9-6.9-18.7 5-5 18.8 6.8 6.8 31.3 31.3"/><path d="m480.4 1670.9 20.2-20.2-3.5-13-13-3.5-20.1 20.2M506.5 1604.6l-7.6 7.5-6.8 6.9 5 18.7 18.7 5 6.9-6.8 31.3-31.3"/><path d="m464 1654.4-20.2-20.2-13 3.5-3.5 13 20.2 20.2M397.7 1628.3l7.5 7.6 6.9 6.8 18.7-5 5-18.7-6.8-6.9-31.3-31.3M447.5 1670.9l-20.2 20.2 3.5 12.9 13 3.5 20.2-20.2M421.4 1737.2l7.6-7.6 6.8-6.8-5-18.8-18.7-5-6.9 6.9-31.3 31.3M475.6 1682.5h28.5l6.7-11.6-6.7-11.6h-28.5M530.2 1654.1h-9.7l-9.7 16.8 9.7 16.8h9.7"/><path d="M475.6 1659.3v-28.6L464 1624l-11.7 6.7v28.6M447.2 1604.6v9.7l16.8 9.7 16.8-9.7v-9.7M452.3 1659.3h-28.5l-6.7 11.6 6.7 11.6h28.5M397.7 1687.7h9.7l9.7-16.8-9.7-16.8h-9.7"/><circle cx="464" cy="1737.2" r="6.2"/><circle cx="464" cy="1670.9" r="6.2"/><path d="M452.3 1816.2v28.5l11.7 6.7 11.6-6.7v-28.5"/><path d="M480.8 1870.8v-9.7l-16.8-9.7-16.8 9.7v9.7M464 1821l20.1 20.2 13-3.5 3.5-13-20.2-20.2M530.2 1847.1l-7.5-7.6-6.9-6.8-18.7 5-5 18.7 6.8 6.9 31.3 31.3M480.4 1804.5l20.2-20.2-3.5-12.9-13-3.5-20.1 20.2M506.5 1738.2l-7.6 7.6-6.8 6.8 5 18.8 18.7 5 6.9-6.9 31.3-31.3"/><path d="m464 1788.1-20.2-20.2-13 3.5-3.5 12.9 20.2 20.2"/><path d="m397.7 1762 7.5 7.5 6.9 6.9 18.7-5 5-18.8-6.8-6.8-31.3-31.3M447.5 1804.5l-20.2 20.2 3.5 13 13 3.5L464 1821"/><path d="m421.4 1870.8 7.6-7.5 6.8-6.9-5-18.7-18.7-5-6.9 6.8-31.3 31.3M475.6 1816.2h28.5l6.7-11.7-6.7-11.6h-28.5M530.2 1787.7h-9.7l-9.7 16.8 9.7 16.8h9.7M475.6 1792.9v-28.6l-11.6-6.7-11.7 6.7v28.6M447.2 1738.2v9.7l16.8 9.7 16.8-9.7v-9.7M452.3 1792.9h-28.5l-6.7 11.6 6.7 11.7h28.5M397.7 1821.3h9.7l9.7-16.8-9.7-16.8h-9.7"/><circle cx="464" cy="1870.8" r="6.2"/><circle cx="464" cy="1804.5" r="6.2"/></g></svg>